<?xml version="1.0" standalone="no"?>
<!DOCTYPE svg PUBLIC "-//W3C//DTD SVG 1.1//EN" "http://www.w3.org/Graphics/SVG/1.1/DTD/svg11.dtd" >
<svg xmlns="http://www.w3.org/2000/svg">
<metadata>
This is a custom SVG webfont generated by Font Squirrel.
Copyright   : 1999 ShyFonts Type Foundry
</metadata>
<defs>
<font id="SFFedoraSymbolsRegular" horiz-adv-x="2218" >
<font-face units-per-em="2048" ascent="1638" descent="-410" />
<missing-glyph horiz-adv-x="768" />
<glyph unicode=" "  horiz-adv-x="768" />
<glyph unicode="&#x09;" horiz-adv-x="768" />
<glyph unicode="&#xa0;" horiz-adv-x="768" />
<glyph unicode="!" horiz-adv-x="885" d="M791 1337q0 62 -39 103t-99 41q-86 0 -159 -76q-74 -74 -74 -160q0 -32 10.5 -57.5t29 -44.5t44 -29t55.5 -10q88 0 160 74q72 75 72 159zM664 1018q0 14 -9 14q-34 0 -139 -145q-45 -64 -74.5 -111t-46.5 -80q-41 -81 -116 -323q-82 -256 -82 -324q0 -49 47 -49 q12 0 29.5 2t40.5 6t40.5 6t30.5 2h82q154 0 154 93q0 37 -3 93t-10 132q-12 148 -12 225q0 203 33 326l22 63q13 38 13 70zM705 1018q0 -33 -15 -82l-8 -26l-5 -16q-2 -6 -4 -11l-5 -13v4q-31 -114 -31 -315q0 -71 12 -221q6 -75 9.5 -133t3.5 -96q0 -118 -154 -132v-22 q0 -133 -195 -133h-82q-8 0 -26.5 -2.5t-38.5 -5.5l-40 -6q-19 -3 -36 -3q-88 0 -88 91q0 34 20.5 117.5t63.5 217.5q40 125 69.5 207.5t49.5 122.5q17 34 47.5 83t77.5 114q101 138 157 157l3 6l4 3q-22 -8 -43.5 -11.5t-44.5 -3.5q-40 0 -73.5 13.5t-57.5 37.5t-37 57.5 t-13 74.5q0 102 86 188q22 22 44.5 38.5t45.5 27.5q11 23 26.5 44.5t37.5 43.5q85 88 188 88q39 0 72 -14t56.5 -39t36.5 -59t13 -73q0 -96 -83 -188q-22 -23 -46 -40t-49 -28q-2 -3 -2 -5q0 -1 -2 -3h6q28 0 39 -13t11 -42z" />
<glyph unicode="&#x22;" d="M1450 682l172 102l-256 19h-121l428 -512l-512 426v-119l17 -256l102 170l-170 -680l-172 680l102 -170l19 256v119l-512 -426l426 512h-119l-256 -19l170 -102l-682 172l682 170l-170 -102l256 -17h119l-426 512l512 -428v121l-19 256l-102 -172l172 684l170 -684 l-102 172l-17 -256v-121l512 428l-428 -512h121l256 17l-172 102l684 -170z" />
<glyph unicode="#" horiz-adv-x="1057" d="M614 553q-4 -7 -8 -23q6 18 15 25q-5 0 -7 -2zM809 741q-6 0 -14 4q0 -3 -1 -7t-3 -9q9 9 18 12zM717 573q2 7 3.5 14t4.5 15v4q-14 -14 -33 -20q14 -4 25 -13zM479 403q22 0 42 1.5t38 3.5q5 16 12 41q7 17 12 32t11 27q-22 -35 -53.5 -62t-71.5 -43h10zM743 795 q0 112 -110 112q-83 0 -150 -61q-65 -62 -65 -144q0 -120 117 -120q85 0 147 63q61 64 61 150zM926 1122q0 162 -111 258q-107 90 -274 90q-117 0 -138 -67q9 -47 9 -62q0 -8 -0.5 -20t-1.5 -29q-1 -16 -1.5 -28.5t-0.5 -20.5q0 -131 49 -131q32 0 92 25q63 26 100 26 q74 0 121 -71q37 -59 37 -142v-16q0 -10 -1 -24t-1 -24v-18q0 -32 6 -53q-11 -35 20 -35q27 0 56 62q39 76 39 280zM858 635q0 67 -37 67q-18 0 -57 -112q-44 -135 -49 -141q-53 -87 -236 -87q-12 0 -33 4l-42 8l-40 9q-20 4 -32 4q-57 0 -88 -63q-12 -21 -43 -111 q-29 -92 -29 -152q0 -45 70 -45q290 0 510 277q106 136 106 342zM899 635q0 -112 -28 -202t-87 -165q-37 -48 -76 -87.5t-81 -71.5q-116 -146 -250 -216.5t-289 -70.5q-57 0 -84 20.5t-27 65.5q0 34 8 75t23 89q14 45 25 73.5t20 42.5q23 45 54 65.5t71 20.5q8 25 15.5 42 t13.5 26q26 54 67 74q-51 39 -51 133q0 97 78 172q22 18 43.5 32t44.5 23q9 28 26 51.5t40 46.5q51 46 108 64q-15 14 -32 22.5t-35 8.5q-29 0 -86 -25q-65 -26 -107 -26q-90 0 -90 172v24q0 15 2 29q0 12 1 24t1 21q0 3 -2 17.5t-8 43.5q30 103 162 109q0 8 -3 18l-6 27 q34 108 181 108q93 0 167 -25t134 -75q63 -54 94 -126.5t31 -162.5q0 -109 -11 -183t-32 -116v2q-34 -72 -78 -86q53 -15 53 -104z" />
<glyph unicode="$" horiz-adv-x="1290" d="M498 715q-19 3 -37 10t-37 18q2 -5 3 -8t3 -8l21 -55q9 -23 14 -37l17 41zM582 770q0 6 -37 96t-37 144q0 37 16 123q19 79 19 124q0 22 -4 39q-87 41 -207 41q-82 0 -109 -18q-41 -23 -41 -96q0 -71 37 -176q18 -53 37.5 -91.5t42 -67.5t51 -51.5t64.5 -41.5 q75 -45 137 -45q31 0 31 20zM1188 1419q0 51 -55 51q-56 0 -179 -55q-132 -58 -155 -96q-26 -41 -27 -96l-4 -49l-2 -26q-1 -12 -2 -26q-28 -214 -203 -542q-184 -349 -344 -461l-27 -20l-28 -19q-29 -26 -29 -55q0 -25 27 -25q18 0 69 23q310 154 559 520q175 259 351 692 q49 122 49 184zM1229 1419q0 -69 -51 -198q-90 -221 -178.5 -394.5t-176.5 -306.5q-72 -105 -147.5 -193t-159.5 -159q-97 -112 -203 -194.5t-221 -141.5q-29 -12 -50.5 -19.5t-35.5 -7.5q-35 0 -51 17t-16 49q0 49 47 90l8 6l20 13l-4 -3q6 5 13.5 10t15.5 11q12 9 26 21 l27 24q5 20 17 37.5t30 34.5l8 6q5 3 21 12l-4 -2q3 3 8 5t10 7q45 59 92 134t97 167l29 57l28 56q-8 -2 -16 -2h-15q-35 0 -74.5 12.5t-82.5 38.5v-2q-40 22 -71 47t-56 57t-45.5 73.5t-40.5 97.5q-20 57 -29.5 103.5t-9.5 86.5q0 95 59 131q14 9 37 15t57 8q0 93 60 131 q18 12 49.5 18t81.5 6q63 0 125.5 -14.5t122.5 -42.5v-11q0 -8 2 -16v2q2 -8 2 -17v-22q0 -51 -19 -133v2q-8 -45 -12 -73.5t-4 -42.5q0 -31 14 -72l6 37v-2q2 14 2 27q0 14 2 26t3.5 23t1.5 20q3 69 32 117q11 18 43.5 41t83.5 49q5 17 11.5 33t15.5 30q28 47 174 113 q136 59 195 59q48 0 72 -22t24 -70z" />
<glyph unicode="%" horiz-adv-x="1008" d="M854 1432q0 43 -39 43q-75 0 -227 -64q-66 -27 -122 -52.5t-101 -51.5q-134 -78 -134 -101q0 -8 21 -8q16 0 40 3l56 7q34 7 58.5 10t39.5 3q49 0 148 -29q94 -27 149 -27q61 0 78 60q1 28 4.5 55t8.5 55q1 3 4 15l8 32q8 29 8 50zM854 715q0 113 -59 198 q-115 160 -299 160q-47 0 -90 -12q-66 -20 -66 -51q0 -18 57 -25q19 -4 37.5 -5t36.5 -3q133 -28 133 -219q0 -139 -46 -232q-46 -94 -155 -182q-81 -64 -151 -86q-73 -23 -74 -25q-11 -10 -16 -45q68 -188 127 -188q27 0 80 25q485 224 485 690zM895 715q0 -374 -293 -598 q-63 -85 -156 -155.5t-215 -127.5h2q-30 -14 -54.5 -21.5t-43.5 -7.5q-88 0 -168 224q3 31 12 52.5t21 31.5v-2q8 8 28 15l58 17q11 3 21 7l22 10q-5 10 -8 22q3 31 11.5 53t21.5 31l-2 -2q9 8 29.5 15t58.5 18q24 6 49.5 20.5t54.5 34.5q34 54 50 114.5t16 137.5 q0 157 -101 178q-5 0 -8 1t-6 1l-25 2q-14 2 -23.5 3.5t-10.5 1.5h2q-48 8 -70.5 24t-22.5 41q0 63 97 90q21 6 45 9.5t47 5.5q-35 17 -35 49v16h-6q-25 0 -92 -12q-32 -5 -56.5 -7.5t-46.5 -2.5q-32 0 -46.5 10.5t-14.5 38.5q0 21 38 55.5t115 79.5h3q-2 5 -2.5 9t-0.5 9 q0 46 154 135q51 29 107.5 56.5t121.5 52.5l-2 -2q165 68 244 68q80 0 80 -84q0 -14 -2 -29.5t-8 -32.5v4q-5 -15 -7 -26t-4 -19q-9 -59 -12 -106q-12 -48 -42 -73.5t-77 -25.5h-30q-2 -14 -3 -27.5t-1 -27.5q-4 -8 -4 -12q34 -22 64.5 -52t57.5 -67q68 -97 68 -223z" />
<glyph unicode="&#x26;" horiz-adv-x="1038" d="M594 1348q0 52 -38 84t-89 32q-78 0 -133 -63q-55 -65 -55 -141q0 -54 32.5 -85.5t87.5 -31.5q77 0 136 63q59 67 59 142zM1032 1454q0 16 -16 16q-28 0 -182 -106q-67 -48 -124.5 -98t-105.5 -105q-147 -176 -264 -438q-109 -243 -154 -485q-26 -142 -26 -187 q0 -22 20.5 -36.5t42.5 -14.5q17 0 56.5 4t103.5 12q110 13 133 60q8 45 11 79.5t5 63.5q11 151 45.5 303.5t94.5 313.5q128 357 313 542q47 55 47 76zM635 1348q0 -47 -18 -88.5t-52 -79.5l8 8q50 56 109 107.5t127 101.5q85 59 136 86.5t71 27.5q26 0 41.5 -15.5 t15.5 -41.5q0 -17 -15 -43.5t-44 -60.5q-90 -90 -165.5 -221t-137.5 -308q-60 -159 -93.5 -308.5t-44.5 -295.5q-2 -32 -5 -69t-11 -80q-17 -36 -53 -56.5t-90 -31.5q-2 -16 -4.5 -31.5t-6.5 -34.5q-36 -77 -170 -92q-63 -8 -103 -12.5t-60 -4.5t-38.5 6.5t-33.5 19 t-24 29.5t-9 38q0 26 6.5 75.5t20.5 118.5q23 122 62 244.5t96 249.5q60 134 127 246t143 202q29 34 63 66l70 63l4 6q2 3 4 7q-22 -25 -46 -40t-50 -24q-8 -23 -21.5 -44.5t-31.5 -41.5q-69 -78 -166 -78q-75 0 -118.5 43t-43.5 115q0 94 66 168q21 26 47 43t55 26 q8 22 21 43t30 41q34 41 75 59.5t89 18.5q34 0 64.5 -11t53.5 -31.5t36.5 -49.5t13.5 -65z" />
<glyph unicode="'" d="M1450 682l172 102l-256 19h-121l428 -512l-512 426v-119l17 -256l102 170l-170 -680l-172 680l102 -170l19 256v119l-512 -426l426 512h-119l-256 -19l170 -102l-682 172l682 170l-170 -102l256 -17h119l-426 512l512 -428v121l-19 256l-102 -172l172 684l170 -684 l-102 172l-17 -256v-121l512 428l-428 -512h121l256 17l-172 102l684 -170z" />
<glyph unicode="(" horiz-adv-x="1221" d="M610 1133q0 58 -38 98q-38 39 -95 39q-83 0 -153 -72q-70 -70 -70 -154q0 -55 39 -95t94 -40q84 0 153 70q70 70 70 154zM1077 885q0 63 -6 125q-1 54 -41 141q-56 131 -141 215q-107 102 -227 102q-91 0 -91 -59q0 -17 9 -27q156 -97 190 -143q74 -103 74 -268 q0 -265 -146 -443q-72 -87 -180 -143q-72 -33 -219 -78q-51 -14 -51 -45q0 -35 47 -137q50 -98 80 -119q12 -6 31 -6q39 0 110 25q153 50 281 165q280 252 280 695zM1118 885q0 -230 -73 -411t-222 -314l-23 -21q-11 -11 -24 -20q-25 -31 -51 -59t-55 -54q-66 -60 -140 -103 t-155 -71h2q-74 -27 -125 -27q-32 0 -43 7q-53 36 -105 141q-24 56 -37.5 93.5t-13.5 62.5q0 59 80 84q22 6 42 12l38 12q-6 28 -6 45q0 31 19 51.5t61 32.5l126 41q53 18 87 35q12 6 25.5 13.5t25.5 15.5q98 151 98 366q0 110 -35 189q-9 -14 -20 -28t-25 -28 q-21 -21 -44 -37.5t-46 -25.5q-20 -47 -63 -90q-82 -82 -183 -82q-36 0 -67.5 14t-55.5 38t-37.5 56t-13.5 68q0 100 82 182q22 22 44.5 37.5t45.5 26.5q11 23 26.5 45.5t37.5 44.5q20 20 41.5 35t44.5 26q9 34 41.5 51t85.5 17q11 0 21.5 -1t21.5 -3q-12 15 -16.5 29 t-4.5 28q0 100 132 100q134 0 256 -114q91 -89 149 -228q22 -46 32.5 -84t12.5 -69q6 -62 6 -129z" />
<glyph unicode=")" horiz-adv-x="1286" d="M674 272q2 0 6 4q55 98 55 234q0 81 -15.5 158.5t-49.5 152.5v-2q-8 14 -28.5 43t-55.5 74q-25 29 -41.5 55t-24.5 49q-86 -163 -86 -327q0 -53 12.5 -95t38.5 -71q8 -11 33.5 -29.5t69.5 -46.5q80 -53 80 -115q0 -49 -43 -118q2 0 6 4q11 6 22.5 15t20.5 15zM1186 940 q0 13 -0.5 23t-1.5 18q-6 115 -54 285q-65 213 -141 213q-57 0 -170 -95q-112 -91 -112 -147q0 -40 65 -123q37 -46 59 -76.5t29 -46.5q70 -159 70 -327q0 -241 -162 -377l-55 -37l-56 -39q-82 -61 -82 -88q0 -25 46 -25q99 0 184 47q31 17 67.5 47t81.5 72q232 225 232 621 v55zM758 1444q0 22 -31 22q-35 0 -96 -49q-235 -181 -365 -399q-151 -250 -151 -512q0 -249 116 -436q45 -70 88 -70q40 0 87 45q221 212 221 311q0 39 -62 80q-86 56 -110 86q-62 71 -62 191q0 285 242 559q123 136 123 172zM799 1444q0 -12 -6 -27v-2q63 53 111 79t85 26 q106 0 180 -244q47 -175 56 -287q2 -8 2 -21v-28v-55q0 -414 -244 -652l-43 -39l-39 -32l-34 -43q-18 -21 -38 -39q-46 -43 -84.5 -74.5t-72.5 -50.5v2q-48 -26 -98.5 -39.5t-106.5 -13.5q-86 0 -86 63l-47 -51l-53 -53q-58 -58 -115 -58q-65 0 -123 89q-123 196 -123 458 q0 136 39.5 269.5t118.5 263.5q56 93 128 178t163 164q51 60 110 115t127 108q69 57 121 57q72 0 72 -63z" />
<glyph unicode="*" horiz-adv-x="999" d="M846 1241q0 97 -66 153q-65 56 -164 56q-163 0 -260 -133q-84 -116 -84 -236q0 -98 64 -153q64 -54 164 -54q172 0 270 146q76 112 76 221zM705 406q0 169 -228 169q-185 0 -276 -141q-76 -112 -76 -229q0 -95 58 -150t151 -55q161 0 268 125q103 121 103 281zM887 1241 q0 -122 -82 -244q-29 -42 -63 -73.5t-72 -51.5l-9 -15q-5 -7 -10 -13q-110 -164 -305 -164q-59 0 -108 16.5t-84.5 48t-55.5 78t-20 105.5q0 133 92 260q26 35 57 62.5t66 45.5l15 23q6 11 16 22q108 150 292 150q58 0 107.5 -17t86 -49t57 -78.5t20.5 -105.5zM745 406 q0 -175 -112 -308q-25 -29 -52.5 -52t-56.5 -40l-21 -31q-11 -15 -24 -30q-60 -72 -134 -106t-165 -34q-55 0 -101 17.5t-79 49.5t-51.5 77.5t-18.5 101.5q0 130 82 252q53 80 133 121l10 16q5 9 11 17q105 159 311 159q268 0 268 -210z" />
<glyph unicode="+" d="M1450 682l172 102l-256 19h-121l428 -512l-512 426v-119l17 -256l102 170l-170 -680l-172 680l102 -170l19 256v119l-512 -426l426 512h-119l-256 -19l170 -102l-682 172l682 170l-170 -102l256 -17h119l-426 512l512 -428v121l-19 256l-102 -172l172 684l170 -684 l-102 172l-17 -256v-121l512 428l-428 -512h121l256 17l-172 102l684 -170z" />
<glyph unicode="," d="M1450 682l172 102l-256 19h-121l428 -512l-512 426v-119l17 -256l102 170l-170 -680l-172 680l102 -170l19 256v119l-512 -426l426 512h-119l-256 -19l170 -102l-682 172l682 170l-170 -102l256 -17h119l-426 512l512 -428v121l-19 256l-102 -172l172 684l170 -684 l-102 172l-17 -256v-121l512 428l-428 -512h121l256 17l-172 102l684 -170z" />
<glyph unicode="-" d="M1450 682l172 102l-256 19h-121l428 -512l-512 426v-119l17 -256l102 170l-170 -680l-172 680l102 -170l19 256v119l-512 -426l426 512h-119l-256 -19l170 -102l-682 172l682 170l-170 -102l256 -17h119l-426 512l512 -428v121l-19 256l-102 -172l172 684l170 -684 l-102 172l-17 -256v-121l512 428l-428 -512h121l256 17l-172 102l684 -170z" />
<glyph unicode="." d="M1450 682l172 102l-256 19h-121l428 -512l-512 426v-119l17 -256l102 170l-170 -680l-172 680l102 -170l19 256v119l-512 -426l426 512h-119l-256 -19l170 -102l-682 172l682 170l-170 -102l256 -17h119l-426 512l512 -428v121l-19 256l-102 -172l172 684l170 -684 l-102 172l-17 -256v-121l512 428l-428 -512h121l256 17l-172 102l684 -170z" />
<glyph unicode="/" d="M1450 682l172 102l-256 19h-121l428 -512l-512 426v-119l17 -256l102 170l-170 -680l-172 680l102 -170l19 256v119l-512 -426l426 512h-119l-256 -19l170 -102l-682 172l682 170l-170 -102l256 -17h119l-426 512l512 -428v121l-19 256l-102 -172l172 684l170 -684 l-102 172l-17 -256v-121l512 428l-428 -512h121l256 17l-172 102l684 -170z" />
<glyph unicode="0" horiz-adv-x="1151" d="M690 1444q0 -36 -123 -172q-243 -275 -243 -559q0 -121 61 -191q29 -33 113 -86q61 -40 61 -80q0 -99 -221 -311q-45 -45 -86 -45q-43 0 -88 70q-117 186 -117 436q0 261 152 512q130 220 362 399q64 49 98 49q31 0 31 -22zM1118 885q0 -396 -231 -621q-92 -86 -152 -119 q-85 -47 -184 -47q-43 0 -43 25q0 27 82 88l55 39l55 37q162 136 162 377q0 166 -69 327q-5 13 -28 43.5t-63 79.5q-63 78 -63 123q0 55 113 147q113 95 170 95q73 0 139 -213q49 -164 55 -285q1 -8 1.5 -18t0.5 -23v-55z" />
<glyph unicode="1" horiz-adv-x="750" d="M596 1018q0 -31 -14 -70q-11 -32 -17 -48l-6 -15q-31 -125 -31 -326q0 -38 3 -94t10 -131q12 -152 12 -225q0 -93 -154 -93h-43h-41q-12 0 -30.5 -2.5t-38.5 -5.5t-38.5 -5.5t-31.5 -2.5q-47 0 -47 49q0 68 82 324q39 126 66.5 205t48.5 118q16 33 46 80l74 111 q109 145 142 145q8 0 8 -14zM723 1337q0 -84 -72 -159q-71 -74 -159 -74q-64 0 -102 39t-38 102q0 83 72 160q73 76 162 76q59 0 98 -41t39 -103z" />
<glyph unicode="2" horiz-adv-x="1024" d="M874 258q0 -65 -55 -123q-56 -57 -121 -57q-23 0 -42 8.5t-32.5 23t-21.5 34t-8 42.5q0 71 55 123q59 56 127 56q98 0 98 -107zM1012 1264q0 -112 -68 -213q-10 -17 -46 -61l-99 -116q-239 -275 -291 -704l-6 -50q-2 -16 -4 -20q-10 -40 -41 -51q-6 -2 -21 -2 q-7 0 -17 -0.5t-24 -1.5q-40 -2 -93.5 -9.5t-121.5 -21.5q-65 -14 -86 -14q-26 0 -26 35q0 104 104 350q140 318 285 451l113 97l114 97q150 144 150 236q0 33 -15 86q-12 57 -12 86q0 32 27 32q20 0 53 -14q125 -57 125 -192zM739 1280q0 -68 -57 -125q-56 -57 -123 -57 q-21 0 -40 8.5t-32.5 23t-21.5 34t-8 42.5q0 66 57 123q58 60 123 60q45 0 73.5 -32t28.5 -77z" />
<glyph unicode="3" horiz-adv-x="920" d="M791 635q0 -203 -109 -342q-214 -277 -508 -277q-70 0 -70 45q0 60 29 152q27 90 43 111q33 63 86 63q12 0 32 -4l42 -9l42 -8q21 -4 34 -4q179 0 235 87q1 4 13 39l36 102q37 112 58 112q37 0 37 -67zM674 795q0 -85 -62 -150q-62 -63 -145 -63q-117 0 -117 120 q0 82 66 144q67 61 149 61q109 0 109 -112zM856 1122q0 -205 -37 -280q-29 -62 -55 -62q-32 0 -21 35q-8 21 -8 53q0 8 0.5 18t1.5 24t1.5 24t0.5 16q0 83 -37 142q-47 71 -122 71q-36 0 -99 -26q-60 -25 -92 -25q-49 0 -49 131q0 8 0.5 20.5t1.5 28.5q1 17 1.5 29t0.5 20 q0 2 -3 17l-7 45q24 67 139 67q165 0 272 -90q111 -96 111 -258z" />
<glyph unicode="4" horiz-adv-x="1153" d="M1120 1419q0 -62 -49 -184q-175 -431 -350 -692q-249 -366 -561 -520q-46 -23 -70 -23t-24 25q0 30 28 55l28 20l28 19q80 57 165.5 171t178.5 290q173 326 202 542q2 27 3 51.5t3 49.5q8 59 29 96q19 37 156 96q123 55 178 55t55 -51zM514 770q0 -20 -31 -20 q-61 0 -139 45q-36 20 -64 42t-50.5 51.5t-41 67.5t-36.5 91q-37 105 -37 176q0 73 41 96q25 18 106 18q120 0 207 -41q6 -18 6 -39q0 -43 -18 -124q-17 -91 -17 -123q0 -54 37 -144t37 -96z" />
<glyph unicode="5" horiz-adv-x="870" d="M784 715q0 -465 -483 -690q-51 -25 -80 -25q-61 0 -127 188q1 33 15 45q1 2 75 25q73 22 150 86q110 89 156 182q47 96 47 232q0 190 -134 219q-20 2 -38.5 3t-34.5 5q-58 7 -58 25q0 32 64 51q45 12 90 12q184 0 299 -160q59 -85 59 -198zM784 1432q0 -21 -8 -50l-8 -32 q-3 -12 -4 -15q-4 -28 -6 -55l-4 -55q-17 -60 -80 -60q-54 0 -148 27q-99 29 -147 29q-37 0 -98 -13l-58 -7q-24 -3 -41 -3q-20 0 -20 8q0 23 135 101q45 26 99.5 52t121.5 52q156 64 227 64q39 0 39 -43z" />
<glyph unicode="6" horiz-adv-x="1159" d="M961 420q0 -83 -68 -154q-67 -67 -150 -67q-61 0 -98 36t-37 99q0 88 68 153q68 68 158 68q127 0 127 -135zM969 1212q0 -15 -4 -26q-7 0 -136 -39q-193 -56 -317 -252q-121 -187 -121 -393q0 -106 31 -199q38 -114 108 -160l29 -16l31 -18q41 -26 41 -46q0 -63 -86 -63 q-115 0 -221 84q-95 77 -150 188q-61 128 -61 285q0 152 53 326q27 91 62.5 164t80.5 133q157 205 439 290q43 15 61 15q21 0 47 -12q37 -19 76 -119q37 -89 37 -142z" />
<glyph unicode="7" horiz-adv-x="901" d="M965 1454q0 -21 -47 -76q-93 -93 -171.5 -227.5t-144.5 -314.5q-58 -158 -92 -311.5t-45 -305.5q-1 -26 -6 -62t-13 -81q-23 -47 -133 -60q-63 -8 -102 -12t-55 -4q-12 0 -23.5 4t-21 10.5t-15.5 16t-6 20.5q0 23 7 69t22 118q95 509 385 884q54 67 118 126.5t142 113.5 q157 108 184 108q17 0 17 -16zM526 1348q0 -75 -59 -142q-57 -63 -135 -63q-57 0 -89 31.5t-32 85.5q0 76 55 141q55 63 131 63q27 0 50.5 -8t41 -23t27.5 -36.5t10 -48.5z" />
<glyph unicode="8" horiz-adv-x="864" d="M637 406q0 -160 -102 -281q-107 -125 -269 -125q-47 0 -85.5 14.5t-66 41t-42.5 64.5t-15 85q0 113 74 229q94 141 277 141q229 0 229 -169zM776 1241q0 -108 -74 -221q-98 -146 -270 -146q-99 0 -163 54q-64 55 -64 153q0 120 84 236q96 133 260 133q97 0 162 -56 t65 -153z" />
<glyph unicode="9" horiz-adv-x="1083" d="M1010 885q0 -443 -281 -695q-128 -114 -283 -165q-66 -25 -110 -25q-17 0 -29 6q-35 23 -80 119q-47 102 -47 137q0 31 51 45q151 45 218 78q110 57 182 143q143 175 143 443q0 166 -72 268q-31 45 -190 143q-8 11 -8 27q0 59 88 59q121 0 229 -102q87 -85 142 -215 q38 -87 41 -141q6 -62 6 -125zM541 1133q0 -84 -70 -154q-67 -70 -152 -70q-58 0 -95 40q-38 41 -38 95q0 81 68 154q72 72 154 72q60 0 96.5 -38.5t36.5 -98.5z" />
<glyph unicode=":" d="M1450 682l172 102l-256 19h-121l428 -512l-512 426v-119l17 -256l102 170l-170 -680l-172 680l102 -170l19 256v119l-512 -426l426 512h-119l-256 -19l170 -102l-682 172l682 170l-170 -102l256 -17h119l-426 512l512 -428v121l-19 256l-102 -172l172 684l170 -684 l-102 172l-17 -256v-121l512 428l-428 -512h121l256 17l-172 102l684 -170z" />
<glyph unicode=";" d="M1450 682l172 102l-256 19h-121l428 -512l-512 426v-119l17 -256l102 170l-170 -680l-172 680l102 -170l19 256v119l-512 -426l426 512h-119l-256 -19l170 -102l-682 172l682 170l-170 -102l256 -17h119l-426 512l512 -428v121l-19 256l-102 -172l172 684l170 -684 l-102 172l-17 -256v-121l512 428l-428 -512h121l256 17l-172 102l684 -170z" />
<glyph unicode="&#x3c;" d="M1450 682l172 102l-256 19h-121l428 -512l-512 426v-119l17 -256l102 170l-170 -680l-172 680l102 -170l19 256v119l-512 -426l426 512h-119l-256 -19l170 -102l-682 172l682 170l-170 -102l256 -17h119l-426 512l512 -428v121l-19 256l-102 -172l172 684l170 -684 l-102 172l-17 -256v-121l512 428l-428 -512h121l256 17l-172 102l684 -170z" />
<glyph unicode="=" d="M1450 682l172 102l-256 19h-121l428 -512l-512 426v-119l17 -256l102 170l-170 -680l-172 680l102 -170l19 256v119l-512 -426l426 512h-119l-256 -19l170 -102l-682 172l682 170l-170 -102l256 -17h119l-426 512l512 -428v121l-19 256l-102 -172l172 684l170 -684 l-102 172l-17 -256v-121l512 428l-428 -512h121l256 17l-172 102l684 -170z" />
<glyph unicode="&#x3e;" d="M1450 682l172 102l-256 19h-121l428 -512l-512 426v-119l17 -256l102 170l-170 -680l-172 680l102 -170l19 256v119l-512 -426l426 512h-119l-256 -19l170 -102l-682 172l682 170l-170 -102l256 -17h119l-426 512l512 -428v121l-19 256l-102 -172l172 684l170 -684 l-102 172l-17 -256v-121l512 428l-428 -512h121l256 17l-172 102l684 -170z" />
<glyph unicode="?" d="M1450 682l172 102l-256 19h-121l428 -512l-512 426v-119l17 -256l102 170l-170 -680l-172 680l102 -170l19 256v119l-512 -426l426 512h-119l-256 -19l170 -102l-682 172l682 170l-170 -102l256 -17h119l-426 512l512 -428v121l-19 256l-102 -172l172 684l170 -684 l-102 172l-17 -256v-121l512 428l-428 -512h121l256 17l-172 102l684 -170z" />
<glyph unicode="@" horiz-adv-x="1161" d="M696 1069q-8 -4 -12 -4q-8 -22 -20 -41.5t-27 -38.5q5 5 11 9l11 10q13 18 22.5 34t14.5 31zM942 258q0 107 -96 107q-71 0 -129 -56q-55 -52 -55 -123q0 -23 8 -42.5t22.5 -34t33.5 -23t40 -8.5q64 0 120 57q56 59 56 123zM807 1280q0 45 -28.5 77t-73.5 32 q-65 0 -123 -60q-58 -57 -58 -123q0 -23 8 -42.5t22 -34t33 -23t42 -8.5q65 0 121 57q57 57 57 125zM1081 1264q0 134 -127 192q-31 14 -53 14q-24 0 -24 -32q0 -29 12 -86q12 -56 12 -86q0 -92 -147 -236l-114 -96l-114 -98q-147 -133 -284 -451q-107 -241 -107 -350 q0 -35 27 -35q11 0 32.5 3.5t53.5 10.5q70 14 124 22t93 9q12 1 21.5 1.5t17.5 0.5q14 0 20 2q31 7 43 51q1 2 3 19.5t5 50.5q54 429 291 704q126 146 146 177q69 100 69 213zM983 258q0 -40 -15.5 -78t-49.5 -74q-47 -48 -99 -63q-15 -47 -55 -90q-67 -70 -152 -70 q-27 0 -50.5 9.5t-42.5 26t-32 38.5t-18 47h-8v-8q-3 -31 -11 -55l-8 -23l11 19q-10 -32 -26 -51t-42 -27q-8 -5 -17 -5.5t-18 -0.5q-6 0 -14 -0.5t-21 -2.5q-71 -3 -213 -30l2 2q-38 -9 -61.5 -13t-34.5 -4q-35 0 -51 19.5t-16 56.5q0 120 110 367q71 165 144.5 280.5 t150.5 184.5l31 27l31 26q23 29 46 54t46 46l35 31l34 31q-41 -25 -94 -25q-31 0 -57.5 12t-46 32.5t-30.5 47.5t-11 58q0 82 69 151q22 22 46 37t47 25q15 46 61 92q72 72 152 72q49 0 85 -29t50 -74l12 -6q0 5 -1 10.5t-3 11.5q-12 58 -12 95q0 38 16.5 55.5t48.5 17.5 q31 0 72 -18h-2q151 -68 151 -229q0 -62 -18.5 -120.5t-59.5 -115.5h3q-10 -15 -47 -60l-103 -120q-205 -240 -270 -606q15 55 61 98q69 66 158 66q137 0 137 -148z" />
<glyph unicode="A" horiz-adv-x="1225" d="M1024 358q0 88 -25 189q-35 125 -88 158q-16 10 -24 10q-16 0 -29 -19q-8 -32 -13 -64t-9 -61q-27 -164 -146 -381q28 -39 88 -61q132 -53 185 -53q19 0 36 18q13 68 19 133.5t6 130.5zM1065 358q0 -68 -6.5 -138t-20.5 -142q-36 -43 -75 -43q-13 0 -28 1.5t-32 6.5 q-3 -29 -8 -59l-10 -60q-38 -43 -76 -43q-63 0 -199 56q-35 12 -65.5 37.5t-55.5 60.5q125 224 152 389q0 3 1 8t1 8q5 26 10.5 58.5t12.5 60.5q36 43 67 43q11 0 22 -4t23 -12q3 -3 7.5 -6t9.5 -7v5q0 3 1 7t1 9q5 26 10.5 58.5t11.5 60.5q19 21 35 32t33 11q19 0 45 -17 q34 -21 61 -66t45 -116q14 -56 20.5 -105t6.5 -94zM1038 1311q0 225 -75 225q-45 0 -183 -143q-207 -213 -327 -435q-60 -111 -108 -236t-87 -273q-57 -222 -57 -377q0 -6 -2 -19.5t-2 -19.5q0 -27 16 -33q49 19 72 80q2 4 6 31.5t14 78.5q32 164 182 414q183 292 291 381 l40 27l85 53q45 29 71.5 49.5t35.5 34.5q28 44 28 162zM1079 1311q0 -127 -35 -183q-11 -18 -41 -42t-79 -56q-5 -3 -8.5 -4.5t-6.5 -3.5q-3 -14 -7.5 -26t-10.5 -21q-11 -19 -41 -42.5t-80 -55.5q-25 -16 -44.5 -27t-33.5 -21q-37 -48 -79.5 -109t-90.5 -138v2 q-74 -122 -117 -221.5t-59 -180.5l-11 -58q-5 -26 -7 -40q-2 -5 -2 -8v-4q-16 -42 -44.5 -70t-68.5 -47q-9 5 -18 8.5t-15 9.5q-2 -14 -4 -24.5t-2 -18.5q-2 -5 -2 -7v-5q-15 -42 -43.5 -70t-69.5 -47q-27 11 -42 30t-15 48v8q0 5 2 13q0 6 1 10.5t1 7.5q0 81 14.5 176.5 t45.5 210.5q40 155 88.5 283t107.5 237q60 112 144 221.5t192 221.5q26 28 50 50.5t44 39.5l29 31q15 17 31 32q149 156 211 156q116 0 116 -266z" />
<glyph unicode="B" horiz-adv-x="1214" d="M715 905q-14 17 -53 17q-92 0 -240 -56q-110 -41 -207 -123q-35 -29 -35 -49q0 -12 39 -12q7 0 18 1t27 3t27.5 3t19.5 1q40 0 113 -26q72 -25 113 -25q14 0 22 2q26 6 88 119q53 98 68 145zM989 862q0 173 -59 336q-74 202 -207 254q-29 12 -49 12q-33 0 -33 -45 q0 -38 25 -82l24 -39q12 -18 23 -38q51 -98 51 -242q0 -263 -127 -451q-19 -24 -154 -151q-127 -115 -127 -133q0 -47 80 -166q79 -117 121 -117q39 0 162 150q112 140 139 196q131 271 131 516zM1030 862q0 -255 -135 -534q-16 -29 -51.5 -80t-93.5 -125 q-95 -116 -150 -150q-4 0 -4 -4q-134 -164 -193 -164q-64 0 -155 136q-86 128 -86 188q0 38 141 164h-2l17 16l16 15q34 43 119 118q2 2 2 4l2 3q29 44 51 98q-56 -94 -94 -101q-8 -2 -15 -2h-16q-48 0 -127 27q-70 25 -98 25q-6 0 -19.5 -1t-27.5 -3q-28 -5 -45 -5 q-42 0 -61 14t-19 40q0 20 13 40t36 40q25 21 50.5 39.5t53.5 35.5q0 19 13 38.5t36 39.5q53 45 108 77.5t112 53.5q43 17 81.5 28t73.5 19q-9 78 -41 133h2l-12 21q-6 11 -20 33l-9 13q-5 7 -8 13q-14 28 -21.5 53t-7.5 48q0 86 74 86q16 0 31.5 -4.5t34.5 -12.5l-2 2 q25 -9 47 -24q0 2 -1 3t-1 3q-29 56 -29 100q0 45 18 65.5t56 20.5q15 0 31 -4t34 -12l-2 2q150 -58 232 -279q61 -167 61 -350z" />
<glyph unicode="C" horiz-adv-x="885" d="M758 1444q0 22 -31 22q-34 0 -96 -49q-117 -88 -207.5 -187t-157.5 -210q-151 -256 -151 -514q0 -255 116 -436q45 -70 88 -70q48 0 87 45q221 227 221 311q0 39 -62 80q-86 51 -110 86q-62 71 -62 191q0 138 72 299q32 70 74 134.5t96 125.5q123 136 123 172zM799 1444 q0 -25 -32.5 -74t-100.5 -125q-53 -59 -93 -122t-71 -128q-68 -151 -68 -282q0 -53 14 -94.5t41 -73.5q11 -14 35 -32.5t62 -41.5q40 -26 61 -54.5t21 -60.5q0 -100 -234 -340l2 2q-26 -29 -55 -45l-47 -50l-51 -58q-51 -60 -117 -60q-65 0 -123 89q-123 189 -123 458 q0 134 39.5 268t118.5 267q112 186 287 340q52 60 112 115t129 108q75 57 121 57q72 0 72 -63z" />
<glyph unicode="D" horiz-adv-x="1077" d="M846 877q0 192 -86 362q-23 45 -50.5 82t-58.5 70q-84 86 -162 86q-43 0 -43 -39q0 -23 39 -86q15 -23 27 -43.5t27 -42.5q71 -125 71 -281q0 -278 -170 -430q-32 -29 -66 -55l-69 -54q-90 -80 -90 -131q0 -70 121 -209q49 -55 78 -55q73 0 194 166q94 127 142 238 q96 220 96 422zM887 877q0 -104 -25.5 -213.5t-75.5 -225.5q-24 -59 -59.5 -119.5t-85.5 -125.5q-45 -60 -84 -101t-76 -61q-130 -174 -221 -174q-48 0 -108 69q-65 76 -98.5 134t-33.5 102q0 34 27.5 74t81.5 90q14 11 29 21.5t30 23.5q28 47 95 108q12 10 24 19l27 20 q40 62 61 140t21 173q0 75 -17 138.5t-49 122.5l2 -5l-13 22l-15 26q-7 9 -14 19.5t-13 21.5q-23 37 -34 64t-11 44q0 80 84 80q56 0 115 -35q-23 37 -34 64.5t-11 44.5q0 80 83 80q98 0 191 -99q34 -35 63 -75t54 -87q45 -88 67.5 -182.5t22.5 -197.5z" />
<glyph unicode="E" horiz-adv-x="1186" d="M594 227l-25 -31q-13 -17 -28 -32q8 3 15.5 5.5t16.5 4.5q4 14 9.5 27.5t11.5 25.5zM862 199q0 94 -90 94q-34 0 -64 -13.5t-52 -36.5t-35 -53t-13 -63q0 -90 92 -90q65 0 114 47q48 46 48 115zM1018 834q0 27 -9.5 51t-26.5 41t-40.5 27t-50.5 10q-82 0 -152 -70 q-69 -68 -69 -150q0 -27 9.5 -51.5t27 -42.5t41.5 -28.5t53 -10.5q82 0 149 70q68 71 68 154zM942 1442q0 16 -16 16q-46 0 -213 -166q-72 -72 -120 -126t-75 -89q-170 -232 -246 -436q-84 -233 -84 -491v-66q0 -16 0.5 -30t1.5 -27q15 -27 50 -27q62 0 186 109 q51 45 89 87.5t65 82.5q-37 117 -37 303q0 263 180 538q2 7 117 170zM977 1419l-21 -31l-19 -26l-25 -36l-40 -58q-54 -76 -82.5 -120t-31.5 -50q-48 -71 -82 -141.5t-55 -139.5q6 5 12 7t12 5q11 25 27 48t39 45q82 82 180 82q37 0 67.5 -13t53 -36t35 -54t12.5 -67 q0 -98 -80 -183q-23 -23 -46 -39.5t-48 -25.5q-10 -23 -25 -45.5t-35 -42.5q-78 -82 -178 -82q-15 0 -29 1.5t-26 6.5q6 -42 14 -79.5t19 -72.5q-2 -3 -3.5 -5t-3.5 -5q29 32 68.5 52t85.5 20q131 0 131 -135q0 -37 -12 -70t-33.5 -59t-51 -44.5t-63.5 -25.5q-8 -34 -26 -63 t-44 -50t-58.5 -33t-67.5 -12q-133 0 -133 131q0 23 4.5 45.5t15.5 42.5q-3 -2 -5 -4t-5 -4q-26 -34 -58 -65l-67 -64q-69 -59 -122 -89t-91 -30q-28 0 -50.5 13.5t-39.5 44.5q-2 14 -2 31v36v66q0 265 86 506q38 105 101 215t151 231q26 35 75 90t123 129l30 29l28 27 l44 45l52 53q93 90 152 134t90 44q26 0 41.5 -15.5t15.5 -41.5z" />
<glyph unicode="F" horiz-adv-x="1186" d="M1018 834q0 27 -9.5 51t-26.5 41t-40.5 27t-50.5 10q-82 0 -152 -70q-69 -68 -69 -150q0 -27 9.5 -51.5t27 -42.5t41.5 -28.5t53 -10.5q82 0 149 70q68 71 68 154zM942 1442q0 16 -16 16q-46 0 -213 -166q-72 -72 -120 -126t-75 -89q-170 -232 -246 -436 q-84 -233 -84 -491v-66q0 -16 0.5 -30t1.5 -27q15 -27 50 -27q62 0 186 109q51 45 89 87.5t65 82.5q-37 117 -37 303q0 263 180 538q2 7 117 170zM977 1419l-22 -31l-18 -26l-25 -35l-40 -59q-54 -76 -82.5 -120t-31.5 -50q-48 -71 -82 -141.5t-55 -139.5q6 5 12 7t12 5 q11 25 27 48t39 45q82 82 180 82q37 0 67.5 -13t53 -36t35 -54t12.5 -67q0 -98 -80 -183q-23 -23 -46 -39.5t-48 -25.5q-10 -23 -25 -45.5t-35 -42.5q-78 -82 -178 -82q-15 0 -29 1.5t-26 6.5q6 -42 14 -79.5t19 -72.5q-32 -51 -76 -99.5t-96 -94.5q-8 -6 -14.5 -12.5 t-14.5 -12.5q-26 -34 -58 -65l-67 -64q-69 -59 -122 -89t-91 -30q-28 0 -50.5 13.5t-39.5 44.5q-2 14 -2 31v36v66q0 265 86 506q38 105 101 215t151 231q26 35 75 90t123 129l30 29l28 27l44 45l52 53q93 90 152 134t90 44q26 0 41.5 -15.5t15.5 -41.5z" />
<glyph unicode="G" horiz-adv-x="1079" d="M561 117v-2l2 2h-2zM528 170q0 94 -92 94q-34 0 -65 -14t-55 -37.5t-38 -54t-14 -64.5q0 -94 92 -94q34 0 65.5 14t55 37t37.5 54t14 65zM887 625q0 16 -23 16q-13 0 -34 -1.5t-43 -3.5t-42 -3.5t-32 -1.5q-135 0 -208 81q-73 80 -73 216q0 103 49 213q51 108 129 180 l35 29l35 28q47 47 47 72q0 33 -33 33q-103 0 -270 -166q-114 -114 -191 -270q-75 -164 -75 -318q0 -270 239 -393q84 -41 166 -41q39 0 75 3t69 11q56 13 118 135q62 113 62 181zM928 625q0 -41 -17 -90t-49 -111v2q-71 -142 -147 -158l2 2q-3 -2 -6 -2q-2 0 -4 -2 q-73 -136 -146 -151q-17 -54 -58 -93t-93 -55q-9 -34 -30 -63.5t-48.5 -51.5t-61 -34.5t-67.5 -12.5q-133 0 -133 136q0 35 12 67.5t33.5 59.5t50 46.5t61.5 28.5l-2 2q-262 137 -262 430q0 164 80 336q38 81 87.5 150t111.5 131q38 39 80 72l35 41q18 21 38 41 q93 89 166.5 133.5t132.5 44.5q74 0 74 -74q0 -20 -16.5 -47t-46.5 -57l-24 -19l-22 -18q-6 -5 -11 -11l-11 -10l2 2q-25 -22 -45 -49l-10 -13q-6 -7 -13 -14q-15 -21 -27 -44l-26 -48v2q-23 -51 -34 -100.5t-11 -95.5q0 -59 16 -106t46.5 -80.5t75 -51.5t102.5 -18 q12 0 31 1t40 3l45 4q21 2 35 2q31 0 47.5 -15.5t16.5 -41.5z" />
<glyph unicode="H" horiz-adv-x="1229" d="M793 1188q3 9 6 17l6 16q-6 -8 -11 -17l-10 -18q4 2 9 2zM686 844q10 10 23 16q-36 14 -56 45l-17 -57q-9 -28 -15 -55q5 6 10.5 11t13.5 11l22 15zM1094 1217q0 92 -95 92q-34 0 -64.5 -13.5t-54 -36t-37.5 -53t-14 -63.5q0 -96 97 -96q33 0 63.5 13.5t53.5 36.5t37 54 t14 66zM1135 924q0 26 -29 26q-64 0 -172 -32q-95 -32 -164 -68q-20 -10 -42 -27l-52 -37q-66 -53 -66 -75q0 -19 54 -19q9 0 22.5 1t32.5 3t32.5 3t22.5 1q35 0 108 -16q74 -16 107 -16q17 17 38.5 48t47.5 77q60 102 60 131zM985 258q0 56 -34 94q-33 39 -87 39 q-82 0 -151 -69q-72 -72 -72 -152q0 -27 9.5 -51t26.5 -42t40.5 -28t52.5 -10q79 0 147 69q68 71 68 150zM907 1483q0 18 -20 18q-13 0 -88 -63l-92 -80q-91 -91 -165 -198.5t-134 -235.5q-43 -97 -84.5 -221t-83.5 -281q-50 -183 -50 -303q0 -119 64 -119q49 0 186 125 q138 125 152 176q-45 97 -45 242q0 221 96 454q37 88 94 189t135 219q35 53 35 78zM948 1483q0 -39 -41 -101l-38 -57l-35 -55q29 35 72.5 57.5t92.5 22.5q136 0 136 -133q0 -36 -12.5 -69.5t-34.5 -61t-51.5 -47t-63.5 -27.5q-3 -13 -6.5 -23.5t-10.5 -21.5q90 24 150 24 q34 0 52 -16t18 -51q0 -19 -17 -57t-49 -95q-28 -46 -53 -82.5t-51 -62.5h-22q-10 0 -21 2q-2 -3 -3.5 -5t-3.5 -6q-27 -46 -52.5 -82.5t-51.5 -62.5q-31 0 -62 4t-69 12t-63 12.5t-37 4.5q-5 0 -13.5 -1t-19.5 -1q3 -57 14 -107.5t33 -93.5q-7 -23 -23 -47q2 0 3 1t3 1 q23 50 66 92q81 82 180 82q36 0 66 -13.5t51.5 -37.5t33 -55.5t11.5 -67.5q0 -92 -80 -178q-46 -46 -94 -68q-9 -21 -24 -42.5t-35 -43.5q-41 -42 -84 -62t-93 -20q-38 0 -69 13.5t-53.5 36.5t-35 54.5t-12.5 67.5q0 17 3 34t8 34q-8 -6 -15 -13l-16 -14q-20 -24 -49 -53 l-64 -63q-146 -136 -213 -136q-104 0 -104 160q0 62 12.5 140t38.5 174q42 157 84.5 282.5t85.5 224.5q62 134 138 244t169 203q10 8 27 23l39 34l43 49l45 47l36 32l58 50q87 74 115 74q32 0 46.5 -15t14.5 -44z" />
<glyph unicode="I" horiz-adv-x="1686" d="M1081 825q0 127 -129 127q-92 0 -159 -67q-68 -66 -68 -156q0 -29 9.5 -53t26.5 -42t41 -28t54 -10q89 0 156 70q69 69 69 159zM1122 825q0 -52 -20 -99t-62 -89q-21 -23 -44 -39t-48 -27q-11 -23 -26 -45.5t-35 -42.5q-79 -82 -185 -82q-39 0 -71 13.5t-54.5 37 t-34.5 55t-12 68.5q0 54 20 101t60 84q41 40 90 61q19 52 64 92q79 80 188 80q17 0 31.5 -1.5t28.5 -4.5q-63 31 -131 31q-116 0 -228 -74q0 -2 -4 -6l-21 -47l-24 -52l-24 -52l-25 -46l-37 4q-18 2 -35 9q-18 -41 -40 -86l-42 -80h-4q5 -8 8.5 -14.5t8.5 -14.5 q28 -56 47.5 -90t30.5 -43q66 -66 200 -66q68 0 129 17t115 49l6 10l6 10v-2q14 23 26 46l23 45q23 37 42.5 59.5t31.5 30.5h-2q18 12 51 12h4l14 25l13 26q9 16 18.5 29t18.5 24l-12 20q-6 11 -11 23l-30 90q-8 14 -17 27t-20 27q24 -41 24 -103zM1430 569q0 59 -52 117 q-51 64 -104 64q-22 0 -29 -7q-16 -10 -59 -77q-22 -45 -49 -88q-37 -58 -74 -101q-149 -158 -371 -158q-149 0 -227 78q-31 28 -88 144q-41 77 -96 77q-43 -46 -43 -120q0 -151 137 -297q154 -166 368 -166q186 0 428 174q259 186 259 360zM1475 1024q0 194 -123 334 q-128 141 -322 141q-148 0 -287 -65q-127 -60 -270 -203q-166 -163 -166 -275q0 -55 86 -112q83 -59 137 -60l22 43q11 21 21 43l41 86q49 79 129 146q139 110 291 110q87 0 170 -45q89 -50 123 -127l31 -92q25 -61 61 -61q56 0 56 137zM1470 569q0 -178 -229 -360 q-35 -47 -84.5 -92.5t-114.5 -93.5q-250 -183 -452 -183q-230 0 -400 178h3q-76 79 -113 160.5t-37 165.5q0 93 66 162q48 0 88 -25v17q0 38 11 74t36 67q-17 6 -27 16q-104 70 -104 148q0 131 178 303l40 38l40 36q15 20 33.5 40t39.5 40q152 150 283 210q74 35 148.5 52.5 t154.5 17.5q213 0 352 -156q66 -74 100 -164.5t34 -195.5q0 -178 -97 -178q-15 0 -30 6t-27 18q0 -62 -12 -102q30 -18 61 -55h-2q61 -70 61 -144z" />
<glyph unicode="J" horiz-adv-x="1157" d="M539 276q0 123 -121 123q-85 0 -158 -65q-67 -66 -67 -154q0 -131 124 -131q91 0 156 68q66 70 66 159zM961 961q0 276 -95 458q-26 51 -51 51q-45 0 -162 -139q-114 -140 -114 -188q0 -26 24 -51l21 -23q10 -12 20 -22q109 -127 109 -410q0 -237 -101 -459 q-63 -147 -63 -151q0 -27 24 -27q87 0 181 211q69 154 135 369q72 250 72 381zM1001 961q0 -138 -73 -394q-32 -108 -66 -201t-71 -171q-50 -107 -97.5 -165t-97.5 -69q-86 -156 -176 -156q-66 0 -66 68q0 3 15.5 42.5t46.5 111.5q-3 0 -5 -1t-5 -3q-20 -45 -58 -89 q-37 -40 -83.5 -59.5t-100.5 -19.5q-166 0 -166 172q0 108 80 182q21 18 43 33t45 24q9 28 25.5 51.5t39.5 44.5q87 78 187 78q57 0 98 -24q0 17 1 33.5t1 33.5q0 263 -96 379q-15 12 -25 29q-5 6 -10 11t-10 11q-19 19 -26 37.5t-7 38.5q0 32 31.5 86t93.5 129 q40 50 74.5 82.5t62.5 50.5q3 5 8 10l9 11q129 153 192 153q25 0 46.5 -17.5t41.5 -55.5q50 -94 74 -213t24 -264z" />
<glyph unicode="K" horiz-adv-x="1100" d="M807 381h-2v2zM885 293q0 17 -39 31l-58 22q-90 61 -90 182q0 122 90 238q-95 -39 -147 -109q-113 -143 -113 -374q0 -165 70 -254q23 -29 41 -29q37 0 141 125q105 124 105 168zM584 969q0 85 -29 245q-32 181 -68 230q-28 43 -63 43q-34 0 -150 -146 q-112 -142 -112 -182q0 -19 37 -57q24 -27 51 -51q98 -122 98 -306q0 -243 -147 -546q-66 -143 -66 -166t21 -23q24 0 137 156l79 117q31 47 46 75q166 322 166 611zM926 293q0 -28 -28 -75.5t-87 -119.5q-42 -49 -73.5 -80t-57.5 -47q-6 -6 -11 -12l-12 -14 q-58 -72 -100.5 -106t-71.5 -34q-20 0 -38 12t-35 33q-41 50 -59.5 119.5t-18.5 159.5v23q-3 -4 -4.5 -6.5t-3.5 -4.5q-122 -166 -168 -172q-114 -153 -156 -153q-32 0 -46.5 16t-14.5 47q0 17 17.5 62t51.5 120q144 295 144 531q0 167 -86 274q-16 14 -28 27l-26 29v-2 q-47 50 -47 86q0 55 121 206q97 124 154 152v2q127 162 182 162q59 0 98 -62l-2 2q22 -31 40.5 -92t35.5 -155q14 -81 21.5 -143.5t7.5 -108.5q0 -165 -52 -336l17 24l18 25q31 40 77 71.5t106 57.5l43 -53q-47 -60 -71 -118t-24 -112q0 -96 66 -147h2q6 -2 10 -4l9 -3 l12 -5l22 -7h-2q68 -20 68 -69z" />
<glyph unicode="L" horiz-adv-x="981" d="M766 252q0 123 -121 123q-87 0 -158 -68q-67 -64 -67 -153q0 -129 123 -129q91 0 155 67q68 68 68 160zM774 1202q0 63 -41 168q-51 119 -108 119q-66 0 -172 -184q-267 -452 -267 -859q0 -253 111 -446q45 0 45 49q0 140 6 243t17 175q63 378 331 623q78 70 78 112z M807 252q0 -107 -80 -189q-20 -21 -43 -37.5t-49 -25.5q-11 -25 -26.5 -46.5t-35.5 -43.5q-74 -80 -184 -80q-138 0 -160 123v-57q0 -45 -26 -68t-82 -23q-65 115 -97 235t-32 253q0 419 272 878q101 177 182 201q51 81 95.5 119.5t83.5 38.5q42 0 77.5 -35.5t67.5 -110.5 q22 -58 33.5 -103t11.5 -79q0 -62 -90 -143q-259 -238 -319 -598q-8 -45 -13 -100t-8 -121q2 0 4 1t4 1q11 26 27 49t39 45q43 40 88 60t98 20q162 0 162 -164z" />
<glyph unicode="M" horiz-adv-x="1577" d="M631 821q3 10 7 18t9 17q-6 -11 -16 -20t-21 -17q-6 -3 -16.5 -7.5t-24.5 -12.5q-3 -5 -5 -10t-5 -11q19 14 36 24.5t36 18.5zM1010 827q0 127 -127 127q-87 0 -158 -65q-68 -66 -68 -156q0 -27 10 -50.5t27 -40.5t41 -26.5t51 -9.5q89 0 156 67q68 68 68 154zM770 1053 q0 37 -65 37q-228 0 -465 -342q-134 -196 -134 -496q0 -34 3 -71t10 -79q19 -118 55 -118q53 0 209 96q69 43 117.5 79t77.5 64q-91 233 -91 408q0 101 54 205q57 109 147 147q50 22 53 25q29 17 29 45zM1382 731q0 223 -90 414q-102 213 -291 303q-51 25 -104 25 q-68 0 -68 -60q0 -16 9 -31q156 -83 217 -190q61 -104 61 -283q0 -251 -168 -510l-52 -77l-52 -80q-86 -128 -86 -144q0 -30 162 -45q55 -4 107 -7t101 -3h17q5 0 10 0.5t10 1.5q82 67 154 320q63 220 63 366zM657 899q0 -20 -6 -35q8 14 19.5 27.5t25.5 26.5q42 37 87 56 t96 21l-7 12q-3 5 -6 11q-28 48 -80 92t-131 86q-20 36 -20 64q0 100 108 100q16 0 32 -2.5t32 -5.5q-19 35 -19 61q0 100 109 100q59 0 123 -28q100 -47 177.5 -128t131.5 -196q47 -100 70.5 -206t23.5 -224q0 -74 -15.5 -168.5t-49.5 -210.5v2q-77 -268 -168 -344 q-19 -6 -29 -7t-16 -1h-12q-47 -102 -97 -145q-18 -7 -28.5 -8t-16.5 -1h-16q-53 0 -105 3t-108 8q-199 18 -199 86q0 29 92 166l52 81l53 76q108 168 143 326q-6 -3 -12 -5.5t-12 -4.5q-20 -52 -62 -92q-79 -80 -184 -80q-22 0 -41.5 3.5t-36.5 12.5q24 -100 70 -215 q-32 -32 -73.5 -64.5t-90.5 -66.5q3 -6 5 -11l5 -12q-42 -42 -97 -82.5t-124 -85.5q-84 -51 -141.5 -76.5t-88.5 -25.5q-68 0 -96 152q-12 82 -12 157q0 314 139 518q57 84 115 146.5t115 107.5q213 260 424 260q106 0 106 -77q0 -26 -12.5 -47t-34.5 -33q-8 -5 -22 -11.5 t-37 -15.5q-14 -6 -26.5 -12.5t-23.5 -15.5q0 -5 1 -9.5t1 -9.5z" />
<glyph unicode="N" horiz-adv-x="1274" d="M1108 297q0 72 -35 209q-43 160 -92 160q-18 0 -29 -23l-8 -63l-8 -60q-40 -166 -178 -370q33 -43 119 -84q93 -41 139 -41q42 0 65 36q27 45 27 236zM1174 1384q0 107 -256 107q-390 0 -625 -436q-195 -365 -195 -791q0 -278 62 -278q59 0 209 41q138 39 198 77 q-49 239 -49 474q0 339 113 514q67 101 192 178q127 78 246 78q105 0 105 36zM1149 297q0 -100 -8 -164t-25 -92q-34 -57 -100 -57h-14q-7 0 -15 2q-3 -34 -9.5 -58.5t-14.5 -40.5q-35 -57 -101 -57q-26 0 -65 11.5t-90 33.5q-48 23 -86.5 53.5t-67.5 65.5l29 45l28 43 q-32 -22 -73.5 -40t-92.5 -34l8 -37q4 -19 9 -39q-44 -31 -102 -53.5t-134 -44.5q-154 -43 -219 -43q-102 0 -102 320q0 219 49.5 419.5t148.5 389.5q114 211 265 325q112 144 248.5 215.5t302.5 71.5q296 0 296 -148q0 -77 -145 -77q-9 0 -18 -1t-17 -1q27 -33 27 -74 q0 -78 -146 -78q-55 0 -110.5 -18.5t-114.5 -53.5l-14 -9l-14 -9q-53 -84 -78 -203.5t-25 -281.5q0 -112 12.5 -233t40.5 -257q51 85 83.5 156t47.5 133l-2 -2q3 20 5 35l4 28q2 14 4 30t4 30q12 26 29 40.5t40 14.5q33 0 66 -39q0 5 1 8t3 8l-2 -2q3 20 4.5 35t3.5 29 t4 29.5t4 29.5q13 26 30 41t40 15q78 0 131 -191q37 -142 37 -219z" />
<glyph unicode="O" horiz-adv-x="1427" d="M1163 1108q0 127 -127 127q-91 0 -162 -68q-67 -64 -67 -157q0 -131 129 -131q93 0 160 67q67 70 67 162zM1204 1108q0 -109 -80 -190q-41 -42 -92 -64q-11 -25 -26 -46.5t-35 -43.5q-80 -80 -189 -80q-170 0 -170 172q0 112 80 186q22 20 44 35.5t46 24.5q20 53 64 94 q86 80 190 80q168 0 168 -168zM1184 481q0 78 -19 78q-12 0 -67 -37l-66 -40q-31 -19 -57 -29q-84 -37 -174 -37q-160 0 -236 61q-80 71 -80 225q0 172 93 349q26 49 70 108t104 131q92 112 92 142q0 38 -35 38q-74 0 -231 -127q-167 -130 -289 -354q-129 -231 -129 -432 q0 -250 143 -399q146 -158 391 -158q163 0 283 49q157 65 188 199q19 67 19 233zM1225 481q0 -83 -5 -143t-16 -100q-18 -72 -61.5 -123t-112.5 -88q-26 -56 -73.5 -97.5t-116.5 -72.5q-62 -26 -136.5 -39t-162.5 -13q-267 0 -422 170h2q-156 162 -156 428q0 106 33.5 219 t101.5 234l-2 -2q60 113 131 201.5t158 156.5q37 48 78.5 88.5t87.5 75.5h-2q84 68 148.5 101.5t109.5 33.5q37 0 56.5 -18.5t19.5 -60.5q0 -44 -103 -168q-57 -70 -99.5 -127t-68.5 -105q-88 -164 -88 -330q0 -69 16 -116t48 -76q68 -53 211 -53q83 0 157 32q22 10 51 28 l66 40q64 43 90 43q60 0 60 -119z" />
<glyph unicode="P" horiz-adv-x="1335" d="M1096 840q0 131 -131 131q-95 0 -162 -70q-66 -71 -66 -162q0 -61 38 -100t99 -39q89 0 154 74q68 77 68 166zM1192 1182q0 77 -27 166q-30 112 -80 135q-31 14 -73 14q-123 0 -330 -108q-196 -104 -285 -205q-125 -145 -197 -329q-71 -186 -71 -376q0 -278 166 -426 q59 -53 104 -53q56 0 56 80q0 33 -15 98q-14 75 -21 129t-7 86q0 19 1 37.5t3 34.5q39 256 176 438q162 215 407 215q25 0 76 -16q45 -15 78 -15q39 0 39 95zM1079 1028v-24q0 -12 -2 -21q60 -45 60 -143q0 -105 -78 -193q-46 -52 -101 -74q-9 -20 -22.5 -40.5t-30.5 -38.5 q-78 -88 -184 -88q-40 0 -73 13t-56 37t-36 57t-13 73q0 104 75 188q42 45 99 68q8 20 18.5 38t26.5 35q-84 -15 -156 -61q-59 -84 -95.5 -182.5t-53.5 -212.5v2q-2 -17 -3 -34.5t-1 -33.5q0 -28 7 -79.5t21 -127.5l-2 2q10 -38 13.5 -64.5t3.5 -43.5q0 -121 -97 -121 q-15 0 -30.5 3t-30.5 11q2 -14 3 -25.5t1 -21.5q0 -121 -96 -121q-31 0 -63.5 16.5t-67.5 47.5q-181 159 -181 457q0 98 19.5 196.5t55.5 192.5t87.5 180.5t116.5 161.5q22 25 49.5 50t61.5 50q9 14 20.5 26.5t22.5 26.5q94 111 297 215q108 56 195 84.5t153 28.5 q51 0 92 -18h-2q67 -29 102 -162v2q16 -48 22.5 -92t6.5 -86q0 -135 -80 -135q-17 0 -35.5 2t-40.5 8q0 -8 1 -15.5t1 -13.5z" />
<glyph unicode="Q" horiz-adv-x="1036" d="M416 952q0 29 -10 52.5t-28 40.5t-42.5 26.5t-52.5 9.5q-86 0 -150 -69q-65 -71 -65 -152q0 -131 122 -131q88 0 156 68q70 67 70 155zM926 1143q0 95 -90 217q-97 127 -191 127q-49 0 -229 -96q-183 -98 -183 -136q0 -10 70 -41q114 -50 146 -81q55 -54 55 -154 q0 -146 -94 -264l-86 -93l-88 -94q-95 -103 -95 -217q0 -110 64 -225q45 -86 94 -86q9 0 19 4t18.5 10t14 13.5t5.5 15.5q0 12 -3 29.5t-6 37t-6 37t-3 29.5q0 110 16 158q34 105 187 235l159 143q58 54 74 72q152 188 152 359zM967 1143q0 -94 -41 -189.5t-121 -195.5 q-25 -28 -131 -125q-5 -8 -11 -14.5t-12 -14.5q-15 -18 -68 -67l-143 -129q-17 -23 -29 -44.5t-18 -41.5q-6 -22 -10 -57.5t-4 -88.5q0 -8 2.5 -25.5t5.5 -35.5q3 -20 6.5 -35t3.5 -37q0 -16 -9.5 -31t-23.5 -27t-31.5 -19t-33.5 -7q-20 0 -37 7t-33 20q0 -7 1 -13t3 -12 q4 -20 7.5 -35t3.5 -37q0 -16 -9.5 -31t-24 -27t-32 -19t-33.5 -7q-38 0 -70 27.5t-61 81.5l2 -2q-35 62 -52 124t-17 122q0 66 26 128t78 117v-2q14 16 29 30t29 30l58 63l58 64l-2 -2q23 29 40 60t28 63q-2 -2 -6 -2q-19 -48 -64 -93q-79 -79 -184 -79q-164 0 -164 172 q0 49 19.5 92.5t56.5 85.5q23 25 46.5 41.5t51.5 27.5q9 22 23 42.5t32 41.5q-63 34 -63 64q0 58 154 143v10q0 65 204 172q96 50 157.5 75.5t90.5 25.5q115 0 223 -144q99 -132 99 -241z" />
<glyph unicode="R" horiz-adv-x="1382" d="M766 874q0 -9 -1 -18t-1 -18q3 -2 5 -2t5 -2v10q0 37 6 84h-16q2 -14 2 -27v-27zM1143 1348q0 127 -123 127q-90 0 -158 -68q-67 -66 -67 -154q0 -60 35.5 -95.5t95.5 -35.5q88 0 151 70q66 72 66 156zM1260 737q0 35 -91 51q-86 15 -149 60q-2 1 -80 74q-50 49 -84 55 q-18 -12 -31 -31q-4 -28 -7 -54t-3 -48q0 -76 27 -142q10 -22 31.5 -61.5t56.5 -93.5q78 -122 106 -135q19 -11 39 -15q40 37 111 162q74 131 74 178zM725 874q0 174 -59 334q-78 201 -213 246q-17 6 -35 6q-49 0 -49 -35q0 -8 61 -108q82 -130 82 -301q0 -158 -63 -318 q-65 -171 -175 -272l-40 -34l-44 -36q-47 -47 -47 -90q0 -56 68 -157q72 -109 121 -109q53 0 125 102q268 397 268 772zM1300 737q0 -58 -79 -198q-39 -68 -71.5 -113.5t-59.5 -71.5q-25 3 -37 6q-34 -58 -63 -97t-54 -62q-34 5 -48.5 9.5t-25.5 10.5q-18 11 -48.5 48 t-72.5 102q-17 23 -29 44l-24 42q-35 -93 -84.5 -187t-114.5 -190q-68 -99 -129 -117l-24 -37q-83 -121 -158 -121q-72 0 -155 127q-74 110 -74 181q0 60 63 123l42 34l40 33h-2q8 6 14 12l15 15q15 31 45 59l1 1q1 1 3 1q25 37 46 79.5t40 88.5q31 78 46 153.5t15 149.5 q0 158 -75 279q-34 55 -51 86.5t-17 44.5q0 76 90 76q14 0 27 -2t22 -7h-2q22 -8 43 -18.5t39 -24.5q-32 54 -48.5 85.5t-16.5 43.5q0 76 90 76q14 0 27 -1.5t22 -6.5h-2q66 -23 119.5 -75.5t93.5 -137.5l2 2q39 39 88 61q11 25 27 49t39 44q80 80 186 80q81 0 122.5 -42.5 t41.5 -125.5q0 -50 -19.5 -95.5t-56.5 -87.5q-23 -26 -48 -43t-52 -28q-19 -42 -54 -82q-11 -15 -26 -27q11 -6 20 -15l21 -18l58 -54l22 -21l-5 4q28 -20 60.5 -32t73.5 -20h-2q61 -11 92.5 -34.5t31.5 -57.5z" />
<glyph unicode="S" horiz-adv-x="1100" d="M358 154q0 92 -92 92q-33 0 -63 -13.5t-53.5 -36t-37.5 -53t-14 -63.5q0 -94 92 -94q34 0 64.5 13.5t53.5 36t36.5 53t13.5 65.5zM1006 1384q0 66 -17 66q-16 0 -38.5 -2t-55.5 -6q-62 -6 -92 -6q-102 0 -217 45q-42 16 -51 16q-33 0 -33 -37q0 -18 6 -39 q37 -121 123 -196q33 -29 81.5 -59.5t114.5 -59.5q55 -27 82 -27q33 0 56 35q11 20 28 131q7 46 10 81t3 58zM721 528q0 304 -133 574q-77 159 -312 311q-49 1 -49 -55q0 -25 60 -94q66 -80 112 -220q41 -135 41 -243q0 -169 -61 -324q-25 -63 -25 -76q0 -51 107 -206 q106 -162 149 -162q58 0 88 219q11 76 17 144.5t6 131.5zM762 528q0 -66 -6 -136.5t-17 -145.5q-33 -254 -129 -254q-19 0 -41 12q-18 -81 -46 -123.5t-66 -42.5q-29 0 -68 35t-90 104q-14 -9 -29 -15t-30 -11q-9 -34 -28.5 -63t-46.5 -50.5t-60 -34t-68 -12.5 q-133 0 -133 135q0 35 12.5 67.5t34 59t50 46t60.5 28.5q11 40 37.5 73.5t61.5 55.5q2 11 8 32.5t18 49.5q29 77 44.5 153t15.5 156q0 53 -10.5 111t-28.5 121q-22 66 -49 117.5t-56 86.5q-34 42 -51.5 71.5t-17.5 49.5q0 96 86 96h16q90 -57 158 -116q-9 15 -18 28l-19 25 q-34 42 -52 71.5t-18 49.5q0 48 22 72t64 24h17q55 -36 100 -72l23 -5q14 -3 32 -9v-1q0 -1 2 -1q11 -5 21.5 -8t21.5 -8q-6 14 -10.5 29t-9.5 30q-5 16 -6.5 28t-1.5 23q0 38 17.5 58t56.5 20q8 0 24 -4t39 -12v-1q0 -1 2 -1q110 -43 203 -43q26 0 88 6h-2q32 5 56 6.5 t44 1.5q26 0 42 -27t16 -80q0 -26 -3.5 -62.5t-9.5 -82.5q-18 -119 -35 -147q-34 -54 -90 -54q-8 0 -17 0.5t-20 3.5q-8 -40 -14 -66.5t-12 -37.5q-17 -26 -39 -39.5t-51 -13.5q-21 0 -45 6q24 -88 37.5 -178.5t13.5 -184.5z" />
<glyph unicode="T" horiz-adv-x="1184" d="M1153 1470q0 27 -27 27q-158 0 -348 -117l-43 -28q-18 -14 -33 -21q-65 -38 -65 -69q0 -13 10 -19q148 12 150 12q40 0 108 -21q69 -20 105 -20q36 28 90 121q53 98 53 135zM723 676q0 236 -76 395q-37 78 -99.5 155t-150.5 156q-74 -24 -157 -186q-80 -152 -80 -240 q0 -38 24 -59q2 -1 6 -3.5t11 -6.5l41 -25q299 -173 299 -590q0 -51 -4.5 -104.5t-14.5 -112.5q-2 -16 -3 -25.5t-1 -13.5q0 -30 23 -30t67 116q115 318 115 574zM764 676q0 -263 -117 -588q-26 -72 -53 -107.5t-53 -35.5q-24 0 -39 12q-2 -6 -4 -11t-4 -12 q-52 -143 -107 -143q-63 0 -63 72q0 2 1 4.5t1 7.5v15q0 9 2 18q18 117 18 211q0 391 -280 555q-23 15 -36.5 22t-19.5 11q-45 39 -45 96q0 49 21 113t63 145q42 80 85.5 130t94.5 73q41 66 84.5 107t94.5 56q52 -48 95.5 -92.5t78.5 -89.5q3 2 6 4.5t8 5.5v7q0 29 21.5 54 t64.5 50q17 9 34 21l40 26q204 125 370 125q36 0 52 -16t16 -52q0 -48 -59 -155q-29 -51 -57 -87t-54 -54h-35q-2 -4 -4 -7l-4 -6q-29 -51 -57 -87t-54 -54q-26 0 -59 5t-72 17q-11 4 -20 6.5t-19 4.5q32 -79 48 -173.5t16 -203.5z" />
<glyph unicode="U" horiz-adv-x="1171" d="M918 1081q0 42 -5.5 92t-15.5 111q-28 155 -61 178q-31 19 -82 19q-92 0 -195 -51q-121 -60 -121 -138q0 -17 29 -98q123 -354 123 -621q0 -67 -6 -112q-16 -112 -92 -207q-86 -104 -189 -104q-63 0 -139 73q-76 76 -96 76q-22 0 -41 -25q-19 -23 -19 -47q0 -23 19 -55 q40 -72 115 -123q74 -49 155 -49q271 0 485 358q136 223 136 723zM958 1081q0 -509 -141 -743q-57 -96 -116.5 -166t-125.5 -117q-194 -250 -432 -250q-45 0 -90 14.5t-85.5 40.5t-74.5 61t-57 77q-12 22 -17 40.5t-5 35.5q0 18 9.5 38t24 36.5t32 27t34.5 10.5q29 0 82 -47 l-6 13q-13 21 -18 39.5t-5 35.5q0 18 9.5 38t24 36.5t32.5 27.5t35 11q20 0 50 -21.5t75 -66.5q32 -31 58.5 -46.5t51.5 -15.5q26 0 47 9q14 28 24 55.5t15 58.5q6 46 6 107q0 257 -121 606q-30 85 -30 113q0 106 143 174l12 6q17 87 142 147q107 56 213 56q60 0 102 -25 q52 -33 82 -207q11 -62 15.5 -113t4.5 -96z" />
<glyph unicode="V" horiz-adv-x="1028" d="M864 1049q0 28 -10 52.5t-28 41.5t-42.5 27t-52.5 10q-84 0 -151 -70q-66 -71 -66 -152q0 -29 10 -53t27 -42t41 -28t53 -10q84 0 151 70q68 71 68 154zM705 408q0 36 -64 81l-47 36l-45 34q-133 133 -133 477q0 101 35 267q28 131 28 139q0 41 -24 41q-38 0 -99 -166 q-43 -120 -68.5 -197.5t-35.5 -111.5q-39 -144 -39 -328q0 -280 162 -590q49 -90 88 -90q35 0 96 106l45 74l43 74q58 101 58 154zM745 408q0 -32 -15.5 -76.5t-47.5 -100.5l-23 -35l-22 -36l-43 -74q-72 -127 -131 -127h-8l-15 -27q-72 -127 -131 -127q-64 0 -125 111 q-166 318 -166 610q0 94 10 178.5t31 159.5l36 115q25 80 69 199q70 192 137 192q17 0 29 -6q65 160 125 160q65 0 65 -82q0 -8 -4 -29.5t-12 -56.5l-6 -28q-3 -15 -6 -34q-35 -164 -35 -258v-2q8 5 16.5 9.5t18.5 7.5q9 23 23.5 43.5t33.5 42.5q40 43 85.5 63.5t96.5 20.5 q37 0 68.5 -13t55 -35.5t37 -54.5t13.5 -69q0 -100 -80 -183q-21 -23 -44 -39.5t-48 -25.5q-22 -49 -61 -88q-60 -63 -133 -78l19 -25q9 -13 20 -22q17 -19 40 -33l21 -16q12 -9 25 -17q81 -60 81 -114z" />
<glyph unicode="W" horiz-adv-x="1579" d="M494 621q0 -228 104 -396q-43 99 -64.5 199t-21.5 207q0 69 12.5 145t38.5 160q-35 -66 -52 -144.5t-17 -170.5zM1423 776q0 129 -120 129q-93 0 -163 -70q-69 -69 -69 -157q0 -129 129 -129q92 0 158 67q65 71 65 160zM1270 1276q0 51 -111 123l-61 43q-27 18 -45 28 q-77 -1 -135 -53q-41 -39 -119 -227q-92 -234 -92 -406q0 -210 88 -399q96 -211 256 -307q65 -41 90 -41q53 0 53 55q0 19 -41 60q-184 185 -184 444q0 296 174 496l39 42q20 21 39 44q49 56 49 98zM713 1227q0 41 -41 82q-2 2 -21.5 15t-56.5 42q-96 72 -133 72 q-109 0 -221 -285q-80 -196 -80 -401q0 -223 92 -410q94 -195 276 -315q67 -41 109 -41q47 0 47 53q0 17 -37 57q-194 208 -194 525q0 277 149 440q19 18 36 37l34 37q41 52 41 92zM1311 1276q0 -56 -58 -123q-11 -14 -22 -26l-23 -25q-15 -18 -34 -37q-115 -127 -150 -305 q6 3 12 6.5t13 5.5q9 25 25 48t38 44q81 82 191 82q161 0 161 -170q0 -103 -78 -188q-21 -23 -44.5 -39t-51.5 -27q-9 -23 -24 -44.5t-33 -43.5q-71 -77 -174 -80q42 -95 123 -174q53 -53 53 -88q0 -96 -94 -96q-39 0 -113 47h2q-11 6 -21.5 12.5t-21.5 14.5q9 -11 20 -21 l21 -22q53 -53 53 -88q0 -97 -94 -97q-18 0 -46.5 12t-66.5 35h3q-88 53 -154 131q-9 -75 -86 -75q-57 0 -131 47q-2 0 -2 1v1l10 -11l10 -12q47 -49 47 -86q0 -94 -88 -94q-57 0 -131 47q-96 63 -168 146.5t-123 185.5q-48 99 -72 204.5t-24 223.5q0 108 21 212t63 206 l-2 -2q53 136 109 211t114 94q94 160 191 160q50 0 157 -80l44 -32l26 -19q3 -2 5 -4l7 -7q22 -20 35 -45q39 36 88 51q37 74 66 103q35 32 79 47.5t97 17.5q19 -11 44.5 -27.5t59.5 -41.5q2 -3 6 -5.5t9 -4.5l-2 2q129 -84 129 -158z" />
<glyph unicode="X" horiz-adv-x="944" d="M950 1378q0 92 -94 92q-34 0 -64.5 -14t-53.5 -37t-36.5 -54t-13.5 -65q0 -92 90 -92q34 0 65 14t55 37t38 54t14 65zM440 293q0 127 -127 127q-92 0 -159 -70q-68 -68 -68 -157q0 -60 36.5 -97t96.5 -37q86 0 154 72q67 70 67 162zM713 750q0 334 -164 602 q-80 129 -129 129q-62 0 -154 -176q-86 -167 -86 -238q0 -32 25 -45l49 -29q132 -70 215 -278q70 -171 70 -416q0 -49 -19 -135q-16 -92 -16 -135q0 -29 18 -29q42 0 74 86l21 77q10 34 14 56q82 295 82 531zM754 750q0 -119 -20.5 -253.5t-63.5 -287.5l2 2q-3 -17 -13 -53 l-24 -84q-41 -115 -113 -115q-16 0 -28 6q-7 -20 -13 -45q-39 -115 -112 -115q-60 0 -60 70q0 44 17 141l6 31l-25 -12q-11 -23 -26 -44.5t-33 -41.5q-81 -84 -182 -84q-39 0 -71.5 12.5t-55.5 35t-35.5 55t-12.5 71.5q0 106 80 186q22 22 44 38t48 26q10 25 25 46.5 t37 43.5q76 79 180 82q-12 43 -29 84q-40 97 -87.5 162t-106.5 96q-3 2 -7 4t-7 4q-15 7 -29.5 16t-26 21t-19 28t-7.5 37q0 82 90 256q48 91 92 141t86 56q45 77 86.5 116.5t79.5 39.5q72 0 164 -150q6 -9 11 -19t11 -20q11 6 23 11t24 8q9 33 28.5 62t46.5 50.5t59.5 34 t68.5 12.5q135 0 135 -133q0 -35 -12.5 -68t-34 -60t-51 -47t-62.5 -29q-12 -44 -41 -79t-69 -57q15 -69 24 -141t9 -147z" />
<glyph unicode="Y" horiz-adv-x="944" d="M950 1378q0 92 -94 92q-34 0 -64.5 -14t-53.5 -37t-36.5 -54t-13.5 -65q0 -92 90 -92q34 0 65 14t55 37t38 54t14 65zM713 750q0 334 -164 602q-80 129 -129 129q-62 0 -154 -176q-86 -167 -86 -238q0 -32 25 -45l49 -29q137 -69 221 -291q64 -162 64 -403 q0 -49 -19 -135q-16 -92 -16 -135q0 -29 18 -29q42 0 74 86l21 77q10 34 14 56q82 295 82 531zM754 750q0 -119 -20.5 -253.5t-63.5 -287.5l2 2q-3 -17 -13 -53l-24 -84q-41 -115 -113 -115q-16 0 -28 6q-7 -20 -13 -45q-39 -115 -112 -115q-60 0 -60 70q0 44 17 141 q18 90 18 129q0 231 -61 390q-41 103 -90 170t-111 98q-3 2 -7 4t-7 4q-15 7 -29.5 16t-26 21t-19 28t-7.5 37q0 82 90 256q48 91 92 141t86 56q45 77 86.5 116.5t79.5 39.5q72 0 164 -150q6 -9 11 -19t11 -20q11 6 23 11t24 8q9 33 28.5 62t46.5 50.5t59.5 34t68.5 12.5 q135 0 135 -133q0 -35 -12.5 -68t-34 -60t-51 -47t-62.5 -29q-12 -44 -41 -79t-69 -57q15 -69 24 -141t9 -147z" />
<glyph unicode="Z" horiz-adv-x="1018" d="M823 1434q0 22 -18 22q-10 0 -39 -8q-54 -16 -135 -16q-102 0 -195 26q-69 21 -86 21q-48 0 -121 -150q-69 -137 -69 -196q0 -21 16 -21q33 0 92 12q237 49 449 201q106 76 106 109zM868 1182q0 32 -39 32q-176 0 -393 -217q-272 -272 -272 -540q0 -132 47 -220 q46 -87 156 -165q102 -72 172 -72q65 0 194 162q131 163 131 231q0 19 -18 19q-21 0 -60 -9q-40 -8 -59 -8q-119 0 -182 86q-58 76 -58 201t54 215q18 33 52.5 65.5t77 64.5t89.5 63l90 63q18 13 18 29zM756 1028q0 -20 -9 -33.5t-26 -27.5q-17 -13 -36 -26l-38 -26v3 l-42 -30l-40 -28q-18 -38 -27.5 -81.5t-9.5 -96.5q0 -56 12.5 -99t37.5 -77q51 -70 149 -70q5 0 19 2l32 6q17 4 34 6.5t34 2.5q59 0 59 -60q0 -43 -34 -107t-105 -151v2q-42 -54 -78.5 -90.5t-69.5 -56.5q-2 -2 -3 -4t-3 -4v2q-141 -179 -227 -179q-82 0 -197 80 q-59 42 -100.5 86t-68 93.5t-38.5 108t-12 130.5q0 285 285 569l40 38l40 36l35 40l39 40l4 4q-141 -70 -289 -100q-59 -12 -100 -12q-28 0 -43 14.5t-15 46.5q0 70 74 215q42 87 82.5 129.5t75.5 42.5h4q80 154 149 154q11 0 35.5 -5.5t63.5 -17.5q85 -24 182 -24 q38 0 69 4t56 10h-2q17 6 29.5 8t21.5 2q59 0 59 -63q0 -28 -30.5 -62.5t-92.5 -79.5q-8 -6 -16 -11t-16 -11q-2 -10 -7 -21.5t-16 -23.5q73 30 143 30q42 0 61 -17.5t19 -55.5q0 -20 -9 -34t-26 -28l-36 -26l-37 -25v2q-13 -8 -23.5 -16.5t-21.5 -16.5v-10z" />
<glyph unicode="[" d="M1450 682l172 102l-256 19h-121l428 -512l-512 426v-119l17 -256l102 170l-170 -680l-172 680l102 -170l19 256v119l-512 -426l426 512h-119l-256 -19l170 -102l-682 172l682 170l-170 -102l256 -17h119l-426 512l512 -428v121l-19 256l-102 -172l172 684l170 -684 l-102 172l-17 -256v-121l512 428l-428 -512h121l256 17l-172 102l684 -170z" />
<glyph unicode="\" d="M1450 682l172 102l-256 19h-121l428 -512l-512 426v-119l17 -256l102 170l-170 -680l-172 680l102 -170l19 256v119l-512 -426l426 512h-119l-256 -19l170 -102l-682 172l682 170l-170 -102l256 -17h119l-426 512l512 -428v121l-19 256l-102 -172l172 684l170 -684 l-102 172l-17 -256v-121l512 428l-428 -512h121l256 17l-172 102l684 -170z" />
<glyph unicode="]" d="M1450 682l172 102l-256 19h-121l428 -512l-512 426v-119l17 -256l102 170l-170 -680l-172 680l102 -170l19 256v119l-512 -426l426 512h-119l-256 -19l170 -102l-682 172l682 170l-170 -102l256 -17h119l-426 512l512 -428v121l-19 256l-102 -172l172 684l170 -684 l-102 172l-17 -256v-121l512 428l-428 -512h121l256 17l-172 102l684 -170z" />
<glyph unicode="^" horiz-adv-x="1294" d="M1030 420q0 135 -129 135q-87 0 -158 -68q-67 -64 -67 -153q0 -63 37.5 -99t97.5 -36q85 0 152 67q67 70 67 154zM1036 1212q0 53 -37 142q-37 99 -75 119q-26 12 -47 12q-19 0 -62 -15q-283 -85 -438 -290q-45 -60 -81 -133t-63 -164q-53 -174 -53 -326q0 -155 62 -285 q55 -112 149 -188q109 -84 221 -84q86 0 86 63q0 20 -41 46q-13 9 -27 17.5t-30 16.5q-72 45 -111 160q-30 94 -30 199q0 206 121 393q124 196 317 252q129 39 135 39q4 11 4 26zM1071 420q0 -99 -80 -182q-41 -42 -92 -64q-9 -23 -25 -45.5t-36 -44.5q-50 -50 -107 -70 q-24 -55 -119 -55q-14 0 -26 1t-25 3q25 -24 25 -53q0 -54 -32 -79.5t-95 -25.5q-131 0 -248 93q-51 42 -91 91t-69 111q-32 70 -48.5 145t-16.5 158q0 163 55 338q28 94 65.5 170.5t83.5 139.5q65 86 154 151v2q84 109 197 184.5t262 120.5h-2q23 10 42.5 13.5t33.5 3.5 q31 0 65 -17q51 -23 96 -141l-2 2q41 -99 41 -158q0 -8 -5 -26l-9 -41q-11 0 -49.5 -9t-95.5 -26q3 -14 4.5 -27t1.5 -24q0 -8 -5 -27t-10 -41q-11 0 -52 -9t-103 -28q-67 -19 -121 -55q-5 -6 -9.5 -13t-9.5 -14q-114 -179 -114 -370q0 -48 6 -92.5t20 -87.5l16 21 q8 10 19 19q22 20 43.5 35.5t44.5 24.5q11 26 27 49t39 45q43 40 88 60t98 20q170 0 170 -176z" />
<glyph unicode="_" d="M1450 682l172 102l-256 19h-121l428 -512l-512 426v-119l17 -256l102 170l-170 -680l-172 680l102 -170l19 256v119l-512 -426l426 512h-119l-256 -19l170 -102l-682 172l682 170l-170 -102l256 -17h119l-426 512l512 -428v121l-19 256l-102 -172l172 684l170 -684 l-102 172l-17 -256v-121l512 428l-428 -512h121l256 17l-172 102l684 -170z" />
<glyph unicode="`" d="M1450 682l172 102l-256 19h-121l428 -512l-512 426v-119l17 -256l102 170l-170 -680l-172 680l102 -170l19 256v119l-512 -426l426 512h-119l-256 -19l170 -102l-682 172l682 170l-170 -102l256 -17h119l-426 512l512 -428v121l-19 256l-102 -172l172 684l170 -684 l-102 172l-17 -256v-121l512 428l-428 -512h121l256 17l-172 102l684 -170z" />
<glyph unicode="a" horiz-adv-x="1090" d="M956 358q0 -129 -24 -264q-17 -18 -37 -18q-52 0 -184 53q-59 22 -90 61q118 211 147 381q3 28 9 59t14 66q13 19 26 19q11 0 27 -10q51 -33 86 -158q26 -99 26 -189zM969 1311q0 -122 -27 -162q-8 -14 -34.5 -34.5t-71.5 -49.5q-111 -66 -125 -80q-110 -89 -291 -381 q-152 -253 -182 -414q-11 -51 -15 -78.5t-6 -31.5q-23 -61 -72 -80q-16 6 -16 33q0 6 1 19.5t1 19.5q0 147 59 377q74 289 195 509q122 223 328 435q137 143 182 143q74 0 74 -225z" />
<glyph unicode="b" horiz-adv-x="1079" d="M647 905q-7 -23 -24 -59.5t-43 -85.5q-62 -113 -91 -119q-6 -2 -22 -2q-41 0 -113 25q-69 26 -112 26q-8 0 -19 -1t-27 -3q-15 -2 -26.5 -3t-19.5 -1q-37 0 -37 12q0 21 34 49q94 82 207 123q150 56 238 56q43 0 55 -17zM922 862q0 -245 -131 -516q-26 -53 -140 -196 q-123 -150 -164 -150t-120 117q-78 121 -78 166q0 18 127 133q136 129 153 151q127 188 127 451q0 141 -53 242q-10 20 -22.5 38.5t-22.5 38.5q-27 45 -27 82q0 45 35 45q20 0 49 -12q133 -52 207 -254q60 -162 60 -336z" />
<glyph unicode="c" horiz-adv-x="748" d="M690 1444q0 -36 -123 -172q-105 -120 -172 -260q-71 -162 -71 -299q0 -121 61 -191q29 -35 113 -86q61 -40 61 -80q0 -84 -221 -311q-44 -45 -86 -45q-43 0 -88 70q-117 180 -117 436q0 257 152 514q67 111 157 210t205 187q64 49 98 49q31 0 31 -22z" />
<glyph unicode="d" horiz-adv-x="940" d="M778 877q0 -202 -96 -422q-49 -106 -143 -238q-121 -166 -195 -166q-31 0 -76 55q-121 139 -121 209q0 52 91 131l67 53l68 56q168 150 168 430q0 160 -70 281l-55 86q-39 63 -39 86q0 39 45 39q76 0 160 -86q32 -33 60 -70t50 -82q86 -170 86 -362z" />
<glyph unicode="e" horiz-adv-x="1049" d="M795 199q0 -69 -49 -115q-49 -47 -115 -47q-92 0 -92 90q0 33 13 63t35.5 53t52 36.5t62.5 13.5q93 0 93 -94zM874 1442l-25 -38l-77 -114l-86 -124q-29 -42 -33 -46q-178 -275 -178 -538q0 -186 37 -303q-52 -75 -156 -170q-124 -109 -186 -109q-34 0 -47 27 q-2 26 -3 57t-1 66q0 259 86 491q38 102 98.5 210.5t145.5 225.5q50 69 196 215q167 166 211 166q18 0 18 -16zM948 834q0 -84 -67 -154q-64 -70 -148 -70q-58 0 -95 39q-38 40 -38 94q0 83 70 150q69 70 153 70q27 0 50 -10t39.5 -27t26 -41t9.5 -51z" />
<glyph unicode="f" horiz-adv-x="1049" d="M874 1442l-25 -38l-77 -114l-86 -124q-29 -42 -33 -46q-178 -275 -178 -538q0 -186 37 -303q-52 -75 -156 -170q-124 -109 -186 -109q-34 0 -47 27q-2 26 -3 57t-1 66q0 259 86 491q38 102 98.5 210.5t145.5 225.5q50 69 196 215q167 166 211 166q18 0 18 -16zM948 834 q0 -84 -67 -154q-64 -70 -148 -70q-58 0 -95 39q-38 40 -38 94q0 83 70 150q69 70 153 70q27 0 50 -10t39.5 -27t26 -41t9.5 -51z" />
<glyph unicode="g" horiz-adv-x="944" d="M459 170q0 -34 -14 -65t-37.5 -54t-54.5 -37t-64 -14q-92 0 -92 94q0 34 13.5 64.5t36.5 54t54 37.5t66 14q92 0 92 -94zM817 625q0 -65 -59 -181q-66 -121 -119 -135q-32 -7 -67.5 -10.5t-75.5 -3.5q-82 0 -166 41q-242 123 -242 393q0 150 80 318q73 157 186 270 q172 166 273 166q32 0 32 -33q0 -27 -49 -72q-16 -14 -34.5 -28.5t-34.5 -28.5q-75 -69 -127 -180q-49 -110 -49 -213q0 -134 71 -216q72 -81 207 -81q13 0 33.5 1.5t42.5 3.5t42.5 3.5t33.5 1.5q22 0 22 -16z" />
<glyph unicode="h" horiz-adv-x="1092" d="M918 258q0 -79 -68 -150q-68 -69 -148 -69q-56 0 -94 38q-37 37 -37 93q0 80 72 152q70 69 152 69q27 0 50 -10.5t39 -28.5t25 -42.5t9 -51.5zM840 1483q0 -25 -35 -78q-78 -118 -135.5 -219t-94.5 -189q-98 -232 -98 -454q0 -136 47 -242q-13 -48 -153 -176 q-139 -125 -185 -125q-63 0 -63 119q0 117 47 303q42 157 83.5 281t86.5 221q115 250 299 434q20 20 92 80q76 63 86 63q23 0 23 -18zM1067 924q0 -28 -59 -131q-28 -45 -49.5 -75.5t-36.5 -49.5q-33 0 -107 16t-108 16q-10 0 -23.5 -1t-32.5 -3t-32.5 -3t-22.5 -1 q-55 0 -55 19q0 23 67 75q27 21 50.5 37.5t43.5 26.5q62 34 164 68q108 32 172 32q29 0 29 -26zM1026 1217q0 -35 -13.5 -66t-37 -54t-54.5 -36.5t-65 -13.5q-94 0 -94 96q0 33 14 63.5t37 53t54 36t65 13.5q94 0 94 -92z" />
<glyph unicode="i" horiz-adv-x="1550" d="M1362 569q0 -174 -260 -360q-242 -174 -428 -174q-211 0 -367 166q-137 146 -137 297q0 73 41 120q57 0 98 -77q58 -115 86 -144q82 -78 230 -78q218 0 370 158q17 21 36 47l38 54l25 44l24 44q20 34 35 53t23 24q11 7 28 7q56 0 107 -64q51 -59 51 -117zM1014 825 q0 -90 -70 -159q-67 -70 -158 -70q-29 0 -52.5 10t-40.5 28t-26.5 42t-9.5 53q0 90 68 156q67 67 160 67q129 0 129 -127zM1407 1024q0 -137 -55 -137q-35 0 -62 61l-30 92q-34 77 -123 127q-83 45 -170 45q-156 0 -293 -110q-83 -66 -127 -146l-41 -86l-43 -86 q-55 1 -139 60q-84 58 -84 112q0 112 166 275q144 144 268 203q142 65 287 65q194 0 323 -141q123 -140 123 -334z" />
<glyph unicode="j" horiz-adv-x="1020" d="M471 276q0 -88 -65 -159q-66 -68 -156 -68q-125 0 -125 131q0 88 68 154q71 65 157 65q121 0 121 -123zM893 961q0 -131 -72 -381q-65 -215 -135 -369q-94 -211 -180 -211q-27 0 -27 27q0 -2 66 151q98 225 98 459q0 286 -106 410q-11 10 -21 22l-20 23q-25 25 -25 51 q0 49 115 188t159 139q27 0 54 -51q94 -181 94 -458z" />
<glyph unicode="k" horiz-adv-x="963" d="M815 293q0 -43 -104 -168q-101 -125 -142 -125q-18 0 -41 29q-69 90 -69 254q0 232 112 374q55 69 150 109q-90 -116 -90 -238q0 -121 90 -182l13 -6l42 -16q39 -14 39 -31zM516 969q0 -289 -166 -611q-14 -28 -46 -75l-81 -117q-110 -156 -135 -156q-20 0 -20 23 q0 22 65 166q148 302 148 546q0 187 -101 306l-51 51q-35 41 -35 57q0 39 113 182q116 146 147 146q38 0 66 -43q37 -50 67 -230q15 -79 22 -140.5t7 -104.5z" />
<glyph unicode="l" horiz-adv-x="844" d="M698 252q0 -93 -67 -160q-66 -67 -156 -67q-123 0 -123 129q0 88 68 153q68 68 158 68q120 0 120 -123zM707 1202q0 -42 -78 -112q-269 -246 -332 -623q-13 -71 -19 -174.5t-6 -243.5q0 -49 -43 -49q-110 194 -110 446q0 407 266 859q106 184 172 184q54 0 107 -119 q43 -101 43 -168z" />
<glyph unicode="m" horiz-adv-x="1440" d="M702 1053q0 -32 -30 -45q-4 -4 -51 -25q-91 -37 -148 -147q-53 -104 -53 -205q0 -181 88 -408q-29 -28 -77.5 -64t-117.5 -79q-155 -96 -207 -96q-34 0 -55 118q-8 42 -11 79.5t-3 70.5q0 302 133 496q238 342 467 342q65 0 65 -37zM942 827q0 -86 -70 -153 q-68 -68 -153 -68q-29 0 -52.5 9.5t-40.5 26.5t-26.5 40.5t-9.5 50.5q0 46 17.5 86.5t48 70.5t71.5 47t88 17q127 0 127 -127zM1315 731q0 -147 -64 -366q-71 -253 -153 -320q-5 -1 -10.5 -1.5t-10.5 -0.5h-16q-49 0 -101.5 3t-107.5 7q-162 15 -162 45q0 16 84 144l53 80 l54 77q168 259 168 510q0 177 -62 283q-61 108 -217 190q-8 16 -8 31q0 60 67 60q51 0 105 -25q187 -90 291 -303q90 -191 90 -414z" />
<glyph unicode="n" horiz-adv-x="1137" d="M1040 297q0 -190 -26 -236q-23 -36 -66 -36q-46 0 -139 41q-86 41 -119 84q70 105 113.5 197t62.5 173q4 29 9 60l10 63q11 23 28 23q50 0 93 -160q34 -133 34 -209zM1104 1384q0 -36 -105 -36q-116 0 -243 -78q-63 -38 -111 -82.5t-82 -95.5q-114 -177 -114 -514 q0 -235 49 -474q-56 -38 -197 -77q-149 -41 -209 -41q-63 0 -63 278q0 426 194 791q235 436 627 436q254 0 254 -107z" />
<glyph unicode="o" horiz-adv-x="1292" d="M1116 481q0 -164 -18 -233q-33 -133 -191 -199q-114 -49 -280 -49q-245 0 -394 158q-143 149 -143 399q0 202 131 432q122 222 287 354q161 127 233 127q33 0 33 -38q0 -30 -92 -142q-116 -136 -174 -239q-92 -178 -92 -349q0 -155 82 -225q73 -61 235 -61q90 0 174 37 q27 10 57 29l66 40q50 37 68 37t18 -78zM1096 1108q0 -92 -70 -162q-67 -67 -160 -67q-127 0 -127 131q0 92 68 157q71 68 162 68q127 0 127 -127z" />
<glyph unicode="p" horiz-adv-x="1200" d="M1122 1182q0 -95 -39 -95q-30 0 -75 15q-52 16 -78 16q-244 0 -406 -215q-136 -179 -176 -438q-2 -16 -3 -34.5t-1 -37.5q0 -32 7.5 -86t21.5 -129q12 -72 12 -98q0 -80 -53 -80q-44 0 -105 53q-166 148 -166 426q0 191 72 376q72 184 197 329q89 101 284 205 q207 108 330 108q41 0 74 -14q48 -22 80 -135q24 -93 24 -166zM1028 840q0 -90 -67 -166q-66 -74 -156 -74q-63 0 -99 39t-36 100q0 91 65 162q67 70 162 70q131 0 131 -131z" />
<glyph unicode="q" horiz-adv-x="899" d="M346 952q0 -88 -68 -156q-67 -67 -157 -67q-121 0 -121 131q0 86 63 152q64 69 150 69q60 0 96.5 -35.5t36.5 -93.5zM856 1143q0 -172 -151 -359q-26 -33 -232 -215q-153 -132 -188 -235q-15 -44 -15 -158q0 -12 3 -29l7 -37l6 -37q3 -18 3 -30q0 -8 -5.5 -15.5 t-14 -13.5t-19 -10t-19.5 -4q-49 0 -94 86q-63 115 -63 225q0 116 94 217l86 96l88 91q94 118 94 264q0 100 -55 154q-33 30 -145 81q-70 31 -70 41q0 38 182 136q180 96 230 96q92 0 188 -127q90 -122 90 -217z" />
<glyph unicode="r" horiz-adv-x="1245" d="M657 874q0 -375 -268 -772q-72 -102 -127 -102q-49 0 -121 109q-65 103 -65 157q0 43 47 90l43 36q20 18 41 34q106 97 174 272q63 160 63 318q0 171 -82 301q-61 100 -61 108q0 35 49 35q18 0 35 -6q135 -45 213 -246q59 -160 59 -334zM1192 737q0 -47 -74 -178 q-68 -124 -110 -162q-21 4 -39 15q-29 14 -107 135q-35 54 -56.5 93.5t-31.5 61.5q-26 67 -26 142q0 22 3 48t7 54q11 19 30 31q34 -6 84 -55q78 -73 80 -74q64 -45 150 -60q90 -17 90 -51zM1075 1348q0 -83 -65 -156q-64 -70 -154 -70q-29 0 -53 9.5t-41 26.5t-27 41 t-10 54q0 88 68 154q70 68 157 68q125 0 125 -127z" />
<glyph unicode="s" horiz-adv-x="965" d="M291 154q0 -35 -13.5 -65.5t-37 -53t-54.5 -36t-65 -13.5q-92 0 -92 94q0 33 13.5 63.5t36.5 53t54 36t66 13.5q92 0 92 -92zM651 528q0 -63 -5 -131.5t-15 -144.5q-32 -219 -88 -219q-44 0 -150 162q-108 157 -108 206q0 13 26 76q62 157 62 324q0 108 -41 243 q-46 141 -113 220q-59 70 -59 94q0 56 49 55q229 -148 309 -311q133 -270 133 -574zM938 1384q0 -48 -12 -139q-15 -101 -29 -131q-23 -35 -55 -35q-27 0 -82 27q-66 29 -115 59.5t-84 59.5q-84 78 -121 196q-6 21 -6 39q0 37 33 37q9 0 51 -16q117 -45 215 -45q30 0 92 6 q33 4 55.5 6t39.5 2q18 0 18 -66z" />
<glyph unicode="t" horiz-adv-x="1049" d="M653 676q0 -255 -114 -574q-41 -116 -66 -116q-24 0 -24 30q0 4 6 39q18 117 18 217q0 417 -299 590q-54 32 -57 35q-27 21 -27 59q0 88 80 240q83 162 160 186q88 -79 150.5 -156t99.5 -155q73 -162 73 -395zM1085 1470q0 -37 -53 -135q-54 -93 -90 -121q-38 0 -107 20 q-68 21 -106 21q-7 0 -149 -12q-11 6 -11 19q0 31 66 69q14 8 32 21l44 28q186 117 348 117q26 0 26 -27z" />
<glyph unicode="u" horiz-adv-x="1036" d="M848 1081q0 -500 -135 -723q-214 -358 -484 -358q-80 0 -154 49q-75 49 -114 123q-18 33 -18 55q0 24 19 47q18 25 38 25q18 0 94 -76q76 -73 139 -73q105 0 191 104q74 95 92 207q6 45 6 112q0 270 -125 621q-26 75 -26 98q0 78 121 138q102 51 192 51q54 0 82 -19 q37 -22 61 -178q11 -61 16 -111t5 -92z" />
<glyph unicode="v" horiz-adv-x="893" d="M637 408q0 -52 -57 -154l-46 -74l-45 -74q-61 -106 -94 -106q-42 0 -88 90q-162 310 -162 590q0 181 37 328l36 112q26 77 71 197q61 166 96 166q27 0 27 -41q0 -3 -8 -38l-21 -101q-37 -158 -37 -267q0 -344 133 -477q23 -16 47 -35l45 -35q66 -47 66 -81zM795 1049 q0 -83 -68 -154q-63 -70 -149 -70q-60 0 -96 38t-36 95q0 81 66 152q67 70 150 70q30 0 54.5 -10t42 -27t27 -41.5t9.5 -52.5z" />
<glyph unicode="w" horiz-adv-x="1442" d="M643 1227q0 -46 -39 -92q-16 -19 -34.5 -37.5t-34.5 -36.5q-150 -162 -150 -440q0 -318 195 -525q36 -41 36 -57q0 -53 -47 -53q-45 0 -110 41q-182 120 -277 315q-90 190 -90 410q0 204 78 401q112 285 223 285q32 0 133 -72l56 -42q19 -14 20 -15q41 -41 41 -82z M1202 1276q0 -42 -49 -98l-39 -44l-39 -42q-174 -200 -174 -496q0 -256 182 -444q41 -41 41 -60q0 -55 -53 -55q-21 0 -88 41q-163 97 -258 307q-86 195 -86 399q0 172 92 406q74 188 119 227q58 52 135 53l44 -29l63 -42q110 -72 110 -123zM1356 776q0 -90 -66 -160 q-64 -67 -157 -67q-132 0 -132 129q0 88 70 157q70 70 164 70q121 0 121 -129z" />
<glyph unicode="x" horiz-adv-x="807" d="M373 293q0 -91 -68 -162q-68 -72 -155 -72q-60 0 -97 37t-37 97q0 89 68 157q70 70 162 70q127 0 127 -127zM643 750q0 -228 -80 -531q-4 -22 -13 -56t-22 -77q-30 -86 -73 -86q-19 0 -19 29q0 43 16 135q17 97 17 135q0 239 -68 416q-82 211 -215 278l-26 15l-25 14 q-24 13 -24 45q0 75 88 238q92 176 153 176q49 0 127 -129q164 -268 164 -602zM883 1378q0 -34 -14.5 -65t-38.5 -54t-55 -37t-64 -14q-90 0 -90 92q0 34 13.5 65t36.5 54t53 37t64 14q95 0 95 -92z" />
<glyph unicode="y" horiz-adv-x="807" d="M643 750q0 -228 -80 -531q-4 -22 -13 -56t-22 -77q-30 -86 -73 -86q-19 0 -19 29q0 43 16 135q17 97 17 135q0 239 -63 403q-84 222 -220 291l-26 15l-25 14q-24 13 -24 45q0 75 88 238q92 176 153 176q49 0 127 -129q164 -268 164 -602zM883 1378q0 -34 -14.5 -65 t-38.5 -54t-55 -37t-64 -14q-90 0 -90 92q0 34 13.5 65t36.5 54t53 37t64 14q95 0 95 -92z" />
<glyph unicode="z" horiz-adv-x="883" d="M801 1182q0 -16 -19 -29l-90 -62l-90 -65q-90 -65 -129 -129q-53 -91 -53 -215q0 -125 57 -201q62 -86 182 -86q11 0 25.5 2t34.5 6q39 9 59 9q17 0 17 -19q0 -69 -129 -231t-197 -162t-170 72q-110 78 -156 165q-47 88 -47 220q0 268 273 540q217 217 393 217 q39 0 39 -32zM754 1434q0 -33 -105 -109q-213 -152 -448 -201q-62 -12 -92 -12q-19 0 -19 21q0 60 70 196q73 150 123 150q12 0 86 -21q93 -26 192 -26q80 0 137 16q29 8 37 8q19 0 19 -22z" />
<glyph unicode="{" d="M1450 682l172 102l-256 19h-121l428 -512l-512 426v-119l17 -256l102 170l-170 -680l-172 680l102 -170l19 256v119l-512 -426l426 512h-119l-256 -19l170 -102l-682 172l682 170l-170 -102l256 -17h119l-426 512l512 -428v121l-19 256l-102 -172l172 684l170 -684 l-102 172l-17 -256v-121l512 428l-428 -512h121l256 17l-172 102l684 -170z" />
<glyph unicode="|" d="M1450 682l172 102l-256 19h-121l428 -512l-512 426v-119l17 -256l102 170l-170 -680l-172 680l102 -170l19 256v119l-512 -426l426 512h-119l-256 -19l170 -102l-682 172l682 170l-170 -102l256 -17h119l-426 512l512 -428v121l-19 256l-102 -172l172 684l170 -684 l-102 172l-17 -256v-121l512 428l-428 -512h121l256 17l-172 102l684 -170z" />
<glyph unicode="}" d="M1450 682l172 102l-256 19h-121l428 -512l-512 426v-119l17 -256l102 170l-170 -680l-172 680l102 -170l19 256v119l-512 -426l426 512h-119l-256 -19l170 -102l-682 172l682 170l-170 -102l256 -17h119l-426 512l512 -428v121l-19 256l-102 -172l172 684l170 -684 l-102 172l-17 -256v-121l512 428l-428 -512h121l256 17l-172 102l684 -170z" />
<glyph unicode="~" d="M1450 682l172 102l-256 19h-121l428 -512l-512 426v-119l17 -256l102 170l-170 -680l-172 680l102 -170l19 256v119l-512 -426l426 512h-119l-256 -19l170 -102l-682 172l682 170l-170 -102l256 -17h119l-426 512l512 -428v121l-19 256l-102 -172l172 684l170 -684 l-102 172l-17 -256v-121l512 428l-428 -512h121l256 17l-172 102l684 -170z" />
<glyph unicode="&#xaa;" horiz-adv-x="1090" d="M956 358q0 -129 -24 -264q-17 -18 -37 -18q-52 0 -184 53q-59 22 -90 61q118 211 147 381q3 28 9 59t14 66q13 19 26 19q11 0 27 -10q51 -33 86 -158q26 -99 26 -189zM969 1311q0 -122 -27 -162q-8 -14 -34.5 -34.5t-71.5 -49.5q-111 -66 -125 -80q-110 -89 -291 -381 q-152 -253 -182 -414q-11 -51 -15 -78.5t-6 -31.5q-23 -61 -72 -80q-16 6 -16 33q0 6 1 19.5t1 19.5q0 147 59 377q74 289 195 509q122 223 328 435q137 143 182 143q74 0 74 -225z" />
<glyph unicode="&#xad;" d="M1450 682l172 102l-256 19h-121l428 -512l-512 426v-119l17 -256l102 170l-170 -680l-172 680l102 -170l19 256v119l-512 -426l426 512h-119l-256 -19l170 -102l-682 172l682 170l-170 -102l256 -17h119l-426 512l512 -428v121l-19 256l-102 -172l172 684l170 -684 l-102 172l-17 -256v-121l512 428l-428 -512h121l256 17l-172 102l684 -170z" />
<glyph unicode="&#xb2;" horiz-adv-x="1024" d="M874 258q0 -65 -55 -123q-56 -57 -121 -57q-23 0 -42 8.5t-32.5 23t-21.5 34t-8 42.5q0 71 55 123q59 56 127 56q98 0 98 -107zM1012 1264q0 -112 -68 -213q-10 -17 -46 -61l-99 -116q-239 -275 -291 -704l-6 -50q-2 -16 -4 -20q-10 -40 -41 -51q-6 -2 -21 -2 q-7 0 -17 -0.5t-24 -1.5q-40 -2 -93.5 -9.5t-121.5 -21.5q-65 -14 -86 -14q-26 0 -26 35q0 104 104 350q140 318 285 451l113 98l114 96q150 144 150 236q0 33 -15 86q-12 57 -12 86q0 32 27 32q20 0 53 -14q125 -57 125 -192zM739 1280q0 -68 -57 -125q-56 -57 -123 -57 q-21 0 -40 8.5t-32.5 23t-21.5 34t-8 42.5q0 66 57 123q58 60 123 60q45 0 73.5 -32t28.5 -77z" />
<glyph unicode="&#xb3;" horiz-adv-x="920" d="M791 635q0 -203 -109 -342q-214 -277 -508 -277q-70 0 -70 45q0 60 29 152q27 90 43 111q33 63 86 63q12 0 32 -4l42 -9l42 -8q21 -4 34 -4q179 0 235 87q1 4 13 39l36 102q37 112 58 112q37 0 37 -67zM674 795q0 -85 -62 -150q-62 -63 -145 -63q-117 0 -117 120 q0 82 66 144q67 61 149 61q109 0 109 -112zM856 1122q0 -205 -37 -280q-29 -62 -55 -62q-32 0 -21 35q-8 21 -8 53q0 8 0.5 18t1.5 24t1.5 24t0.5 16q0 83 -37 142q-47 71 -122 71q-36 0 -99 -26q-60 -25 -92 -25q-49 0 -49 131q0 8 0.5 20.5t1.5 28.5q1 17 1.5 29t0.5 20 q0 2 -2 17l-8 45q24 67 139 67q165 0 272 -90q111 -96 111 -258z" />
<glyph unicode="&#xb9;" horiz-adv-x="750" d="M596 1018q0 -31 -14 -70q-11 -32 -17 -48l-6 -15q-31 -125 -31 -326q0 -38 3 -94t10 -131q12 -152 12 -225q0 -93 -154 -93h-43h-41q-12 0 -30.5 -2.5t-38.5 -5.5t-38.5 -5.5t-31.5 -2.5q-47 0 -47 49q0 68 82 324q39 126 66.5 205t48.5 118q16 33 46 80l74 111 q109 145 142 145q8 0 8 -14zM723 1337q0 -84 -72 -159q-71 -74 -159 -74q-64 0 -102 39t-38 102q0 83 72 160q73 76 162 76q59 0 98 -41t39 -103z" />
<glyph unicode="&#xba;" horiz-adv-x="1292" d="M1116 481q0 -164 -18 -233q-33 -133 -191 -199q-114 -49 -280 -49q-245 0 -394 158q-143 149 -143 399q0 202 131 432q122 222 287 354q161 127 233 127q33 0 33 -38q0 -30 -92 -142q-116 -136 -174 -239q-92 -178 -92 -349q0 -155 82 -225q73 -61 235 -61q90 0 174 37 q27 10 57 29l66 40q50 37 68 37t18 -78zM1096 1108q0 -92 -70 -162q-67 -67 -160 -67q-127 0 -127 131q0 92 68 157q71 68 162 68q127 0 127 -127z" />
<glyph unicode="&#xc0;" horiz-adv-x="1225" d="M1330 2549l172 102l-256 19h-121l428 -512l-512 426v-119l17 -256l102 170l-170 -680l-172 680l102 -170l19 256v119l-512 -426l426 512h-119l-256 -19l170 -102l-682 172l682 170l-170 -102l256 -17h119l-426 512l512 -428v121l-19 256l-102 -172l172 684l170 -684 l-102 172l-17 -256v-121l512 428l-428 -512h121l256 17l-172 102l684 -170zM1024 358q0 88 -25 189q-35 125 -88 158q-16 10 -24 10q-16 0 -29 -19q-8 -32 -13 -64t-9 -61q-27 -164 -146 -381q28 -39 88 -61q132 -53 185 -53q19 0 36 18q13 68 19 133.5t6 130.5zM1065 358 q0 -68 -6.5 -138t-20.5 -142q-36 -43 -75 -43q-13 0 -28 1.5t-32 6.5q-3 -29 -8 -59l-10 -60q-38 -43 -76 -43q-63 0 -199 56q-35 12 -65.5 37.5t-55.5 60.5q125 224 152 389q0 3 1 8t1 8q5 26 10.5 58.5t12.5 60.5q36 43 67 43q11 0 22 -4t23 -12q3 -3 7.5 -6t9.5 -7v5 q0 3 1 7t1 9q5 26 10.5 58.5t11.5 60.5q19 21 35 32t33 11q19 0 45 -17q34 -21 61 -66t45 -116q14 -56 20.5 -105t6.5 -94zM1038 1311q0 225 -75 225q-45 0 -183 -143q-207 -213 -327 -435q-60 -111 -108 -236t-87 -273q-57 -222 -57 -377q0 -6 -2 -19.5t-2 -19.5 q0 -27 16 -33q49 19 72 80q2 4 6 31.5t14 78.5q32 164 182 414q183 292 291 381l40 27l85 53q45 29 71.5 49.5t35.5 34.5q28 44 28 162zM1079 1311q0 -127 -35 -183q-11 -18 -41 -42t-79 -56q-5 -3 -8.5 -4.5t-6.5 -3.5q-3 -14 -7.5 -26t-10.5 -21q-11 -19 -41 -42.5 t-80 -55.5q-25 -16 -44.5 -27t-33.5 -21q-37 -48 -79.5 -109t-90.5 -138v2q-74 -122 -117 -221.5t-59 -180.5l-11 -58q-5 -26 -7 -40q-2 -5 -2 -8v-4q-16 -42 -44.5 -70t-68.5 -47q-9 5 -18 8.5t-15 9.5q-2 -14 -4 -24.5t-2 -18.5q-2 -5 -2 -7v-5q-15 -42 -43.5 -70 t-69.5 -47q-27 11 -42 30t-15 48v8q0 5 2 13q0 6 1 10.5t1 7.5q0 81 14.5 176.5t45.5 210.5q40 155 88.5 283t107.5 237q60 112 144 221.5t192 221.5q26 28 50 50.5t44 39.5l29 32q15 16 31 31q149 156 211 156q116 0 116 -266z" />
<glyph unicode="&#xc2;" horiz-adv-x="1225" d="M1635 2314q0 135 -129 135q-87 0 -158 -68q-67 -64 -67 -153q0 -63 37.5 -99t97.5 -36q85 0 152 67q67 70 67 154zM1641 3106q0 53 -37 142q-37 99 -75 119q-26 12 -47 12q-19 0 -62 -15q-283 -85 -438 -290q-45 -60 -81 -133t-63 -164q-53 -174 -53 -326q0 -155 62 -285 q55 -112 149 -188q109 -84 221 -84q86 0 86 63q0 20 -41 46q-13 9 -27 17.5t-30 16.5q-72 45 -111 160q-30 94 -30 199q0 206 121 393q124 196 317 252q129 39 135 39q4 11 4 26zM1676 2314q0 -99 -80 -182q-41 -42 -92 -64q-9 -23 -25 -45.5t-36 -44.5q-50 -50 -107 -70 q-24 -55 -119 -55q-14 0 -26 1t-25 3q25 -24 25 -53q0 -54 -32 -79.5t-95 -25.5q-131 0 -248 93q-51 42 -91 91t-69 111q-32 70 -48.5 145t-16.5 158q0 163 55 338q28 94 65.5 170.5t83.5 139.5q65 86 154 151v2q84 109 197 184.5t262 120.5h-2q23 10 42.5 13.5t33.5 3.5 q31 0 65 -17q51 -23 96 -141l-2 2q41 -99 41 -158q0 -8 -4 -26l-10 -41q-11 0 -49.5 -9t-95.5 -26q3 -14 4.5 -27t1.5 -24q0 -8 -5 -27t-10 -41q-11 0 -52 -9t-103 -28q-67 -19 -121 -55q-5 -6 -9.5 -13t-9.5 -14q-114 -179 -114 -370q0 -48 6 -92.5t20 -87.5l16 21 q8 10 19 19q22 20 43.5 35.5t44.5 24.5q11 26 27 49t39 45q43 40 88 60t98 20q170 0 170 -176zM1024 358q0 88 -25 189q-35 125 -88 158q-16 10 -24 10q-16 0 -29 -19q-8 -32 -13 -64t-9 -61q-27 -164 -146 -381q28 -39 88 -61q132 -53 185 -53q19 0 36 18q13 68 19 133.5 t6 130.5zM1065 358q0 -68 -6.5 -138t-20.5 -142q-36 -43 -75 -43q-13 0 -28 1.5t-32 6.5q-3 -29 -8 -59l-10 -60q-38 -43 -76 -43q-63 0 -199 56q-35 12 -65.5 37.5t-55.5 60.5q125 224 152 389q0 3 1 8t1 8q5 26 10.5 58.5t12.5 60.5q36 43 67 43q11 0 22 -4t23 -12 q3 -3 7.5 -6t9.5 -7v5q0 3 1 7t1 9q5 26 10.5 58.5t11.5 60.5q19 21 35 32t33 11q19 0 45 -17q34 -21 61 -66t45 -116q14 -56 20.5 -105t6.5 -94zM1038 1311q0 225 -75 225q-45 0 -183 -143q-207 -213 -327 -435q-60 -111 -108 -236t-87 -273q-57 -222 -57 -377 q0 -6 -2 -19.5t-2 -19.5q0 -27 16 -33q49 19 72 80q2 4 6 31.5t14 78.5q32 164 182 414q183 292 291 381l40 27l85 53q45 29 71.5 49.5t35.5 34.5q28 44 28 162zM1079 1311q0 -127 -35 -183q-11 -18 -41 -42t-79 -56q-5 -3 -8.5 -4.5t-6.5 -3.5q-3 -14 -7.5 -26t-10.5 -21 q-11 -19 -41 -42.5t-80 -55.5q-25 -16 -44.5 -27t-33.5 -21q-37 -48 -79.5 -109t-90.5 -138v2q-74 -122 -117 -221.5t-59 -180.5l-11 -58q-5 -26 -7 -40q-2 -5 -2 -8v-4q-16 -42 -44.5 -70t-68.5 -47q-9 5 -18 8.5t-15 9.5q-2 -14 -4 -24.5t-2 -18.5q-2 -5 -2 -7v-5 q-15 -42 -43.5 -70t-69.5 -47q-27 11 -42 30t-15 48v8q0 5 2 13q0 6 1 10.5t1 7.5q0 81 14.5 176.5t45.5 210.5q40 155 88.5 283t107.5 237q60 112 144 221.5t192 221.5q26 28 50 50.5t44 39.5l29 32q15 16 31 31q149 156 211 156q116 0 116 -266z" />
<glyph unicode="&#xc3;" horiz-adv-x="1225" d="M1555 2549l172 102l-256 19h-121l428 -512l-512 426v-119l17 -256l102 170l-170 -680l-172 680l102 -170l19 256v119l-512 -426l426 512h-119l-256 -19l170 -102l-682 172l682 170l-170 -102l256 -17h119l-426 512l512 -428v121l-19 256l-102 -172l172 684l170 -684 l-102 172l-17 -256v-121l512 428l-428 -512h121l256 17l-172 102l684 -170zM1024 358q0 88 -25 189q-35 125 -88 158q-16 10 -24 10q-16 0 -29 -19q-8 -32 -13 -64t-9 -61q-27 -164 -146 -381q28 -39 88 -61q132 -53 185 -53q19 0 36 18q13 68 19 133.5t6 130.5zM1065 358 q0 -68 -6.5 -138t-20.5 -142q-36 -43 -75 -43q-13 0 -28 1.5t-32 6.5q-3 -29 -8 -59l-10 -60q-38 -43 -76 -43q-63 0 -199 56q-35 12 -65.5 37.5t-55.5 60.5q125 224 152 389q0 3 1 8t1 8q5 26 10.5 58.5t12.5 60.5q36 43 67 43q11 0 22 -4t23 -12q3 -3 7.5 -6t9.5 -7v5 q0 3 1 7t1 9q5 26 10.5 58.5t11.5 60.5q19 21 35 32t33 11q19 0 45 -17q34 -21 61 -66t45 -116q14 -56 20.5 -105t6.5 -94zM1038 1311q0 225 -75 225q-45 0 -183 -143q-207 -213 -327 -435q-60 -111 -108 -236t-87 -273q-57 -222 -57 -377q0 -6 -2 -19.5t-2 -19.5 q0 -27 16 -33q49 19 72 80q2 4 6 31.5t14 78.5q32 164 182 414q183 292 291 381l40 27l85 53q45 29 71.5 49.5t35.5 34.5q28 44 28 162zM1079 1311q0 -127 -35 -183q-11 -18 -41 -42t-79 -56q-5 -3 -8.5 -4.5t-6.5 -3.5q-3 -14 -7.5 -26t-10.5 -21q-11 -19 -41 -42.5 t-80 -55.5q-25 -16 -44.5 -27t-33.5 -21q-37 -48 -79.5 -109t-90.5 -138v2q-74 -122 -117 -221.5t-59 -180.5l-11 -58q-5 -26 -7 -40q-2 -5 -2 -8v-4q-16 -42 -44.5 -70t-68.5 -47q-9 5 -18 8.5t-15 9.5q-2 -14 -4 -24.5t-2 -18.5q-2 -5 -2 -7v-5q-15 -42 -43.5 -70 t-69.5 -47q-27 11 -42 30t-15 48v8q0 5 2 13q0 6 1 10.5t1 7.5q0 81 14.5 176.5t45.5 210.5q40 155 88.5 283t107.5 237q60 112 144 221.5t192 221.5q26 28 50 50.5t44 39.5l29 32q15 16 31 31q149 156 211 156q116 0 116 -266z" />
<glyph unicode="&#xc8;" horiz-adv-x="1186" d="M1296 2483l172 102l-256 19h-121l428 -512l-512 426v-119l17 -256l102 170l-170 -680l-172 680l102 -170l19 256v119l-512 -426l426 512h-119l-256 -19l170 -102l-682 172l682 170l-170 -102l256 -17h119l-426 512l512 -428v121l-19 256l-102 -172l172 684l170 -684 l-102 172l-17 -256v-121l512 428l-428 -512h121l256 17l-172 102l684 -170zM594 227l-25 -31q-13 -17 -28 -32q8 3 15.5 5.5t16.5 4.5q4 14 9.5 27.5t11.5 25.5zM862 199q0 94 -90 94q-34 0 -64 -13.5t-52 -36.5t-35 -53t-13 -63q0 -90 92 -90q65 0 114 47q48 46 48 115z M1018 834q0 27 -9.5 51t-26.5 41t-40.5 27t-50.5 10q-82 0 -152 -70q-69 -68 -69 -150q0 -27 9.5 -51.5t27 -42.5t41.5 -28.5t53 -10.5q82 0 149 70q68 71 68 154zM942 1442q0 16 -16 16q-46 0 -213 -166q-72 -72 -120 -126t-75 -89q-170 -232 -246 -436q-84 -233 -84 -491 v-66q0 -16 0.5 -30t1.5 -27q15 -27 50 -27q62 0 186 109q51 45 89 87.5t65 82.5q-37 117 -37 303q0 263 180 538q2 7 117 170zM977 1419l-21 -31l-19 -26l-25 -36l-40 -58q-54 -76 -82.5 -120t-31.5 -50q-48 -71 -82 -141.5t-55 -139.5q6 5 12 7t12 5q11 25 27 48t39 45 q82 82 180 82q37 0 67.5 -13t53 -36t35 -54t12.5 -67q0 -98 -80 -183q-23 -23 -46 -39.5t-48 -25.5q-10 -23 -25 -45.5t-35 -42.5q-78 -82 -178 -82q-15 0 -29 1.5t-26 6.5q6 -42 14 -79.5t19 -72.5q-2 -3 -3.5 -5t-3.5 -5q29 32 68.5 52t85.5 20q131 0 131 -135 q0 -37 -12 -70t-33.5 -59t-51 -44.5t-63.5 -25.5q-8 -34 -26 -63t-44 -50t-58.5 -33t-67.5 -12q-133 0 -133 131q0 23 4.5 45.5t15.5 42.5q-3 -2 -5 -4t-5 -4q-26 -34 -58 -65l-67 -64q-69 -59 -122 -89t-91 -30q-28 0 -50.5 13.5t-39.5 44.5q-2 14 -2 31v36v66 q0 265 86 506q38 105 101 215t151 231q26 35 75 90t123 129l30 29l28 27l44 45l52 53q93 90 152 134t90 44q26 0 41.5 -15.5t15.5 -41.5z" />
<glyph unicode="&#xca;" horiz-adv-x="1186" d="M1600 2248q0 135 -129 135q-87 0 -158 -68q-67 -64 -67 -153q0 -63 37.5 -99t97.5 -36q85 0 152 67q67 70 67 154zM1606 3040q0 53 -37 142q-37 99 -75 119q-26 12 -47 12q-19 0 -62 -15q-283 -85 -438 -290q-45 -60 -81 -133t-63 -164q-53 -174 -53 -326q0 -155 62 -285 q55 -112 149 -188q109 -84 221 -84q86 0 86 63q0 20 -41 46q-13 9 -27 17.5t-30 16.5q-72 45 -111 160q-30 94 -30 199q0 206 121 393q124 196 317 252q129 39 135 39q4 11 4 26zM1641 2248q0 -99 -80 -182q-41 -42 -92 -64q-9 -23 -25 -45.5t-36 -44.5q-50 -50 -107 -70 q-24 -55 -119 -55q-14 0 -26 1t-25 3q25 -24 25 -53q0 -54 -32 -79.5t-95 -25.5q-131 0 -248 93q-51 42 -91 91t-69 111q-32 70 -48.5 145t-16.5 158q0 163 55 338q28 94 65.5 170.5t83.5 139.5q65 86 154 151v2q84 109 197 184.5t262 120.5h-2q23 10 42.5 13.5t33.5 3.5 q31 0 65 -17q51 -23 96 -141l-2 2q41 -99 41 -158q0 -8 -5 -26l-9 -41q-11 0 -49.5 -9t-95.5 -26q3 -14 4.5 -27t1.5 -24q0 -8 -5 -27t-10 -41q-11 0 -52 -9t-103 -28q-67 -19 -121 -55q-5 -6 -9.5 -13t-9.5 -14q-114 -179 -114 -370q0 -48 6 -92.5t20 -87.5l16 21 q8 10 19 19q22 20 43.5 35.5t44.5 24.5q11 26 27 49t39 45q43 40 88 60t98 20q170 0 170 -176zM594 227l-25 -31q-13 -17 -28 -32q8 3 15.5 5.5t16.5 4.5q4 14 9.5 27.5t11.5 25.5zM862 199q0 94 -90 94q-34 0 -64 -13.5t-52 -36.5t-35 -53t-13 -63q0 -90 92 -90 q65 0 114 47q48 46 48 115zM1018 834q0 27 -9.5 51t-26.5 41t-40.5 27t-50.5 10q-82 0 -152 -70q-69 -68 -69 -150q0 -27 9.5 -51.5t27 -42.5t41.5 -28.5t53 -10.5q82 0 149 70q68 71 68 154zM942 1442q0 16 -16 16q-46 0 -213 -166q-72 -72 -120 -126t-75 -89 q-170 -232 -246 -436q-84 -233 -84 -491v-66q0 -16 0.5 -30t1.5 -27q15 -27 50 -27q62 0 186 109q51 45 89 87.5t65 82.5q-37 117 -37 303q0 263 180 538q2 7 117 170zM977 1419l-21 -31l-19 -26l-25 -36l-40 -58q-54 -76 -82.5 -120t-31.5 -50q-48 -71 -82 -141.5 t-55 -139.5q6 5 12 7t12 5q11 25 27 48t39 45q82 82 180 82q37 0 67.5 -13t53 -36t35 -54t12.5 -67q0 -98 -80 -183q-23 -23 -46 -39.5t-48 -25.5q-10 -23 -25 -45.5t-35 -42.5q-78 -82 -178 -82q-15 0 -29 1.5t-26 6.5q6 -42 14 -79.5t19 -72.5q-2 -3 -3.5 -5t-3.5 -5 q29 32 68.5 52t85.5 20q131 0 131 -135q0 -37 -12 -70t-33.5 -59t-51 -44.5t-63.5 -25.5q-8 -34 -26 -63t-44 -50t-58.5 -33t-67.5 -12q-133 0 -133 131q0 23 4.5 45.5t15.5 42.5q-3 -2 -5 -4t-5 -4q-26 -34 -58 -65l-67 -64q-69 -59 -122 -89t-91 -30q-28 0 -50.5 13.5 t-39.5 44.5q-2 14 -2 31v36v66q0 265 86 506q38 105 101 215t151 231q26 35 75 90t123 129l30 29l28 27l44 45l52 53q93 90 152 134t90 44q26 0 41.5 -15.5t15.5 -41.5z" />
<glyph unicode="&#xcc;" horiz-adv-x="1686" d="M1397 2512l172 102l-256 19h-121l428 -512l-512 426v-119l17 -256l102 170l-170 -680l-172 680l102 -170l19 256v119l-512 -426l426 512h-119l-256 -19l170 -102l-682 172l682 170l-170 -102l256 -17h119l-426 512l512 -428v121l-19 256l-102 -172l172 684l170 -684 l-102 172l-17 -256v-121l512 428l-428 -512h121l256 17l-172 102l684 -170zM1081 825q0 127 -129 127q-92 0 -159 -67q-68 -66 -68 -156q0 -29 9.5 -53t26.5 -42t41 -28t54 -10q89 0 156 70q69 69 69 159zM1122 825q0 -52 -20 -99t-62 -89q-21 -23 -44 -39t-48 -27 q-11 -23 -26 -45.5t-35 -42.5q-79 -82 -185 -82q-39 0 -71 13.5t-54.5 37t-34.5 55t-12 68.5q0 54 20 101t60 84q41 40 90 61q19 52 64 92q79 80 188 80q17 0 31.5 -1.5t28.5 -4.5q-63 31 -131 31q-116 0 -228 -74q0 -2 -4 -6l-21 -47l-24 -52l-24 -51q-13 -26 -25 -47 l-37 4q-18 2 -35 9q-18 -41 -41 -86l-41 -80h-4q5 -8 8.5 -14.5t8.5 -14.5q28 -56 47.5 -90t30.5 -43q66 -66 200 -66q68 0 129 17t115 49l6 10l6 10v-2q14 23 26 46l23 45q23 37 42.5 59.5t31.5 30.5h-2q18 12 51 12h4l14 25l13 26q9 16 18.5 29t18.5 24l-12 21 q-6 10 -11 22l-30 90q-8 14 -17 27t-20 27q24 -41 24 -103zM1430 569q0 59 -52 117q-51 64 -104 64q-22 0 -29 -7q-16 -10 -59 -77q-22 -45 -49 -88q-37 -58 -74 -101q-149 -158 -371 -158q-149 0 -227 78q-31 28 -88 144q-41 77 -96 77q-43 -46 -43 -120q0 -151 137 -297 q154 -166 368 -166q186 0 428 174q259 186 259 360zM1475 1024q0 194 -123 334q-128 141 -322 141q-148 0 -287 -65q-127 -60 -270 -203q-166 -163 -166 -275q0 -55 86 -112q83 -59 137 -60l22 43q11 21 21 43l41 86q49 79 129 146q139 110 291 110q87 0 170 -45 q89 -50 123 -127l31 -92q25 -61 61 -61q56 0 56 137zM1470 569q0 -178 -229 -360q-35 -47 -84.5 -92.5t-114.5 -93.5q-250 -183 -452 -183q-230 0 -400 178h3q-76 79 -113 160.5t-37 165.5q0 93 66 162q48 0 88 -25v17q0 38 11 74t36 67q-17 6 -27 16q-104 70 -104 148 q0 131 178 303l40 38l40 36q15 20 33.5 40t39.5 40q152 150 283 210q74 35 148.5 52.5t154.5 17.5q213 0 352 -156q66 -74 100 -164.5t34 -195.5q0 -178 -97 -178q-15 0 -30 6t-27 18q0 -62 -12 -102q30 -18 61 -55h-2q61 -70 61 -144z" />
<glyph unicode="&#xce;" horiz-adv-x="1686" d="M1702 2277q0 135 -129 135q-87 0 -158 -68q-67 -64 -67 -153q0 -63 37.5 -99t97.5 -36q85 0 152 67q67 70 67 154zM1708 3069q0 53 -37 142q-37 99 -75 119q-26 12 -47 12q-19 0 -62 -15q-283 -85 -438 -290q-45 -60 -81 -133t-63 -164q-53 -174 -53 -326q0 -155 62 -285 q55 -112 149 -188q109 -84 221 -84q86 0 86 63q0 20 -41 46q-13 9 -27 17.5t-30 16.5q-72 45 -111 160q-30 94 -30 199q0 206 121 393q124 196 317 252q129 39 135 39q4 11 4 26zM1743 2277q0 -99 -80 -182q-41 -42 -92 -64q-9 -23 -25 -45.5t-36 -44.5q-50 -50 -107 -70 q-24 -55 -119 -55q-14 0 -26 1t-25 3q25 -24 25 -53q0 -54 -32 -79.5t-95 -25.5q-131 0 -248 93q-51 42 -91 91t-69 111q-32 70 -48.5 145t-16.5 158q0 163 55 338q28 94 65.5 170.5t83.5 139.5q65 86 154 151v2q84 109 197 184.5t262 120.5h-2q23 10 42.5 13.5t33.5 3.5 q31 0 65 -17q51 -23 96 -141l-2 2q41 -99 41 -158q0 -8 -5 -27l-9 -40q-11 0 -49.5 -9t-95.5 -26q3 -14 4.5 -27t1.5 -24q0 -8 -5 -27t-10 -41q-11 0 -52 -9t-103 -28q-67 -19 -121 -55q-5 -6 -9.5 -13t-9.5 -14q-114 -179 -114 -370q0 -48 6 -92.5t20 -87.5l16 21 q8 10 19 19q22 20 43.5 35.5t44.5 24.5q11 26 27 49t39 45q43 40 88 60t98 20q170 0 170 -176zM1081 825q0 127 -129 127q-92 0 -159 -67q-68 -66 -68 -156q0 -29 9.5 -53t26.5 -42t41 -28t54 -10q89 0 156 70q69 69 69 159zM1122 825q0 -52 -20 -99t-62 -89 q-21 -23 -44 -39t-48 -27q-11 -23 -26 -45.5t-35 -42.5q-79 -82 -185 -82q-39 0 -71 13.5t-54.5 37t-34.5 55t-12 68.5q0 54 20 101t60 84q41 40 90 61q19 52 64 92q79 80 188 80q17 0 31.5 -1.5t28.5 -4.5q-63 31 -131 31q-116 0 -228 -74q0 -2 -4 -6l-21 -47l-24 -52 l-24 -51q-13 -26 -25 -47l-37 4q-18 2 -35 9q-18 -41 -41 -86l-41 -80h-4q5 -8 8.5 -14.5t8.5 -14.5q28 -56 47.5 -90t30.5 -43q66 -66 200 -66q68 0 129 17t115 49l6 10l6 10v-2q14 23 26 46l23 45q23 37 42.5 59.5t31.5 30.5h-2q18 12 51 12h4l14 25l13 26q9 16 18.5 29 t18.5 24l-12 21q-6 10 -11 22l-30 90q-8 14 -17 27t-20 27q24 -41 24 -103zM1430 569q0 59 -52 117q-51 64 -104 64q-22 0 -29 -7q-16 -10 -59 -77q-22 -45 -49 -88q-37 -58 -74 -101q-149 -158 -371 -158q-149 0 -227 78q-31 28 -88 144q-41 77 -96 77q-43 -46 -43 -120 q0 -151 137 -297q154 -166 368 -166q186 0 428 174q259 186 259 360zM1475 1024q0 194 -123 334q-128 141 -322 141q-148 0 -287 -65q-127 -60 -270 -203q-166 -163 -166 -275q0 -55 86 -112q83 -59 137 -60l22 43q11 21 21 43l41 86q49 79 129 146q139 110 291 110 q87 0 170 -45q89 -50 123 -127l31 -92q25 -61 61 -61q56 0 56 137zM1470 569q0 -178 -229 -360q-35 -47 -84.5 -92.5t-114.5 -93.5q-250 -183 -452 -183q-230 0 -400 178h3q-76 79 -113 160.5t-37 165.5q0 93 66 162q48 0 88 -25v17q0 38 11 74t36 67q-17 6 -27 16 q-104 70 -104 148q0 131 178 303l40 38l40 36q15 20 33.5 40t39.5 40q152 150 283 210q74 35 148.5 52.5t154.5 17.5q213 0 352 -156q66 -74 100 -164.5t34 -195.5q0 -178 -97 -178q-15 0 -30 6t-27 18q0 -62 -12 -102q30 -18 61 -55h-2q61 -70 61 -144z" />
<glyph unicode="&#xd1;" horiz-adv-x="1274" d="M1510 2504l172 102l-256 19h-121l428 -512l-512 426v-119l17 -256l102 170l-170 -680l-172 680l102 -170l19 256v119l-512 -426l426 512h-119l-256 -19l170 -102l-682 172l682 170l-170 -102l256 -17h119l-426 512l512 -428v121l-19 256l-102 -172l172 684l170 -684 l-102 172l-17 -256v-121l512 428l-428 -512h121l256 17l-172 102l684 -170zM1108 297q0 72 -35 209q-43 160 -92 160q-18 0 -29 -23l-8 -63l-8 -60q-40 -166 -178 -370q33 -43 119 -84q93 -41 139 -41q42 0 65 36q27 45 27 236zM1174 1384q0 107 -256 107q-390 0 -625 -436 q-195 -365 -195 -791q0 -278 62 -278q59 0 209 41q138 39 198 77q-49 239 -49 474q0 339 113 514q67 101 192 178q127 78 246 78q105 0 105 36zM1149 297q0 -100 -8 -164t-25 -92q-34 -57 -100 -57h-14q-7 0 -15 2q-3 -34 -9.5 -58.5t-14.5 -40.5q-35 -57 -101 -57 q-26 0 -65 11.5t-90 33.5q-48 23 -86.5 53.5t-67.5 65.5l29 44l28 44q-32 -22 -73.5 -40t-92.5 -34l8 -37q4 -19 9 -39q-44 -31 -102 -53.5t-134 -44.5q-154 -43 -219 -43q-102 0 -102 320q0 219 49.5 419.5t148.5 389.5q114 211 265 325q112 144 248.5 215.5t302.5 71.5 q296 0 296 -148q0 -77 -145 -77q-9 0 -18 -1t-17 -1q27 -33 27 -74q0 -78 -146 -78q-55 0 -110.5 -18.5t-114.5 -53.5l-14 -9l-14 -9q-53 -84 -78 -203.5t-25 -281.5q0 -112 12.5 -233t40.5 -257q51 85 83.5 156t47.5 133l-2 -2q3 20 5 35l4 28q2 14 4 30t4 30 q12 26 29 40.5t40 14.5q33 0 66 -39q0 5 1 8t3 8l-2 -2q3 20 4.5 35t3.5 29t4 29.5t4 29.5q13 26 30 41t40 15q78 0 131 -191q37 -142 37 -219z" />
<glyph unicode="&#xd2;" horiz-adv-x="1427" d="M1176 2483l172 102l-256 19h-121l428 -512l-512 426v-119l17 -256l102 170l-170 -680l-172 680l102 -170l19 256v119l-512 -426l426 512h-119l-256 -19l170 -102l-682 172l682 170l-170 -102l256 -17h119l-426 512l512 -428v121l-19 256l-102 -172l172 684l170 -684 l-102 172l-17 -256v-121l512 428l-428 -512h121l256 17l-172 102l684 -170zM1163 1108q0 127 -127 127q-91 0 -162 -68q-67 -64 -67 -157q0 -131 129 -131q93 0 160 67q67 70 67 162zM1204 1108q0 -109 -80 -190q-41 -42 -92 -64q-11 -25 -26 -46.5t-35 -43.5 q-80 -80 -189 -80q-170 0 -170 172q0 112 80 186q22 20 44 35.5t46 24.5q20 53 64 94q86 80 190 80q168 0 168 -168zM1184 481q0 78 -19 78q-12 0 -67 -37l-66 -40q-31 -19 -57 -29q-84 -37 -174 -37q-160 0 -236 61q-80 71 -80 225q0 172 93 349q26 49 70 108t104 131 q92 112 92 142q0 38 -35 38q-74 0 -231 -127q-167 -130 -289 -354q-129 -231 -129 -432q0 -250 143 -399q146 -158 391 -158q163 0 283 49q157 65 188 199q19 67 19 233zM1225 481q0 -83 -5 -143t-16 -100q-18 -72 -61.5 -123t-112.5 -88q-26 -56 -73.5 -97.5t-116.5 -72.5 q-62 -26 -136.5 -39t-162.5 -13q-267 0 -422 170h2q-156 162 -156 428q0 106 33.5 219t101.5 234l-2 -2q60 113 131 201.5t158 156.5q37 48 78.5 88.5t87.5 75.5h-2q84 68 148.5 101.5t109.5 33.5q37 0 56.5 -18.5t19.5 -60.5q0 -44 -103 -168q-57 -70 -99.5 -127 t-68.5 -105q-88 -164 -88 -330q0 -69 16 -116t48 -76q68 -53 211 -53q83 0 157 32q22 10 51 27l66 41q64 43 90 43q60 0 60 -119z" />
<glyph unicode="&#xd4;" horiz-adv-x="1427" d="M1481 2248q0 135 -129 135q-87 0 -158 -68q-67 -64 -67 -153q0 -63 37.5 -99t97.5 -36q85 0 152 67q67 70 67 154zM1487 3040q0 53 -37 142q-37 99 -75 119q-26 12 -47 12q-19 0 -62 -15q-283 -85 -438 -290q-45 -60 -81 -133t-63 -164q-53 -174 -53 -326q0 -155 62 -285 q55 -112 149 -188q109 -84 221 -84q86 0 86 63q0 20 -41 46q-13 9 -27 17.5t-30 16.5q-72 45 -111 160q-30 94 -30 199q0 206 121 393q124 196 317 252q129 39 135 39q4 11 4 26zM1522 2248q0 -99 -80 -182q-41 -42 -92 -64q-9 -23 -25 -45.5t-36 -44.5q-50 -50 -107 -70 q-24 -55 -119 -55q-14 0 -26 1t-25 3q25 -24 25 -53q0 -54 -32 -79.5t-95 -25.5q-131 0 -248 93q-51 42 -91 91t-69 111q-32 70 -48.5 145t-16.5 158q0 163 55 338q28 94 65.5 170.5t83.5 139.5q65 86 154 151v2q84 109 197 184.5t262 120.5h-2q23 10 42.5 13.5t33.5 3.5 q31 0 65 -17q51 -23 96 -141l-2 2q41 -99 41 -158q0 -8 -4 -26l-10 -41q-11 0 -49.5 -9t-95.5 -26q3 -14 4.5 -27t1.5 -24q0 -8 -5 -27t-10 -41q-11 0 -52 -9t-103 -28q-67 -19 -121 -55q-5 -6 -9.5 -13t-9.5 -14q-114 -179 -114 -370q0 -48 6 -92.5t20 -87.5l16 21 q8 10 19 19q22 20 43.5 35.5t44.5 24.5q11 26 27 49t39 45q43 40 88 60t98 20q170 0 170 -176zM1163 1108q0 127 -127 127q-91 0 -162 -68q-67 -64 -67 -157q0 -131 129 -131q93 0 160 67q67 70 67 162zM1204 1108q0 -109 -80 -190q-41 -42 -92 -64q-11 -25 -26 -46.5 t-35 -43.5q-80 -80 -189 -80q-170 0 -170 172q0 112 80 186q22 20 44 35.5t46 24.5q20 53 64 94q86 80 190 80q168 0 168 -168zM1184 481q0 78 -19 78q-12 0 -67 -37l-66 -40q-31 -19 -57 -29q-84 -37 -174 -37q-160 0 -236 61q-80 71 -80 225q0 172 93 349q26 49 70 108 t104 131q92 112 92 142q0 38 -35 38q-74 0 -231 -127q-167 -130 -289 -354q-129 -231 -129 -432q0 -250 143 -399q146 -158 391 -158q163 0 283 49q157 65 188 199q19 67 19 233zM1225 481q0 -83 -5 -143t-16 -100q-18 -72 -61.5 -123t-112.5 -88q-26 -56 -73.5 -97.5 t-116.5 -72.5q-62 -26 -136.5 -39t-162.5 -13q-267 0 -422 170h2q-156 162 -156 428q0 106 33.5 219t101.5 234l-2 -2q60 113 131 201.5t158 156.5q37 48 78.5 88.5t87.5 75.5h-2q84 68 148.5 101.5t109.5 33.5q37 0 56.5 -18.5t19.5 -60.5q0 -44 -103 -168 q-57 -70 -99.5 -127t-68.5 -105q-88 -164 -88 -330q0 -69 16 -116t48 -76q68 -53 211 -53q83 0 157 32q22 10 51 27l66 41q64 43 90 43q60 0 60 -119z" />
<glyph unicode="&#xd5;" horiz-adv-x="1427" d="M1401 2483l172 102l-256 19h-121l428 -512l-512 426v-119l17 -256l102 170l-170 -680l-172 680l102 -170l19 256v119l-512 -426l426 512h-119l-256 -19l170 -102l-682 172l682 170l-170 -102l256 -17h119l-426 512l512 -428v121l-19 256l-102 -172l172 684l170 -684 l-102 172l-17 -256v-121l512 428l-428 -512h121l256 17l-172 102l684 -170zM1163 1108q0 127 -127 127q-91 0 -162 -68q-67 -64 -67 -157q0 -131 129 -131q93 0 160 67q67 70 67 162zM1204 1108q0 -109 -80 -190q-41 -42 -92 -64q-11 -25 -26 -46.5t-35 -43.5 q-80 -80 -189 -80q-170 0 -170 172q0 112 80 186q22 20 44 35.5t46 24.5q20 53 64 94q86 80 190 80q168 0 168 -168zM1184 481q0 78 -19 78q-12 0 -67 -37l-66 -40q-31 -19 -57 -29q-84 -37 -174 -37q-160 0 -236 61q-80 71 -80 225q0 172 93 349q26 49 70 108t104 131 q92 112 92 142q0 38 -35 38q-74 0 -231 -127q-167 -130 -289 -354q-129 -231 -129 -432q0 -250 143 -399q146 -158 391 -158q163 0 283 49q157 65 188 199q19 67 19 233zM1225 481q0 -83 -5 -143t-16 -100q-18 -72 -61.5 -123t-112.5 -88q-26 -56 -73.5 -97.5t-116.5 -72.5 q-62 -26 -136.5 -39t-162.5 -13q-267 0 -422 170h2q-156 162 -156 428q0 106 33.5 219t101.5 234l-2 -2q60 113 131 201.5t158 156.5q37 48 78.5 88.5t87.5 75.5h-2q84 68 148.5 101.5t109.5 33.5q37 0 56.5 -18.5t19.5 -60.5q0 -44 -103 -168q-57 -70 -99.5 -127 t-68.5 -105q-88 -164 -88 -330q0 -69 16 -116t48 -76q68 -53 211 -53q83 0 157 32q22 10 51 27l66 41q64 43 90 43q60 0 60 -119z" />
<glyph unicode="&#xd9;" horiz-adv-x="1171" d="M1121 2494l172 102l-256 19h-121l428 -512l-512 426v-119l17 -256l102 170l-170 -680l-172 680l102 -170l19 256v119l-512 -426l426 512h-119l-256 -19l170 -102l-682 172l682 170l-170 -102l256 -17h119l-426 512l512 -428v121l-19 256l-102 -172l172 684l170 -684 l-102 172l-17 -256v-121l512 428l-428 -512h121l256 17l-172 102l684 -170zM918 1081q0 42 -5.5 92t-15.5 111q-28 155 -61 178q-31 19 -82 19q-92 0 -195 -51q-121 -60 -121 -138q0 -17 29 -98q123 -354 123 -621q0 -67 -6 -112q-16 -112 -92 -207q-86 -104 -189 -104 q-63 0 -139 73q-76 76 -96 76q-22 0 -41 -25q-19 -23 -19 -47q0 -23 19 -55q40 -72 115 -123q74 -49 155 -49q271 0 485 358q136 223 136 723zM958 1081q0 -509 -141 -743q-57 -96 -116.5 -166t-125.5 -117q-194 -250 -432 -250q-45 0 -90 14.5t-85.5 40.5t-74.5 61t-57 77 q-12 22 -17 40.5t-5 35.5q0 18 9.5 38t24 36.5t32 27t34.5 10.5q29 0 82 -47l-6 13q-13 21 -18 39.5t-5 35.5q0 18 9.5 38t24 36.5t32.5 27.5t35 11q20 0 50 -21.5t75 -66.5q32 -31 58.5 -46.5t51.5 -15.5q26 0 47 9q14 28 24 55.5t15 58.5q6 46 6 107q0 257 -121 606 q-30 85 -30 113q0 106 143 174l12 6q17 87 142 147q107 56 213 56q60 0 102 -25q52 -33 82 -207q11 -62 15.5 -113t4.5 -96z" />
<glyph unicode="&#xdb;" horiz-adv-x="1171" d="M1426 2259q0 135 -129 135q-87 0 -158 -68q-67 -64 -67 -153q0 -63 37.5 -99t97.5 -36q85 0 152 67q67 70 67 154zM1432 3051q0 53 -37 142q-37 99 -75 119q-26 12 -47 12q-19 0 -62 -15q-283 -85 -438 -290q-45 -60 -81 -133t-63 -164q-53 -174 -53 -326q0 -155 62 -285 q55 -112 149 -188q109 -84 221 -84q86 0 86 63q0 20 -41 46q-13 9 -27 17.5t-30 16.5q-72 45 -111 160q-30 94 -30 199q0 206 121 393q124 196 317 252q129 39 135 39q4 11 4 26zM1467 2259q0 -99 -80 -182q-41 -42 -92 -64q-9 -23 -25 -45.5t-36 -44.5q-50 -50 -107 -70 q-24 -55 -119 -55q-14 0 -26 1t-25 3q25 -24 25 -53q0 -54 -32 -79.5t-95 -25.5q-131 0 -248 93q-51 42 -91 91t-69 111q-32 70 -48.5 145t-16.5 158q0 163 55 338q28 94 65.5 170.5t83.5 139.5q65 86 154 151v2q84 109 197 184.5t262 120.5h-2q23 10 42.5 13.5t33.5 3.5 q31 0 65 -17q51 -23 96 -141l-2 2q41 -99 41 -158q0 -8 -5 -27l-9 -40q-11 0 -49.5 -9t-95.5 -26q3 -14 4.5 -27t1.5 -24q0 -8 -5 -27t-10 -41q-11 0 -52 -9t-103 -28q-67 -19 -121 -55q-5 -6 -9.5 -13t-9.5 -14q-114 -179 -114 -370q0 -48 6 -92.5t20 -87.5l16 21 q8 10 19 19q22 20 43.5 35.5t44.5 24.5q11 26 27 49t39 45q43 40 88 60t98 20q170 0 170 -176zM918 1081q0 42 -5.5 92t-15.5 111q-28 155 -61 178q-31 19 -82 19q-92 0 -195 -51q-121 -60 -121 -138q0 -17 29 -98q123 -354 123 -621q0 -67 -6 -112q-16 -112 -92 -207 q-86 -104 -189 -104q-63 0 -139 73q-76 76 -96 76q-22 0 -41 -25q-19 -23 -19 -47q0 -23 19 -55q40 -72 115 -123q74 -49 155 -49q271 0 485 358q136 223 136 723zM958 1081q0 -509 -141 -743q-57 -96 -116.5 -166t-125.5 -117q-194 -250 -432 -250q-45 0 -90 14.5 t-85.5 40.5t-74.5 61t-57 77q-12 22 -17 40.5t-5 35.5q0 18 9.5 38t24 36.5t32 27t34.5 10.5q29 0 82 -47l-6 13q-13 21 -18 39.5t-5 35.5q0 18 9.5 38t24 36.5t32.5 27.5t35 11q20 0 50 -21.5t75 -66.5q32 -31 58.5 -46.5t51.5 -15.5q26 0 47 9q14 28 24 55.5t15 58.5 q6 46 6 107q0 257 -121 606q-30 85 -30 113q0 106 143 174l12 6q17 87 142 147q107 56 213 56q60 0 102 -25q52 -33 82 -207q11 -62 15.5 -113t4.5 -96z" />
<glyph unicode="&#xe0;" horiz-adv-x="1090" d="M1262 2508l172 102l-256 19h-121l428 -512l-512 426v-119l17 -256l102 170l-170 -680l-172 680l102 -170l19 256v119l-512 -426l426 512h-119l-256 -19l170 -102l-682 172l682 170l-170 -102l256 -17h119l-426 512l512 -428v121l-19 256l-102 -172l172 684l170 -684 l-102 172l-17 -256v-121l512 428l-428 -512h121l256 17l-172 102l684 -170zM956 358q0 -129 -24 -264q-17 -18 -37 -18q-52 0 -184 53q-59 22 -90 61q118 211 147 381q3 28 9 59t14 66q13 19 26 19q11 0 27 -10q51 -33 86 -158q26 -99 26 -189zM969 1311q0 -122 -27 -162 q-8 -14 -34.5 -34.5t-71.5 -49.5q-111 -66 -125 -80q-110 -89 -291 -381q-152 -253 -182 -414q-11 -51 -15 -78.5t-6 -31.5q-23 -61 -72 -80q-16 6 -16 33q0 6 1 19.5t1 19.5q0 147 59 377q74 289 195 509q122 223 328 435q137 143 182 143q74 0 74 -225z" />
<glyph unicode="&#xe2;" horiz-adv-x="1090" d="M1567 2273q0 135 -129 135q-87 0 -158 -68q-67 -64 -67 -153q0 -63 37.5 -99t97.5 -36q85 0 152 67q67 70 67 154zM1573 3065q0 53 -37 142q-37 99 -75 119q-26 12 -47 12q-19 0 -62 -15q-283 -85 -438 -290q-45 -60 -81 -133t-63 -164q-53 -174 -53 -326q0 -155 62 -285 q55 -112 149 -188q109 -84 221 -84q86 0 86 63q0 20 -41 46q-13 9 -27 17.5t-30 16.5q-72 45 -111 160q-30 94 -30 199q0 206 121 393q124 196 317 252q129 39 135 39q4 11 4 26zM1608 2273q0 -99 -80 -182q-41 -42 -92 -64q-9 -23 -25 -45.5t-36 -44.5q-50 -50 -107 -70 q-24 -55 -119 -55q-14 0 -26 1t-25 3q25 -24 25 -53q0 -54 -32 -79.5t-95 -25.5q-131 0 -248 93q-51 42 -91 91t-69 111q-32 70 -48.5 145t-16.5 158q0 163 55 338q28 94 65.5 170.5t83.5 139.5q65 86 154 151v2q84 109 197 184.5t262 120.5h-2q23 10 42.5 13.5t33.5 3.5 q31 0 65 -17q51 -23 96 -141l-2 2q41 -99 41 -158q0 -8 -4 -27l-10 -40q-11 0 -49.5 -9t-95.5 -26q3 -14 4.5 -27t1.5 -24q0 -8 -5 -27t-10 -41q-11 0 -52 -9t-103 -28q-67 -19 -121 -55q-5 -6 -9.5 -13t-9.5 -14q-114 -179 -114 -370q0 -48 6 -92.5t20 -87.5l16 21 q8 10 19 19q22 20 43.5 35.5t44.5 24.5q11 26 27 49t39 45q43 40 88 60t98 20q170 0 170 -176zM956 358q0 -129 -24 -264q-17 -18 -37 -18q-52 0 -184 53q-59 22 -90 61q118 211 147 381q3 28 9 59t14 66q13 19 26 19q11 0 27 -10q51 -33 86 -158q26 -99 26 -189zM969 1311 q0 -122 -27 -162q-8 -14 -34.5 -34.5t-71.5 -49.5q-111 -66 -125 -80q-110 -89 -291 -381q-152 -253 -182 -414q-11 -51 -15 -78.5t-6 -31.5q-23 -61 -72 -80q-16 6 -16 33q0 6 1 19.5t1 19.5q0 147 59 377q74 289 195 509q122 223 328 435q137 143 182 143q74 0 74 -225z " />
<glyph unicode="&#xe3;" horiz-adv-x="1090" d="M1487 2508l172 102l-256 19h-121l428 -512l-512 426v-119l17 -256l102 170l-170 -680l-172 680l102 -170l19 256v119l-512 -426l426 512h-119l-256 -19l170 -102l-682 172l682 170l-170 -102l256 -17h119l-426 512l512 -428v121l-19 256l-102 -172l172 684l170 -684 l-102 172l-17 -256v-121l512 428l-428 -512h121l256 17l-172 102l684 -170zM956 358q0 -129 -24 -264q-17 -18 -37 -18q-52 0 -184 53q-59 22 -90 61q118 211 147 381q3 28 9 59t14 66q13 19 26 19q11 0 27 -10q51 -33 86 -158q26 -99 26 -189zM969 1311q0 -122 -27 -162 q-8 -14 -34.5 -34.5t-71.5 -49.5q-111 -66 -125 -80q-110 -89 -291 -381q-152 -253 -182 -414q-11 -51 -15 -78.5t-6 -31.5q-23 -61 -72 -80q-16 6 -16 33q0 6 1 19.5t1 19.5q0 147 59 377q74 289 195 509q122 223 328 435q137 143 182 143q74 0 74 -225z" />
<glyph unicode="&#xe8;" horiz-adv-x="1049" d="M1226 2442l172 102l-256 19h-121l428 -512l-512 426v-119l17 -256l102 170l-170 -680l-172 680l102 -170l19 256v119l-512 -426l426 512h-119l-256 -19l170 -102l-682 172l682 170l-170 -102l256 -17h119l-426 512l512 -428v121l-19 256l-102 -172l172 684l170 -684 l-102 172l-17 -256v-121l512 428l-428 -512h121l256 17l-172 102l684 -170zM795 199q0 -69 -49 -115q-49 -47 -115 -47q-92 0 -92 90q0 33 13 63t35.5 53t52 36.5t62.5 13.5q93 0 93 -94zM874 1442l-26 -38l-76 -114l-86 -124q-29 -42 -33 -46q-178 -275 -178 -538 q0 -186 37 -303q-52 -75 -156 -170q-124 -109 -186 -109q-34 0 -47 27q-2 26 -3 57t-1 66q0 259 86 491q38 102 98.5 210.5t145.5 225.5q50 69 196 215q167 166 211 166q18 0 18 -16zM948 834q0 -84 -67 -154q-64 -70 -148 -70q-58 0 -95 39q-38 40 -38 94q0 83 70 150 q69 70 153 70q27 0 50 -10t39.5 -27t26 -41t9.5 -51z" />
<glyph unicode="&#xea;" horiz-adv-x="1049" d="M1530 2207q0 135 -129 135q-87 0 -158 -68q-67 -64 -67 -153q0 -63 37.5 -99t97.5 -36q85 0 152 67q67 70 67 154zM1536 2999q0 53 -37 142q-37 99 -75 119q-26 12 -47 12q-19 0 -62 -15q-283 -85 -438 -290q-45 -60 -81 -133t-63 -164q-53 -174 -53 -326q0 -155 62 -285 q55 -112 149 -188q109 -84 221 -84q86 0 86 63q0 20 -41 46q-13 9 -27 17.5t-30 16.5q-72 45 -111 160q-30 94 -30 199q0 206 121 393q124 196 317 252q129 39 135 39q4 11 4 26zM1571 2207q0 -99 -80 -182q-41 -42 -92 -64q-9 -23 -25 -45.5t-36 -44.5q-50 -50 -107 -70 q-24 -55 -119 -55q-14 0 -26 1t-25 3q25 -24 25 -53q0 -54 -32 -79.5t-95 -25.5q-131 0 -248 93q-51 42 -91 91t-69 111q-32 70 -48.5 145t-16.5 158q0 163 55 338q28 94 65.5 170.5t83.5 139.5q65 86 154 151v2q84 109 197 184.5t262 120.5h-2q23 10 42.5 13.5t33.5 3.5 q31 0 65 -17q51 -23 96 -141l-2 2q41 -99 41 -158q0 -8 -5 -27l-9 -40q-11 0 -49.5 -9t-95.5 -26q3 -14 4.5 -27t1.5 -24q0 -8 -5 -27t-10 -41q-11 0 -52 -9t-103 -28q-67 -19 -121 -55q-5 -6 -9.5 -13t-9.5 -14q-114 -179 -114 -370q0 -48 6 -92.5t20 -87.5l16 21 q8 10 19 19q22 20 43.5 35.5t44.5 24.5q11 26 27 49t39 45q43 40 88 60t98 20q170 0 170 -176zM795 199q0 -69 -49 -115q-49 -47 -115 -47q-92 0 -92 90q0 33 13 63t35.5 53t52 36.5t62.5 13.5q93 0 93 -94zM874 1442l-26 -38l-76 -114l-86 -124q-29 -42 -33 -46 q-178 -275 -178 -538q0 -186 37 -303q-52 -75 -156 -170q-124 -109 -186 -109q-34 0 -47 27q-2 26 -3 57t-1 66q0 259 86 491q38 102 98.5 210.5t145.5 225.5q50 69 196 215q167 166 211 166q18 0 18 -16zM948 834q0 -84 -67 -154q-64 -70 -148 -70q-58 0 -95 39 q-38 40 -38 94q0 83 70 150q69 70 153 70q27 0 50 -10t39.5 -27t26 -41t9.5 -51z" />
<glyph unicode="&#xec;" horiz-adv-x="1550" d="M1328 2471l172 102l-256 19h-121l428 -512l-512 426v-119l17 -256l102 170l-170 -680l-172 680l102 -170l19 256v119l-512 -426l426 512h-119l-256 -19l170 -102l-682 172l682 170l-170 -102l256 -17h119l-426 512l512 -428v121l-19 256l-102 -172l172 684l170 -684 l-102 172l-17 -256v-121l512 428l-428 -512h121l256 17l-172 102l684 -170zM1362 569q0 -174 -260 -360q-242 -174 -428 -174q-211 0 -367 166q-137 146 -137 297q0 73 41 120q57 0 98 -77q58 -115 86 -144q82 -78 230 -78q218 0 370 158q17 21 35 47l39 54l25 44l24 44 q20 34 35 53t23 24q11 7 28 7q56 0 107 -64q51 -59 51 -117zM1014 825q0 -90 -70 -159q-67 -70 -158 -70q-29 0 -52.5 10t-40.5 28t-26.5 42t-9.5 53q0 90 68 156q67 67 160 67q129 0 129 -127zM1407 1024q0 -137 -55 -137q-35 0 -62 61l-30 92q-34 77 -123 127 q-83 45 -170 45q-156 0 -293 -110q-83 -66 -127 -146l-41 -86l-43 -86q-55 1 -139 60q-84 58 -84 112q0 112 166 275q144 144 268 203q142 65 287 65q194 0 323 -141q123 -140 123 -334z" />
<glyph unicode="&#xee;" horiz-adv-x="1550" d="M1633 2236q0 135 -129 135q-87 0 -158 -68q-67 -64 -67 -153q0 -63 37.5 -99t97.5 -36q85 0 152 67q67 70 67 154zM1639 3028q0 53 -37 142q-37 99 -75 119q-26 12 -47 12q-19 0 -62 -15q-283 -85 -438 -290q-45 -60 -81 -133t-63 -164q-53 -174 -53 -326q0 -155 62 -285 q55 -112 149 -188q109 -84 221 -84q86 0 86 63q0 20 -41 46q-13 9 -27 17.5t-30 16.5q-72 45 -111 160q-30 94 -30 199q0 206 121 393q124 196 317 252q129 39 135 39q4 11 4 26zM1674 2236q0 -99 -80 -182q-41 -42 -92 -64q-9 -23 -25 -45.5t-36 -44.5q-50 -50 -107 -70 q-24 -55 -119 -55q-14 0 -26 1t-25 3q25 -24 25 -53q0 -54 -32 -79.5t-95 -25.5q-131 0 -248 93q-51 42 -91 91t-69 111q-32 70 -48.5 145t-16.5 158q0 163 55 338q28 94 65.5 170.5t83.5 139.5q65 86 154 151v2q84 109 197 184.5t262 120.5h-2q23 10 42.5 13.5t33.5 3.5 q31 0 65 -17q51 -23 96 -141l-2 2q41 -99 41 -158q0 -8 -4 -26l-10 -41q-11 0 -49.5 -9t-95.5 -26q3 -14 4.5 -27t1.5 -24q0 -8 -5 -27t-10 -41q-11 0 -52 -9t-103 -28q-67 -19 -121 -55q-5 -6 -9.5 -13t-9.5 -14q-114 -179 -114 -370q0 -48 6 -92.5t20 -87.5l16 21 q8 10 19 19q22 20 43.5 35.5t44.5 24.5q11 26 27 49t39 45q43 40 88 60t98 20q170 0 170 -176zM1362 569q0 -174 -260 -360q-242 -174 -428 -174q-211 0 -367 166q-137 146 -137 297q0 73 41 120q57 0 98 -77q58 -115 86 -144q82 -78 230 -78q218 0 370 158q17 21 35 47 l39 54l25 44l24 44q20 34 35 53t23 24q11 7 28 7q56 0 107 -64q51 -59 51 -117zM1014 825q0 -90 -70 -159q-67 -70 -158 -70q-29 0 -52.5 10t-40.5 28t-26.5 42t-9.5 53q0 90 68 156q67 67 160 67q129 0 129 -127zM1407 1024q0 -137 -55 -137q-35 0 -62 61l-30 92 q-34 77 -123 127q-83 45 -170 45q-156 0 -293 -110q-83 -66 -127 -146l-41 -86l-43 -86q-55 1 -139 60q-84 58 -84 112q0 112 166 275q144 144 268 203q142 65 287 65q194 0 323 -141q123 -140 123 -334z" />
<glyph unicode="&#xf1;" horiz-adv-x="1137" d="M1406 2463l172 102l-256 19h-121l428 -512l-512 426v-119l17 -256l102 170l-170 -680l-172 680l102 -170l19 256v119l-512 -426l426 512h-119l-256 -19l170 -102l-682 172l682 170l-170 -102l256 -17h119l-426 512l512 -428v121l-19 256l-102 -172l172 684l170 -684 l-102 172l-17 -256v-121l512 428l-428 -512h121l256 17l-172 102l684 -170zM1040 297q0 -190 -26 -236q-23 -36 -66 -36q-46 0 -139 41q-86 41 -119 84q70 105 113.5 197t62.5 173q4 29 9 60l10 63q11 23 28 23q50 0 93 -160q34 -133 34 -209zM1104 1384q0 -36 -105 -36 q-116 0 -243 -78q-63 -38 -111 -82.5t-82 -95.5q-114 -177 -114 -514q0 -235 49 -474q-56 -38 -197 -77q-149 -41 -209 -41q-63 0 -63 278q0 426 194 791q235 436 627 436q254 0 254 -107z" />
<glyph unicode="&#xf2;" horiz-adv-x="1292" d="M1108 2442l172 102l-256 19h-121l428 -512l-512 426v-119l17 -256l102 170l-170 -680l-172 680l102 -170l19 256v119l-512 -426l426 512h-119l-256 -19l170 -102l-682 172l682 170l-170 -102l256 -17h119l-426 512l512 -428v121l-19 256l-102 -172l172 684l170 -684 l-102 172l-17 -256v-121l512 428l-428 -512h121l256 17l-172 102l684 -170zM1116 481q0 -164 -18 -233q-33 -133 -191 -199q-114 -49 -280 -49q-245 0 -394 158q-143 149 -143 399q0 202 131 432q122 222 287 354q161 127 233 127q33 0 33 -38q0 -30 -92 -142 q-116 -136 -174 -239q-92 -178 -92 -349q0 -155 82 -225q73 -61 235 -61q90 0 174 37q27 10 57 29l66 40q50 37 68 37t18 -78zM1096 1108q0 -92 -70 -162q-67 -67 -160 -67q-127 0 -127 131q0 92 68 157q71 68 162 68q127 0 127 -127z" />
<glyph unicode="&#xf4;" horiz-adv-x="1292" d="M1413 2207q0 135 -129 135q-87 0 -158 -68q-67 -64 -67 -153q0 -63 37.5 -99t97.5 -36q85 0 152 67q67 70 67 154zM1419 2999q0 53 -37 142q-37 99 -75 119q-26 12 -47 12q-19 0 -62 -15q-283 -85 -438 -290q-45 -60 -81 -133t-63 -164q-53 -174 -53 -326q0 -155 62 -285 q55 -112 149 -188q109 -84 221 -84q86 0 86 63q0 20 -41 46q-13 9 -27 17.5t-30 16.5q-72 45 -111 160q-30 94 -30 199q0 206 121 393q124 196 317 252q129 39 135 39q4 11 4 26zM1454 2207q0 -99 -80 -182q-41 -42 -92 -64q-9 -23 -25 -45.5t-36 -44.5q-50 -50 -107 -70 q-24 -55 -119 -55q-14 0 -26 1t-25 3q25 -24 25 -53q0 -54 -32 -79.5t-95 -25.5q-131 0 -248 93q-51 42 -91 91t-69 111q-32 70 -48.5 145t-16.5 158q0 163 55 338q28 94 65.5 170.5t83.5 139.5q65 86 154 151v2q84 109 197 184.5t262 120.5h-2q23 10 42.5 13.5t33.5 3.5 q31 0 65 -17q51 -23 96 -141l-2 2q41 -99 41 -158q0 -8 -4 -27l-10 -40q-11 0 -49.5 -9t-95.5 -26q3 -14 4.5 -27t1.5 -24q0 -8 -5 -27t-10 -41q-11 0 -52 -9t-103 -28q-67 -19 -121 -55q-5 -6 -9.5 -13t-9.5 -14q-114 -179 -114 -370q0 -48 6 -92.5t20 -87.5l16 21 q8 10 19 19q22 20 43.5 35.5t44.5 24.5q11 26 27 49t39 45q43 40 88 60t98 20q170 0 170 -176zM1116 481q0 -164 -18 -233q-33 -133 -191 -199q-114 -49 -280 -49q-245 0 -394 158q-143 149 -143 399q0 202 131 432q122 222 287 354q161 127 233 127q33 0 33 -38 q0 -30 -92 -142q-116 -136 -174 -239q-92 -178 -92 -349q0 -155 82 -225q73 -61 235 -61q90 0 174 37q27 10 57 29l66 40q50 37 68 37t18 -78zM1096 1108q0 -92 -70 -162q-67 -67 -160 -67q-127 0 -127 131q0 92 68 157q71 68 162 68q127 0 127 -127z" />
<glyph unicode="&#xf5;" horiz-adv-x="1292" d="M1333 2442l172 102l-256 19h-121l428 -512l-512 426v-119l17 -256l102 170l-170 -680l-172 680l102 -170l19 256v119l-512 -426l426 512h-119l-256 -19l170 -102l-682 172l682 170l-170 -102l256 -17h119l-426 512l512 -428v121l-19 256l-102 -172l172 684l170 -684 l-102 172l-17 -256v-121l512 428l-428 -512h121l256 17l-172 102l684 -170zM1116 481q0 -164 -18 -233q-33 -133 -191 -199q-114 -49 -280 -49q-245 0 -394 158q-143 149 -143 399q0 202 131 432q122 222 287 354q161 127 233 127q33 0 33 -38q0 -30 -92 -142 q-116 -136 -174 -239q-92 -178 -92 -349q0 -155 82 -225q73 -61 235 -61q90 0 174 37q27 10 57 29l66 40q50 37 68 37t18 -78zM1096 1108q0 -92 -70 -162q-67 -67 -160 -67q-127 0 -127 131q0 92 68 157q71 68 162 68q127 0 127 -127z" />
<glyph unicode="&#xf9;" horiz-adv-x="1036" d="M1051 2453l172 102l-256 19h-121l428 -512l-512 426v-119l17 -256l102 170l-170 -680l-172 680l102 -170l19 256v119l-512 -426l426 512h-119l-256 -19l170 -102l-682 172l682 170l-170 -102l256 -17h119l-426 512l512 -428v121l-19 256l-102 -172l172 684l170 -684 l-102 172l-17 -256v-121l512 428l-428 -512h121l256 17l-172 102l684 -170zM848 1081q0 -500 -135 -723q-214 -358 -484 -358q-80 0 -154 49q-75 49 -114 123q-18 33 -18 55q0 24 19 47q18 25 38 25q18 0 94 -76q76 -73 139 -73q105 0 191 104q74 95 92 207q6 45 6 112 q0 270 -125 621q-26 75 -26 98q0 78 121 138q102 51 192 51q54 0 82 -19q37 -22 61 -178q11 -61 16 -111t5 -92z" />
<glyph unicode="&#xfb;" horiz-adv-x="1036" d="M1356 2218q0 135 -129 135q-87 0 -158 -68q-67 -64 -67 -153q0 -63 37.5 -99t97.5 -36q85 0 152 67q67 70 67 154zM1362 3010q0 53 -37 142q-37 99 -75 119q-26 12 -47 12q-19 0 -62 -15q-283 -85 -438 -290q-45 -60 -81 -133t-63 -164q-53 -174 -53 -326q0 -155 62 -285 q55 -112 149 -188q109 -84 221 -84q86 0 86 63q0 20 -41 46q-13 9 -27 17.5t-30 16.5q-72 45 -111 160q-30 94 -30 199q0 206 121 393q124 196 317 252q129 39 135 39q4 11 4 26zM1397 2218q0 -99 -80 -182q-41 -42 -92 -64q-9 -23 -25 -45.5t-36 -44.5q-50 -50 -107 -70 q-24 -55 -119 -55q-14 0 -26 1t-25 3q25 -24 25 -53q0 -54 -32 -79.5t-95 -25.5q-131 0 -248 93q-51 42 -91 91t-69 111q-32 70 -48.5 145t-16.5 158q0 163 55 338q28 94 65.5 170.5t83.5 139.5q65 86 154 151v2q84 109 197 184.5t262 120.5h-2q23 10 42.5 13.5t33.5 3.5 q31 0 65 -17q51 -23 96 -141l-2 2q41 -99 41 -158q0 -8 -5 -26l-9 -41q-11 0 -49.5 -9t-95.5 -26q3 -14 4.5 -27t1.5 -24q0 -8 -5 -27t-10 -41q-11 0 -52 -9t-103 -28q-67 -19 -121 -55q-5 -6 -9.5 -13t-9.5 -14q-114 -179 -114 -370q0 -48 6 -92.5t20 -87.5l16 21 q8 10 19 19q22 20 43.5 35.5t44.5 24.5q11 26 27 49t39 45q43 40 88 60t98 20q170 0 170 -176zM848 1081q0 -500 -135 -723q-214 -358 -484 -358q-80 0 -154 49q-75 49 -114 123q-18 33 -18 55q0 24 19 47q18 25 38 25q18 0 94 -76q76 -73 139 -73q105 0 191 104 q74 95 92 207q6 45 6 112q0 270 -125 621q-26 75 -26 98q0 78 121 138q102 51 192 51q54 0 82 -19q37 -22 61 -178q11 -61 16 -111t5 -92z" />
<glyph unicode="&#x152;" horiz-adv-x="2613" d="M2021 227l-25 -31q-13 -17 -28 -32q8 3 15.5 5.5t16.5 4.5q4 14 9.5 27.5t11.5 25.5zM2289 199q0 94 -90 94q-34 0 -64 -13.5t-52 -36.5t-35 -53t-13 -63q0 -90 92 -90q65 0 114 47q48 46 48 115zM2445 834q0 27 -9.5 51t-26.5 41t-40.5 27t-50.5 10q-82 0 -152 -70 q-69 -68 -69 -150q0 -27 9.5 -51.5t27 -42.5t41.5 -28.5t53 -10.5q82 0 149 70q68 71 68 154zM2369 1442q0 16 -16 16q-46 0 -213 -166q-72 -72 -120 -126t-75 -89q-170 -232 -246 -436q-84 -233 -84 -491v-66q0 -16 0.5 -30t1.5 -27q15 -27 50 -27q62 0 186 109 q51 45 89 87.5t65 82.5q-37 117 -37 303q0 263 180 538q2 7 117 170zM2404 1419l-22 -31l-18 -26l-25 -36l-40 -58q-54 -76 -82.5 -120t-31.5 -50q-48 -71 -82 -141.5t-55 -139.5q6 5 12 7t12 5q11 25 27 48t39 45q82 82 180 82q37 0 67.5 -13t53 -36t35 -54t12.5 -67 q0 -98 -80 -183q-23 -23 -46 -39.5t-48 -25.5q-10 -23 -25 -45.5t-35 -42.5q-78 -82 -178 -82q-15 0 -29 1.5t-26 6.5q6 -42 14 -79.5t19 -72.5q-2 -3 -3.5 -5t-3.5 -5q29 32 68.5 52t85.5 20q131 0 131 -135q0 -37 -12 -70t-33.5 -59t-51 -44.5t-63.5 -25.5q-8 -34 -26 -63 t-44 -50t-58.5 -33t-67.5 -12q-133 0 -133 131q0 23 4.5 45.5t15.5 42.5q-3 -2 -5 -4t-5 -4q-26 -34 -58 -65l-67 -64q-69 -59 -122 -89t-91 -30q-28 0 -50.5 13.5t-39.5 44.5q-2 14 -2 31v36v66q0 265 86 506q38 105 101 215t151 231q26 35 75 90t123 129l30 29l28 27 l45 45l51 53q93 90 152 134t90 44q26 0 41.5 -15.5t15.5 -41.5zM1163 1108q0 127 -127 127q-91 0 -162 -68q-67 -64 -67 -157q0 -131 129 -131q93 0 160 67q67 70 67 162zM1204 1108q0 -109 -80 -190q-41 -42 -92 -64q-11 -25 -26 -46.5t-35 -43.5q-80 -80 -189 -80 q-170 0 -170 172q0 112 80 186q22 20 44 35.5t46 24.5q20 53 64 94q86 80 190 80q168 0 168 -168zM1184 481q0 78 -19 78q-12 0 -67 -37l-66 -40q-31 -19 -57 -29q-84 -37 -174 -37q-160 0 -236 61q-80 71 -80 225q0 172 93 349q26 49 70 108t104 131q92 112 92 142 q0 38 -35 38q-74 0 -231 -127q-167 -130 -289 -354q-129 -231 -129 -432q0 -250 143 -399q146 -158 391 -158q163 0 283 49q157 65 188 199q19 67 19 233zM1225 481q0 -83 -5 -143t-16 -100q-18 -72 -61.5 -123t-112.5 -88q-26 -56 -73.5 -97.5t-116.5 -72.5 q-62 -26 -136.5 -39t-162.5 -13q-267 0 -422 170h2q-156 162 -156 428q0 106 33.5 219t101.5 234l-2 -2q60 113 131 201.5t158 156.5q37 48 78.5 88.5t87.5 75.5h-2q84 68 148.5 101.5t109.5 33.5q37 0 56.5 -18.5t19.5 -60.5q0 -44 -103 -168q-57 -70 -99.5 -127 t-68.5 -105q-88 -164 -88 -330q0 -69 16 -116t48 -76q68 -53 211 -53q83 0 157 32q22 10 51 27l66 41q64 43 90 43q60 0 60 -119z" />
<glyph unicode="&#x153;" horiz-adv-x="2341" d="M2087 199q0 -69 -49 -115q-49 -47 -115 -47q-92 0 -92 90q0 33 13 63t35.5 53t52 36.5t62.5 13.5q93 0 93 -94zM2166 1442l-26 -38l-76 -114l-86 -124q-29 -42 -33 -46q-178 -275 -178 -538q0 -186 37 -303q-52 -75 -156 -170q-124 -109 -186 -109q-34 0 -47 27 q-2 26 -3 57t-1 66q0 259 86 491q38 102 98.5 210.5t145.5 225.5q50 69 196 215q167 166 211 166q18 0 18 -16zM2240 834q0 -84 -67 -154q-64 -70 -148 -70q-58 0 -95 39q-38 40 -38 94q0 83 70 150q69 70 153 70q27 0 50 -10t39.5 -27t26 -41t9.5 -51zM1116 481 q0 -164 -18 -233q-33 -133 -191 -199q-114 -49 -280 -49q-245 0 -394 158q-143 149 -143 399q0 202 131 432q122 222 287 354q161 127 233 127q33 0 33 -38q0 -30 -92 -142q-116 -136 -174 -239q-92 -178 -92 -349q0 -155 82 -225q73 -61 235 -61q90 0 174 37q27 10 57 29 l66 40q50 37 68 37t18 -78zM1096 1108q0 -92 -70 -162q-67 -67 -160 -67q-127 0 -127 131q0 92 68 157q71 68 162 68q127 0 127 -127z" />
<glyph unicode="&#x2c6;" horiz-adv-x="1294" d="M1030 420q0 135 -129 135q-87 0 -158 -68q-67 -64 -67 -153q0 -63 37.5 -99t97.5 -36q85 0 152 67q67 70 67 154zM1036 1212q0 53 -37 142q-37 99 -75 119q-26 12 -47 12q-19 0 -62 -15q-283 -85 -438 -290q-45 -60 -81 -133t-63 -164q-53 -174 -53 -326q0 -155 62 -285 q55 -112 149 -188q109 -84 221 -84q86 0 86 63q0 20 -41 46q-13 9 -27 17.5t-30 16.5q-72 45 -111 160q-30 94 -30 199q0 206 121 393q124 196 317 252q129 39 135 39q4 11 4 26zM1071 420q0 -99 -80 -182q-41 -42 -92 -64q-9 -23 -25 -45.5t-36 -44.5q-50 -50 -107 -70 q-24 -55 -119 -55q-14 0 -26 1t-25 3q25 -24 25 -53q0 -54 -32 -79.5t-95 -25.5q-131 0 -248 93q-51 42 -91 91t-69 111q-32 70 -48.5 145t-16.5 158q0 163 55 338q28 94 65.5 170.5t83.5 139.5q65 86 154 151v2q84 109 197 184.5t262 120.5h-2q23 10 42.5 13.5t33.5 3.5 q31 0 65 -17q51 -23 96 -141l-2 2q41 -99 41 -158q0 -8 -5 -26l-9 -41q-11 0 -49.5 -9t-95.5 -26q3 -14 4.5 -27t1.5 -24q0 -8 -5 -27t-10 -41q-11 0 -52 -9t-103 -28q-67 -19 -121 -55q-5 -6 -9.5 -13t-9.5 -14q-114 -179 -114 -370q0 -48 6 -92.5t20 -87.5l16 21 q8 10 19 19q22 20 43.5 35.5t44.5 24.5q11 26 27 49t39 45q43 40 88 60t98 20q170 0 170 -176z" />
<glyph unicode="&#x2dc;" horiz-adv-x="768" d="M592 972l172 102l-256 19h-121l428 -512l-512 426v-119l17 -256l102 170l-170 -680l-172 680l102 -170l19 256v119l-512 -426l426 512h-119l-256 -19l170 -102l-682 172l682 170l-170 -102l256 -17h119l-426 512l512 -428v121l-19 256l-102 -172l172 684l170 -684 l-102 172l-17 -256v-121l512 428l-428 -512h121l256 17l-172 102l684 -170z" />
<glyph unicode="&#x2013;" horiz-adv-x="1024" d="M204 512v204h616v-204h-616z" />
<glyph unicode="&#x2014;" horiz-adv-x="2048" d="M204 512v204h1640v-204h-1640z" />
<glyph unicode="&#x2018;" d="M1450 682l172 102l-256 19h-121l428 -512l-512 426v-119l17 -256l102 170l-170 -680l-172 680l102 -170l19 256v119l-512 -426l426 512h-119l-256 -19l170 -102l-682 172l682 170l-170 -102l256 -17h119l-426 512l512 -428v121l-19 256l-102 -172l172 684l170 -684 l-102 172l-17 -256v-121l512 428l-428 -512h121l256 17l-172 102l684 -170z" />
<glyph unicode="&#x2019;" d="M1450 682l172 102l-256 19h-121l428 -512l-512 426v-119l17 -256l102 170l-170 -680l-172 680l102 -170l19 256v119l-512 -426l426 512h-119l-256 -19l170 -102l-682 172l682 170l-170 -102l256 -17h119l-426 512l512 -428v121l-19 256l-102 -172l172 684l170 -684 l-102 172l-17 -256v-121l512 428l-428 -512h121l256 17l-172 102l684 -170z" />
<glyph unicode="&#x201c;" d="M1450 682l172 102l-256 19h-121l428 -512l-512 426v-119l17 -256l102 170l-170 -680l-172 680l102 -170l19 256v119l-512 -426l426 512h-119l-256 -19l170 -102l-682 172l682 170l-170 -102l256 -17h119l-426 512l512 -428v121l-19 256l-102 -172l172 684l170 -684 l-102 172l-17 -256v-121l512 428l-428 -512h121l256 17l-172 102l684 -170z" />
<glyph unicode="&#x201d;" d="M1450 682l172 102l-256 19h-121l428 -512l-512 426v-119l17 -256l102 170l-170 -680l-172 680l102 -170l19 256v119l-512 -426l426 512h-119l-256 -19l170 -102l-682 172l682 170l-170 -102l256 -17h119l-426 512l512 -428v121l-19 256l-102 -172l172 684l170 -684 l-102 172l-17 -256v-121l512 428l-428 -512h121l256 17l-172 102l684 -170z" />
<glyph unicode="&#x2026;" horiz-adv-x="6654" d="M5886 682l172 102l-256 19h-121l428 -512l-512 426v-119l17 -256l102 170l-170 -680l-172 680l102 -170l19 256v119l-512 -426l426 512h-119l-256 -19l170 -102l-682 172l682 170l-170 -102l256 -17h119l-426 512l512 -428v121l-19 256l-102 -172l172 684l170 -684 l-102 172l-17 -256v-121l512 428l-428 -512h121l256 17l-172 102l684 -170zM3668 682l172 102l-256 19h-121l428 -512l-512 426v-119l17 -256l102 170l-170 -680l-172 680l102 -170l19 256v119l-512 -426l426 512h-119l-256 -19l170 -102l-682 172l682 170l-170 -102 l256 -17h119l-426 512l512 -428v121l-19 256l-102 -172l172 684l170 -684l-102 172l-17 -256v-121l512 428l-428 -512h121l256 17l-172 102l684 -170zM1450 682l172 102l-256 19h-121l428 -512l-512 426v-119l17 -256l102 170l-170 -680l-172 680l102 -170l19 256v119 l-512 -426l426 512h-119l-256 -19l170 -102l-682 172l682 170l-170 -102l256 -17h119l-426 512l512 -428v121l-19 256l-102 -172l172 684l170 -684l-102 172l-17 -256v-121l512 428l-428 -512h121l256 17l-172 102l684 -170z" />
<glyph unicode="&#x2039;" d="M1450 682l172 102l-256 19h-121l428 -512l-512 426v-119l17 -256l102 170l-170 -680l-172 680l102 -170l19 256v119l-512 -426l426 512h-119l-256 -19l170 -102l-682 172l682 170l-170 -102l256 -17h119l-426 512l512 -428v121l-19 256l-102 -172l172 684l170 -684 l-102 172l-17 -256v-121l512 428l-428 -512h121l256 17l-172 102l684 -170z" />
<glyph unicode="&#x203a;" d="M1450 682l172 102l-256 19h-121l428 -512l-512 426v-119l17 -256l102 170l-170 -680l-172 680l102 -170l19 256v119l-512 -426l426 512h-119l-256 -19l170 -102l-682 172l682 170l-170 -102l256 -17h119l-426 512l512 -428v121l-19 256l-102 -172l172 684l170 -684 l-102 172l-17 -256v-121l512 428l-428 -512h121l256 17l-172 102l684 -170z" />
<glyph unicode="&#x2122;" horiz-adv-x="2761" d="M1815 821q3 10 7 18t9 17q-6 -11 -16 -20t-21 -17q-6 -3 -16.5 -7.5t-24.5 -12.5q-3 -5 -5 -10t-5 -11q19 14 36 24.5t36 18.5zM2194 827q0 127 -127 127q-87 0 -158 -65q-68 -66 -68 -156q0 -27 10 -50.5t27 -40.5t41 -26.5t51 -9.5q89 0 156 67q68 68 68 154z M1954 1053q0 37 -65 37q-228 0 -465 -342q-134 -196 -134 -496q0 -34 3 -71t10 -79q19 -118 55 -118q53 0 209 96q69 43 117.5 79t77.5 64q-91 233 -91 408q0 101 54 205q57 109 147 147q50 22 53 25q29 17 29 45zM2566 731q0 223 -90 414q-102 213 -291 303q-51 25 -104 25 q-68 0 -68 -60q0 -16 9 -31q156 -83 217 -190q61 -104 61 -283q0 -251 -168 -510l-52 -77l-52 -80q-86 -128 -86 -144q0 -30 162 -45q55 -4 107 -7t101 -3h17q5 0 10 0.5t10 1.5q82 67 154 320q63 220 63 366zM1841 899q0 -20 -6 -35q8 14 19.5 27.5t25.5 26.5q42 37 87 56 t96 21l-7 12q-3 5 -6 11q-28 48 -80 92t-131 86q-20 36 -20 64q0 100 108 100q16 0 32 -2.5t32 -5.5q-19 35 -19 61q0 100 109 100q59 0 123 -28q100 -47 177.5 -128t131.5 -196q47 -100 70.5 -206t23.5 -224q0 -74 -15.5 -168.5t-49.5 -210.5v2q-77 -268 -168 -344 q-19 -6 -29 -7t-16 -1h-12q-47 -102 -97 -145q-18 -7 -28.5 -8t-16.5 -1h-16q-53 0 -105 3t-108 8q-199 18 -199 86q0 29 92 166q26 42 53 81l52 76q108 168 143 326q-6 -3 -12 -5.5t-12 -4.5q-20 -52 -62 -92q-79 -80 -184 -80q-22 0 -41.5 3.5t-36.5 12.5q24 -100 70 -215 q-32 -32 -73.5 -64.5t-90.5 -66.5q3 -6 5 -11l5 -12q-42 -42 -97 -82.5t-124 -85.5q-84 -51 -141.5 -76.5t-88.5 -25.5q-68 0 -96 152q-12 82 -12 157q0 314 139 518q57 84 115 146.5t115 107.5q213 260 424 260q106 0 106 -77q0 -26 -12.5 -47t-34.5 -33q-8 -5 -22 -11.5 t-37 -15.5q-14 -6 -26.5 -12.5t-23.5 -15.5q0 -5 1 -9.5t1 -9.5zM1153 1470q0 27 -27 27q-158 0 -348 -117l-43 -28q-18 -14 -33 -21q-65 -38 -65 -69q0 -13 10 -19q148 12 150 12q40 0 108 -21q69 -20 105 -20q36 28 90 121q53 98 53 135zM723 676q0 236 -76 395 q-37 78 -99.5 155t-150.5 156q-74 -24 -157 -186q-80 -152 -80 -240q0 -38 24 -59q2 -1 6 -3.5t11 -6.5l41 -25q299 -173 299 -590q0 -51 -4.5 -104.5t-14.5 -112.5q-2 -16 -3 -25.5t-1 -13.5q0 -30 23 -30t67 116q115 318 115 574zM764 676q0 -263 -117 -588 q-26 -72 -53 -107.5t-53 -35.5q-24 0 -39 12q-2 -6 -4 -11t-4 -12q-52 -143 -107 -143q-63 0 -63 72q0 2 1 4.5t1 7.5v15q0 9 2 18q18 117 18 211q0 391 -280 555q-23 15 -36.5 22t-19.5 11q-45 39 -45 96q0 49 21 113t63 145q42 80 85.5 130t94.5 73q41 66 84.5 107 t94.5 56q52 -48 95.5 -92.5t78.5 -89.5q3 2 6 4.5t8 5.5v7q0 29 21.5 54t64.5 50q17 9 34 20l40 27q204 125 370 125q36 0 52 -16t16 -52q0 -48 -59 -155q-29 -51 -57 -87t-54 -54h-35q-2 -4 -4 -7l-4 -6q-29 -51 -57 -87t-54 -54q-26 0 -59 5t-72 17q-11 4 -20 6.5t-19 4.5 q32 -79 48 -173.5t16 -203.5z" />
<glyph unicode="&#xe000;" horiz-adv-x="1480" d="M0 1480h1480v-1480h-1480v1480z" />
<glyph unicode="&#xfb01;" horiz-adv-x="2599" d="M2411 569q0 -174 -260 -360q-242 -174 -428 -174q-211 0 -367 166q-137 146 -137 297q0 73 41 120q57 0 98 -77q58 -115 86 -144q82 -78 230 -78q218 0 370 158q17 21 36 47l38 54l24 44q13 21 25 44q20 34 35 53t23 24q11 7 28 7q56 0 107 -64q51 -59 51 -117zM2063 825 q0 -90 -70 -159q-67 -70 -158 -70q-29 0 -52.5 10t-40.5 28t-26.5 42t-9.5 53q0 90 68 156q67 67 160 67q129 0 129 -127zM2456 1024q0 -137 -55 -137q-35 0 -62 61l-30 92q-34 77 -123 127q-83 45 -170 45q-156 0 -293 -110q-83 -66 -127 -146l-42 -86l-42 -86 q-55 1 -139 60q-84 58 -84 112q0 112 166 275q144 144 268 203q142 65 287 65q194 0 323 -141q123 -140 123 -334zM874 1442l-26 -38l-76 -114l-86 -124q-29 -42 -33 -46q-178 -275 -178 -538q0 -186 37 -303q-52 -75 -156 -170q-124 -109 -186 -109q-34 0 -47 27 q-2 26 -3 57t-1 66q0 259 86 491q38 102 98.5 210.5t145.5 225.5q50 69 196 215q167 166 211 166q18 0 18 -16zM948 834q0 -84 -67 -154q-64 -70 -148 -70q-58 0 -95 39q-38 40 -38 94q0 83 70 150q69 70 153 70q27 0 50 -10t39.5 -27t26 -41t9.5 -51z" />
<glyph unicode="&#xfb02;" horiz-adv-x="1893" d="M1747 252q0 -93 -67 -160q-66 -67 -156 -67q-123 0 -123 129q0 88 68 153q68 68 158 68q120 0 120 -123zM1756 1202q0 -42 -78 -112q-269 -246 -332 -623q-13 -71 -19 -174.5t-6 -243.5q0 -49 -43 -49q-110 194 -110 446q0 407 266 859q106 184 172 184q54 0 107 -119 q43 -101 43 -168zM874 1442l-26 -38l-76 -114l-86 -124q-29 -42 -33 -46q-178 -275 -178 -538q0 -186 37 -303q-52 -75 -156 -170q-124 -109 -186 -109q-34 0 -47 27q-2 26 -3 57t-1 66q0 259 86 491q38 102 98.5 210.5t145.5 225.5q50 69 196 215q167 166 211 166 q18 0 18 -16zM948 834q0 -84 -67 -154q-64 -70 -148 -70q-58 0 -95 39q-38 40 -38 94q0 83 70 150q69 70 153 70q27 0 50 -10t39.5 -27t26 -41t9.5 -51z" />
<glyph unicode="&#xfb03;" horiz-adv-x="3648" d="M3460 569q0 -174 -260 -360q-242 -174 -428 -174q-211 0 -367 166q-137 146 -137 297q0 73 41 120q57 0 98 -77q58 -115 86 -144q82 -78 230 -78q218 0 370 158q17 21 35 47l39 54l25 44l24 44q20 34 35 53t23 24q11 7 28 7q56 0 107 -64q51 -59 51 -117zM3112 825 q0 -90 -70 -159q-67 -70 -158 -70q-29 0 -52.5 10t-40.5 28t-26.5 42t-9.5 53q0 90 68 156q67 67 160 67q129 0 129 -127zM3505 1024q0 -137 -55 -137q-35 0 -62 61l-30 92q-34 77 -123 127q-83 45 -170 45q-156 0 -293 -110q-83 -66 -127 -146l-41 -86l-43 -86 q-55 1 -139 60q-84 58 -84 112q0 112 166 275q144 144 268 203q142 65 287 65q194 0 323 -141q123 -140 123 -334zM1923 1442l-25 -38l-77 -114l-86 -124q-29 -42 -33 -46q-178 -275 -178 -538q0 -186 37 -303q-52 -75 -156 -170q-124 -109 -186 -109q-34 0 -47 27 q-2 26 -3 57t-1 66q0 259 86 491q38 102 98.5 210.5t145.5 225.5q50 69 196 215q167 166 211 166q18 0 18 -16zM1997 834q0 -84 -67 -154q-64 -70 -148 -70q-58 0 -95 39q-38 40 -38 94q0 83 70 150q69 70 153 70q27 0 50 -10t39.5 -27t26 -41t9.5 -51zM874 1442l-26 -38 l-76 -114l-86 -124q-29 -42 -33 -46q-178 -275 -178 -538q0 -186 37 -303q-52 -75 -156 -170q-124 -109 -186 -109q-34 0 -47 27q-2 26 -3 57t-1 66q0 259 86 491q38 102 98.5 210.5t145.5 225.5q50 69 196 215q167 166 211 166q18 0 18 -16zM948 834q0 -84 -67 -154 q-64 -70 -148 -70q-58 0 -95 39q-38 40 -38 94q0 83 70 150q69 70 153 70q27 0 50 -10t39.5 -27t26 -41t9.5 -51z" />
<glyph unicode="&#xfb04;" horiz-adv-x="2942" d="M2796 252q0 -93 -67 -160q-66 -67 -156 -67q-123 0 -123 129q0 88 68 153q68 68 158 68q120 0 120 -123zM2805 1202q0 -42 -78 -112q-269 -246 -332 -623q-13 -71 -19 -174.5t-6 -243.5q0 -49 -43 -49q-110 194 -110 446q0 407 266 859q106 184 172 184q54 0 107 -119 q43 -101 43 -168zM1923 1442l-25 -38l-77 -114l-86 -124q-29 -42 -33 -46q-178 -275 -178 -538q0 -186 37 -303q-52 -75 -156 -170q-124 -109 -186 -109q-34 0 -47 27q-2 26 -3 57t-1 66q0 259 86 491q38 102 98.5 210.5t145.5 225.5q50 69 196 215q167 166 211 166 q18 0 18 -16zM1997 834q0 -84 -67 -154q-64 -70 -148 -70q-58 0 -95 39q-38 40 -38 94q0 83 70 150q69 70 153 70q27 0 50 -10t39.5 -27t26 -41t9.5 -51zM874 1442l-26 -38l-76 -114l-86 -124q-29 -42 -33 -46q-178 -275 -178 -538q0 -186 37 -303q-52 -75 -156 -170 q-124 -109 -186 -109q-34 0 -47 27q-2 26 -3 57t-1 66q0 259 86 491q38 102 98.5 210.5t145.5 225.5q50 69 196 215q167 166 211 166q18 0 18 -16zM948 834q0 -84 -67 -154q-64 -70 -148 -70q-58 0 -95 39q-38 40 -38 94q0 83 70 150q69 70 153 70q27 0 50 -10t39.5 -27 t26 -41t9.5 -51z" />
</font>
</defs>
</svg>
